<?xml version="1.0" encoding="UTF-8"?>
<svg width="200px" height="58px" viewBox="0 0 200 58" version="1.1" xmlns="http://www.w3.org/2000/svg" xmlns:xlink="http://www.w3.org/1999/xlink">
    <!-- Generator: Sketch 55.1 (78136) - https://sketchapp.com -->
    <title>IconAppstore</title>
    <desc>Created with Sketch.</desc>
    <g id="PC" stroke="none" stroke-width="1" fill="none" fill-rule="evenodd">
        <g id="00-Landing" transform="translate(-160.000000, -762.000000)">
            <g id="app-store" transform="translate(160.000000, 762.000000)">
                <g id="IconAppstore">
                    <rect id="Rectangle-1" stroke="#000000" stroke-width="2" x="1" y="1" width="198" height="56" rx="10"></rect>
                    <path d="M36.5460888,19.1414966 C40.3126593,19.1414966 42.7212255,22.7272381 42.7212255,22.7272381 C42.7212255,22.7272381 39.047047,24.6889796 39.047047,28.949415 C39.047047,34.006068 43.662669,35.4769796 43.662669,35.4769796 C43.662669,35.4769796 40.0195534,43.982068 35.9288141,43.982068 C33.6285697,43.982068 33.4748484,42.6800272 30.4179446,42.6800272 C27.7632651,42.6800272 26.8680176,43.982068 24.8457459,43.982068 C20.9859868,43.982068 16,35.691619 16,28.949415 C16,21.9460136 21.0481125,19.1414966 24.2125415,19.1414966 C26.9914725,19.1414966 28.1487631,20.7505034 30.3868818,20.7505034 C32.2705653,20.7505034 33.7528211,19.1414966 36.5460888,19.1414966 L36.5460888,19.1414966 Z M35.8985477,12 C36.4536967,15.4326531 33.2892677,19.6780952 29.507564,19.54 C28.9516185,15.1722449 33.0272246,12.2304218 35.8985477,12 Z M64.4513889,20.9304788 L67.0209677,20.9304788 L73.8487056,38.1225898 L71.2791268,38.1225898 L69.3702969,32.9456937 L61.9796988,32.9456937 L60.0219245,38.1225898 L57.6481231,38.1225898 L64.4513889,20.9304788 Z M62.7138642,31.0194067 L68.6361315,31.0194067 L65.7239422,23.0012373 L65.6749978,23.0012373 L62.7138642,31.0194067 Z M75.2925642,25.6739604 L77.3726994,25.6739604 L77.3726994,27.3594615 L77.4216438,27.3594615 C77.764256,26.6692052 78.3026386,26.167573 79.0368076,25.8545498 C79.7709767,25.5415266 80.5785505,25.3850174 81.4595533,25.3850174 C82.4384454,25.3850174 83.2908845,25.5615919 84.0168961,25.9147463 C84.7429077,26.2679007 85.3465487,26.7454545 85.8278373,27.3474222 C86.3091259,27.9493899 86.6721263,28.6436489 86.9168493,29.43022 C87.1615723,30.2167911 87.283932,31.0515071 87.283932,31.934393 C87.283932,32.8172789 87.165651,33.6519949 86.9290854,34.438566 C86.6925198,35.2251371 86.3335981,35.91137 85.8523095,36.4972852 C85.3710209,37.0832004 84.7673799,37.5447021 84.0413682,37.881804 C83.3153566,38.2189059 82.4710749,38.3874543 81.5084977,38.3874543 C81.1985152,38.3874543 80.8518295,38.3553498 80.4684301,38.2911399 C80.0850307,38.22693 79.7057157,38.1225905 79.3304738,37.9781183 C78.9552318,37.8336461 78.6003888,37.6370062 78.265934,37.3881929 C77.9314792,37.1393796 77.6500519,36.8303742 77.4216438,36.4611673 L77.3726994,36.4611673 L77.3726994,42.8660714 L75.2925642,42.8660714 L75.2925642,25.6739604 Z M85.0814359,31.7899215 C85.0814359,31.2120325 85.0039414,30.6461914 84.8489502,30.0923811 C84.6939589,29.5385709 84.4573969,29.0449648 84.139257,28.611548 C83.821117,28.1781313 83.4132515,27.8330083 82.915648,27.5761688 C82.4180445,27.3193293 81.8347968,27.1909114 81.1658872,27.1909114 C80.4643479,27.1909114 79.8688642,27.3273554 79.3794181,27.6002474 C78.8899721,27.8731394 78.4902638,28.2303015 78.1802813,28.6717445 C77.8702989,29.1131875 77.6459728,29.6148197 77.5072964,30.1766562 C77.36862,30.7384927 77.2992829,31.3083469 77.2992829,31.8862358 C77.2992829,32.4962298 77.3726987,33.0861492 77.5195325,33.656012 C77.6663663,34.2258747 77.8988497,34.7275069 78.2169896,35.1609236 C78.5351295,35.5943404 78.9470738,35.9434764 79.4528347,36.2083422 C79.9585956,36.473208 80.5703939,36.6056389 81.2882481,36.6056389 C82.0061023,36.6056389 82.6056647,36.4691949 83.0869533,36.1963029 C83.5682419,35.9234109 83.9557141,35.5622357 84.2493818,35.1127665 C84.5430494,34.6632973 84.7551395,34.1496259 84.8856584,33.5717369 C85.0161774,32.9938479 85.0814359,32.3999154 85.0814359,31.7899215 Z M89.8045664,25.6739604 L91.8847016,25.6739604 L91.8847016,27.3594615 L91.933646,27.3594615 C92.2762582,26.6692052 92.8146408,26.167573 93.5488098,25.8545498 C94.2829789,25.5415266 95.0905527,25.3850174 95.9715556,25.3850174 C96.9504476,25.3850174 97.8028867,25.5615919 98.5288983,25.9147463 C99.2549099,26.2679007 99.8585509,26.7454545 100.33984,27.3474222 C100.821128,27.9493899 101.184128,28.6436489 101.428851,29.43022 C101.673575,30.2167911 101.795934,31.0515071 101.795934,31.934393 C101.795934,32.8172789 101.677653,33.6519949 101.441088,34.438566 C101.204522,35.2251371 100.8456,35.91137 100.364312,36.4972852 C99.8830231,37.0832004 99.2793821,37.5447021 98.5533705,37.881804 C97.8273588,38.2189059 96.9830771,38.3874543 96.0204999,38.3874543 C95.7105174,38.3874543 95.3638317,38.3553498 94.9804323,38.2911399 C94.5970329,38.22693 94.2177179,38.1225905 93.842476,37.9781183 C93.467234,37.8336461 93.112391,37.6370062 92.7779362,37.3881929 C92.4434814,37.1393796 92.1620542,36.8303742 91.933646,36.4611673 L91.8847016,36.4611673 L91.8847016,42.8660714 L89.8045664,42.8660714 L89.8045664,25.6739604 Z M99.5934381,31.7899215 C99.5934381,31.2120325 99.5159436,30.6461914 99.3609524,30.0923811 C99.2059611,29.5385709 98.9693991,29.0449648 98.6512592,28.611548 C98.3331193,28.1781313 97.9252537,27.8330083 97.4276502,27.5761688 C96.9300468,27.3193293 96.346799,27.1909114 95.6778894,27.1909114 C94.9763501,27.1909114 94.3808664,27.3273554 93.8914203,27.6002474 C93.4019743,27.8731394 93.002266,28.2303015 92.6922836,28.6717445 C92.3823011,29.1131875 92.157975,29.6148197 92.0192986,30.1766562 C91.8806223,30.7384927 91.8112851,31.3083469 91.8112851,31.8862358 C91.8112851,32.4962298 91.8847009,33.0861492 92.0315347,33.656012 C92.1783685,34.2258747 92.4108519,34.7275069 92.7289918,35.1609236 C93.0471317,35.5943404 93.459076,35.9434764 93.9648369,36.2083422 C94.4705978,36.473208 95.0823961,36.6056389 95.8002503,36.6056389 C96.5181045,36.6056389 97.1176669,36.4691949 97.5989555,36.1963029 C98.0802441,35.9234109 98.4677164,35.5622357 98.761384,35.1127665 C99.0550516,34.6632973 99.2671417,34.1496259 99.3976606,33.5717369 C99.5281796,32.9938479 99.5934381,32.3999154 99.5934381,31.7899215 Z M121.496038,25.9629035 C121.365519,24.7268632 120.912789,23.8319513 120.137832,23.278141 C119.362876,22.7243308 118.371763,22.4474298 117.164463,22.4474298 C116.675017,22.4474298 116.193735,22.4955865 115.720604,22.5919013 C115.247473,22.6882162 114.827371,22.8487385 114.460287,23.0734731 C114.093202,23.2982077 113.799539,23.599187 113.579288,23.9764201 C113.359038,24.3536531 113.248914,24.8231809 113.248914,25.3850174 C113.248914,25.914749 113.407982,26.3441461 113.726122,26.6732218 C114.044261,27.0022975 114.468442,27.2711723 114.998675,27.4798544 C115.528908,27.6885366 116.12847,27.8610981 116.79738,27.9975441 C117.46629,28.1339901 118.147425,28.2824732 118.840807,28.4429979 C119.534189,28.6035226 120.215324,28.7921363 120.884234,29.0088447 C121.553143,29.2255531 122.152706,29.5185063 122.682939,29.8877131 C123.213172,30.25692 123.637352,30.7224347 123.955492,31.2842712 C124.273632,31.8461077 124.4327,32.5524058 124.4327,33.4031868 C124.4327,34.3181777 124.224688,35.1007239 123.808659,35.750849 C123.39263,36.4009741 122.858326,36.9306977 122.205732,37.3400358 C121.553137,37.7493738 120.823057,38.04634 120.015472,38.2309435 C119.207886,38.4155469 118.40439,38.5078472 117.604962,38.5078472 C116.62607,38.5078472 115.700215,38.3874555 114.82737,38.1466684 C113.954524,37.9058813 113.187737,37.5406931 112.526985,37.0510927 C111.866233,36.5614923 111.344165,35.9354553 110.960765,35.1729629 C110.577366,34.4104705 110.385669,33.5075326 110.385669,32.4641219 L112.588165,32.4641219 C112.588165,33.1864831 112.730918,33.8085071 113.016428,34.3302124 C113.301938,34.8519177 113.677175,35.2813149 114.142149,35.6184168 C114.607122,35.9555187 115.149583,36.2043283 115.769548,36.364853 C116.389513,36.5253777 117.025784,36.6056389 117.678378,36.6056389 C118.200454,36.6056389 118.726601,36.5574822 119.256834,36.4611673 C119.787067,36.3648525 120.26427,36.2003171 120.688456,35.9675563 C121.112643,35.7347955 121.45525,35.4177639 121.716288,35.0164521 C121.977326,34.6151403 122.107843,34.101469 122.107843,33.4754226 C122.107843,32.8814811 121.948775,32.3999142 121.630635,32.0307074 C121.312495,31.6615005 120.888315,31.3605212 120.358082,31.1277604 C119.827849,30.8949995 119.228286,30.7063858 118.559377,30.5619136 C117.890467,30.4174413 117.209332,30.2689582 116.51595,30.1164597 C115.822568,29.9639612 115.141433,29.7873867 114.472523,29.5867308 C113.803613,29.3860749 113.204051,29.1212131 112.673818,28.7921374 C112.143585,28.4630618 111.719404,28.0376777 111.401264,27.5159723 C111.083125,26.994267 110.924057,26.3401386 110.924057,25.5535675 C110.924057,24.686734 111.103518,23.9362923 111.462445,23.3022196 C111.821372,22.668147 112.298575,22.1464495 112.894067,21.7371115 C113.48956,21.3277735 114.166617,21.0227811 114.925258,20.8221252 C115.6839,20.6214693 116.462923,20.5211429 117.262351,20.5211429 C118.159669,20.5211429 118.991715,20.6254824 119.758514,20.8341645 C120.525312,21.0428466 121.198291,21.3719173 121.777468,21.8213865 C122.356646,22.2708557 122.813456,22.8366969 123.14791,23.5189269 C123.482365,24.201157 123.665905,25.0158077 123.698534,25.9629035 L121.496038,25.9629035 Z M129.792107,25.6739604 L132.312742,25.6739604 L132.312742,27.4798544 L129.792107,27.4798544 L129.792107,35.2090808 C129.792107,35.4498679 129.8125,35.6424947 129.853288,35.7869669 C129.894075,35.9314391 129.971569,36.0438048 130.085773,36.1240671 C130.199977,36.2043295 130.359045,36.2564992 130.562981,36.2805779 C130.766917,36.3046566 131.032029,36.3166958 131.358327,36.3166958 L132.312742,36.3166958 L132.312742,38.1225898 L130.72205,38.1225898 C130.183659,38.1225898 129.722771,38.0864723 129.339372,38.0142362 C128.955972,37.9420001 128.645995,37.8095692 128.409429,37.6169395 C128.172863,37.4243098 127.997481,37.1514219 127.883277,36.7982675 C127.769073,36.4451132 127.711972,35.9795985 127.711972,35.4017095 L127.711972,27.4798544 L125.55842,27.4798544 L125.55842,25.6739604 L127.711972,25.6739604 L127.711972,21.9417795 L129.792107,21.9417795 L129.792107,25.6739604 Z M133.927905,31.9103144 C133.927905,30.9953236 134.058422,30.1405423 134.31946,29.3459449 C134.580498,28.5513476 134.972049,27.8611017 135.494125,27.2751865 C136.016201,26.6892713 136.660628,26.2277696 137.427427,25.8906677 C138.194226,25.5535658 139.075215,25.3850174 140.070422,25.3850174 C141.081944,25.3850174 141.967012,25.5535658 142.725654,25.8906677 C143.484295,26.2277696 144.124644,26.6892713 144.64672,27.2751865 C145.168796,27.8611017 145.560347,28.5513476 145.821384,29.3459449 C146.082422,30.1405423 146.212939,30.9953236 146.212939,31.9103144 C146.212939,32.8253053 146.082422,33.6760735 145.821384,34.4626446 C145.560347,35.2492157 145.168796,35.9354486 144.64672,36.5213638 C144.124644,37.107279 143.484295,37.5647676 142.725654,37.8938432 C141.967012,38.2229189 141.081944,38.3874543 140.070422,38.3874543 C139.075215,38.3874543 138.194226,38.2229189 137.427427,37.8938432 C136.660628,37.5647676 136.016201,37.107279 135.494125,36.5213638 C134.972049,35.9354486 134.580498,35.2492157 134.31946,34.4626446 C134.058422,33.6760735 133.927905,32.8253053 133.927905,31.9103144 Z M136.130401,31.9103144 C136.130401,32.6647806 136.232368,33.3349612 136.436304,33.9208764 C136.64024,34.5067916 136.921667,34.9963847 137.280594,35.3896702 C137.639521,35.7829558 138.059623,36.0839351 138.540911,36.2926172 C139.0222,36.5012994 139.532032,36.6056389 140.070422,36.6056389 C140.608813,36.6056389 141.118645,36.5012994 141.599934,36.2926172 C142.081222,36.0839351 142.501324,35.7829558 142.860251,35.3896702 C143.219178,34.9963847 143.500605,34.5067916 143.704541,33.9208764 C143.908477,33.3349612 144.010443,32.6647806 144.010443,31.9103144 C144.010443,31.1558483 143.908477,30.4856676 143.704541,29.8997524 C143.500605,29.3138372 143.219178,28.8202311 142.860251,28.4189193 C142.501324,28.0176075 142.081222,27.7126152 141.599934,27.503933 C141.118645,27.2952509 140.608813,27.1909114 140.070422,27.1909114 C139.532032,27.1909114 139.0222,27.2952509 138.540911,27.503933 C138.059623,27.7126152 137.639521,28.0176075 137.280594,28.4189193 C136.921667,28.8202311 136.64024,29.3138372 136.436304,29.8997524 C136.232368,30.4856676 136.130401,31.1558483 136.130401,31.9103144 Z M148.586741,25.6739604 L150.544515,25.6739604 L150.544515,28.2985264 L150.593459,28.2985264 C151.09922,27.2872207 151.719176,26.540792 152.453345,26.0592178 C153.187514,25.5776437 154.117447,25.3529125 155.243173,25.3850174 L155.243173,27.5520902 C154.411115,27.5520902 153.701429,27.6644558 153.114094,27.8891904 C152.526759,28.113925 152.053634,28.4429958 151.694707,28.8764125 C151.33578,29.3098292 151.074746,29.8355398 150.911598,30.4535599 C150.748449,31.0715801 150.666876,31.7818913 150.666876,32.5845149 L150.666876,38.1225898 L148.586741,38.1225898 L148.586741,25.6739604 Z M167.161125,34.1737016 C166.883772,35.5702666 166.271973,36.6216877 165.325711,37.3279965 C164.379449,38.0343052 163.188481,38.3874543 161.752773,38.3874543 C160.741251,38.3874543 159.86434,38.226932 159.122014,37.9058825 C158.379687,37.5848331 157.755653,37.1353707 157.249892,36.5574817 C156.744131,35.9795927 156.364816,35.2893468 156.111936,34.4867232 C155.859055,33.6840996 155.716302,32.8092531 155.683673,31.8621573 C155.683673,30.9150614 155.830504,30.048241 156.124172,29.2616699 C156.417839,28.4750988 156.829784,27.792879 157.360017,27.21499 C157.89025,26.637101 158.518363,26.1876386 159.244375,25.8665891 C159.970386,25.5455397 160.765724,25.3850174 161.630412,25.3850174 C162.756138,25.3850174 163.69015,25.6137617 164.432477,26.0712571 C165.174803,26.5287526 165.770287,27.1106459 166.218946,27.8169547 C166.667605,28.5232634 166.977582,29.2937705 167.148888,30.128499 C167.320195,30.9632275 167.389532,31.7578129 167.356902,32.5122791 L157.886169,32.5122791 C157.869854,33.0580631 157.935112,33.5757476 158.081946,34.0653479 C158.22878,34.5549483 158.465342,34.9883586 158.791639,35.3655916 C159.117937,35.7428247 159.53396,36.043804 160.03972,36.2685386 C160.545481,36.4932732 161.140965,36.6056389 161.82619,36.6056389 C162.707192,36.6056389 163.429114,36.404986 163.991977,36.0036742 C164.55484,35.6023624 164.925998,34.9923776 165.105462,34.1737016 L167.161125,34.1737016 Z M165.154406,30.7063851 C165.121776,30.2248109 165.011652,29.7673224 164.824031,29.3339056 C164.63641,28.9004889 164.383534,28.5272745 164.065394,28.2142513 C163.747254,27.9012282 163.372018,27.6524186 162.939674,27.4678152 C162.50733,27.2832117 162.030127,27.1909114 161.508051,27.1909114 C160.969661,27.1909114 160.484301,27.2832117 160.051957,27.4678152 C159.619613,27.6524186 159.248455,27.9052412 158.938472,28.2262906 C158.62849,28.5473401 158.383771,28.9205544 158.204307,29.3459449 C158.024843,29.7713354 157.918798,30.2248109 157.886169,30.7063851 L165.154406,30.7063851 Z" id="Imported-Layers" fill="#000000"></path>
                </g>
            </g>
        </g>
    </g>
</svg>