<?xml version="1.0" encoding="UTF-8"?>
<svg width="49px" height="67px" viewBox="0 0 49 67" version="1.1" xmlns="http://www.w3.org/2000/svg" xmlns:xlink="http://www.w3.org/1999/xlink">
    <!-- Generator: Sketch 59.1 (86144) - https://sketch.com -->
    <title>basic_todo_txt copy</title>
    <desc>Created with Sketch.</desc>
    <g id="Page-1" stroke="none" stroke-width="1" fill="none" fill-rule="evenodd">
        <g id="Landing-2.0---verde-Copy-5" transform="translate(-737.000000, -2561.000000)" stroke="#56CC7E" stroke-width="2.25">
            <g id="basic_todo_txt-copy" transform="translate(739.000000, 2563.000000)">
                <line x1="15.3409091" y1="23.5227273" x2="37.8409091" y2="23.5227273" id="Path"></line>
                <line x1="15.3409091" y1="33.75" x2="37.8409091" y2="33.75" id="Path"></line>
                <line x1="15.3409091" y1="43.9772727" x2="37.8409091" y2="43.9772727" id="Path"></line>
                <line x1="15.3409091" y1="54.2045455" x2="37.8409091" y2="54.2045455" id="Path"></line>
                <line x1="11.25" y1="23.5227273" x2="7.15909091" y2="23.5227273" id="Path"></line>
                <line x1="11.25" y1="33.75" x2="7.15909091" y2="33.75" id="Path"></line>
                <line x1="11.25" y1="43.9772727" x2="7.15909091" y2="43.9772727" id="Path"></line>
                <line x1="11.25" y1="54.2045455" x2="7.15909091" y2="54.2045455" id="Path"></line>
                <polyline id="Path" points="13.2954545 7.15909091 0 7.15909091 0 63.4090909 45 63.4090909 45 7.15909091 31.7045455 7.15909091"></polyline>
                <polygon id="Path" points="26.5909091 4.09090909 26.5909091 0 18.4090909 0 18.4090909 4.09090909 14.3181818 4.09090909 12.2727273 12.2727273 32.7272727 12.2727273 30.6818182 4.09090909"></polygon>
            </g>
        </g>
    </g>
</svg>