<?xml version="1.0" encoding="UTF-8"?>
<svg width="174px" height="140px" viewBox="0 0 174 140" version="1.1" xmlns="http://www.w3.org/2000/svg" xmlns:xlink="http://www.w3.org/1999/xlink">
    <!-- Generator: Sketch 59.1 (86144) - https://sketch.com -->
    <title>Ilustración 2</title>
    <desc>Created with Sketch.</desc>
    <g id="Page-1" stroke="none" stroke-width="1" fill="none" fill-rule="evenodd">
        <g id="Landing-2.0---verde-Copy-5" transform="translate(-966.000000, -1326.000000)">
            <g id="Ilustración-2" transform="translate(966.000000, 1326.000000)">
                <path d="M74.0243588,5.3798514 C66.9514121,2.28664169 59.4772318,-0.297185041 51.8473728,0.0276388906 C40.6288801,0.503801245 29.8597691,7.76250876 24.5859541,18.420794 C20.1113965,27.4512684 19.559299,38.0357301 17.6317725,48.0572866 C15.2596792,60.4024416 10.7080848,72.1385517 5.84834288,83.612588 C3.23871926,89.7768603 0.484651525,96.0740152 0.0561339927,102.830722 C-0.537691801,112.211859 3.63032329,121.559775 10.1672218,127.799716 C16.7041204,134.039658 25.3852115,137.332191 34.0984013,138.050126 C38.7350573,138.432163 43.5803548,138.07781 47.6986169,135.756057 C52.0560143,133.299576 55.2321798,128.860931 59.6072315,126.439516 C63.6612962,124.195278 68.4038779,123.881528 72.9554723,124.173131 C78.8982981,124.553764 84.7648015,125.895791 90.381852,128.159606 C96.7438126,130.728668 102.659601,134.451224 108.999093,137.057198 C115.338585,139.663172 122.438815,141.117497 128.925961,138.943392 C135.024712,136.900323 139.839516,131.939376 144.180864,126.915678 C151.279586,118.716054 157.786078,109.865518 163.635881,100.451756 C167.553526,94.1379907 171.199938,87.4772545 172.931662,80.1188851 C176.244247,66.0499486 171.686233,50.1778701 161.57675,40.5697259 C153.200596,32.6096939 141.959634,29.1547485 130.956203,27.0581577 C120.922152,25.1461259 109.32008,25.0280081 100.083681,20.0449137 C91.2758005,15.2869813 83.2607572,9.42169464 74.0243588,5.3798514 Z" id="Path-Copy-2" fill="#56CC7E" fill-rule="nonzero" opacity="0.1"></path>
                <g transform="translate(14.000000, 0.000000)">
                    <g id="Informe" transform="translate(13.600000, 0.000000)" fill-rule="nonzero">
                        <polygon id="Rectangle" fill="#3F3D56" points="11.2539118 7.88663963 78.2924659 7.88663963 77.9160477 91.4208329 11.2539118 91.4208329"></polygon>
                        <rect id="Rectangle" fill="#F2F2F2" x="15.3445612" y="17.1375001" width="58.7833213" height="68.3742842"></rect>
                        <path d="M5.98524732,86.7463212 C7.77193864,90.0598192 11.5639405,91.4822405 11.5639405,91.4822405 C11.5639405,91.4822405 12.4591487,87.53241 10.6724492,84.218912 C8.88574974,80.905414 5.09375606,79.4829927 5.09375606,79.4829927 C5.09375606,79.4829927 4.19855436,83.4328216 5.98524732,86.7463212 Z" id="Path" fill="#3F3D56"></path>
                        <path d="M7.21330846,85.6562028 C10.4390225,87.5968996 11.6813509,91.4516591 11.6813509,91.4516591 C11.6813509,91.4516591 7.6937581,92.1599265 4.46804403,90.2192296 C1.24232996,88.2785328 -1.42108547e-14,84.4237799 -1.42108547e-14,84.4237799 C-1.42108547e-14,84.4237799 3.98759276,83.7155059 7.21330846,85.6562028 Z" id="Path" fill="#56CC7E"></path>
                        <rect id="Rectangle" fill="#FFFFFF" x="35.2270757" y="23.4995577" width="35.6521331" height="1.43758623"></rect>
                        <rect id="Rectangle" fill="#FFFFFF" x="35.2270757" y="26.6622464" width="35.6521331" height="1.43758623"></rect>
                        <rect id="Rectangle" fill="#FFFFFF" x="35.2270757" y="29.8249368" width="12.0757224" height="1.43758623"></rect>
                        <rect id="Rectangle" fill="#FFFFFF" x="26.8736565" y="41.1345542" width="35.6521331" height="1.43758623"></rect>
                        <rect id="Rectangle" fill="#FFFFFF" x="26.8736565" y="44.2972429" width="35.6521331" height="1.43758623"></rect>
                        <rect id="Rectangle" fill="#FFFFFF" x="26.8736565" y="47.3911031" width="35.6521331" height="1.43758623"></rect>
                        <rect id="Rectangle" fill="#FFFFFF" x="26.8736565" y="50.4849617" width="35.6521331" height="1.43758623"></rect>
                        <rect id="Rectangle" fill="#FFFFFF" x="26.8736565" y="53.5788203" width="35.6521331" height="1.43758623"></rect>
                        <rect id="Rectangle" fill="#FFFFFF" x="26.8736565" y="56.6726789" width="35.6521331" height="1.43758623"></rect>
                        <rect id="Rectangle" fill="#FFFFFF" x="26.8736565" y="59.7665391" width="35.6521331" height="1.43758623"></rect>
                        <rect id="Rectangle" fill="#FFFFFF" x="26.8736565" y="62.8603977" width="35.6521331" height="1.43758623"></rect>
                        <rect id="Rectangle" fill="#FFFFFF" x="26.9346022" y="72.6391046" width="35.6521331" height="1.43758623"></rect>
                        <rect id="Rectangle" fill="#FFFFFF" x="26.9346022" y="75.7329632" width="35.6521331" height="1.43758623"></rect>
                        <rect id="Rectangle" fill="#FFFFFF" x="26.9346022" y="78.8268234" width="35.6521331" height="1.43758623"></rect>
                        <path d="M31.4822943,29.308349 C31.5006375,33.4663497 29.0351959,34.9289459 25.986243,34.9425732 C25.9154208,34.9427936 25.844937,34.9423153 25.7747917,34.9410453 C25.6334726,34.9386239 25.4936113,34.9328065 25.3552077,34.9235933 C22.6025615,34.7409701 20.457658,33.2242892 20.4404469,29.3573586 C20.4227311,25.355564 25.5148874,20.2826732 25.8968038,19.9075575 L25.897478,19.9072147 C25.9119867,19.8929181 25.9194125,19.8857715 25.9194125,19.8857715 C25.9194125,19.8857715 31.4637371,25.1506847 31.4822943,29.308349 Z" id="Path" fill="#56CC7E"></path>
                        <path d="M25.7824819,34.3073475 L27.7891522,31.4771363 L25.7787731,34.6170775 L25.7747917,34.9410387 C25.6334726,34.9386173 25.4936113,34.9328 25.3552077,34.9235868 L25.5542871,30.7629253 L25.5524522,30.7307442 L25.556148,30.7246276 L25.5750757,30.3314721 L23.5317841,27.2017318 L25.5798749,30.0369888 L25.5853288,30.1203228 L25.7357185,26.9767789 L23.9840503,23.7410353 L25.7546152,26.4243616 L25.8968119,19.9075558 L25.8973914,19.8858678 L25.8974861,19.907213 L25.8918266,25.0459727 L27.6119209,23.0011451 L25.8863319,25.4885409 L25.8530799,28.3028754 L27.4563776,25.5950909 L25.8484798,28.7166383 L25.8300125,30.2815501 L28.1574739,26.5119676 L25.8232854,30.8274753 L25.7824819,34.3073475 Z" id="Path" fill="#3F3D56"></path>
                        <path d="M49.4630707,6.64909587 L49.4630707,4.48339062 C49.4615768,2.00684499 47.4535208,-1.42108547e-14 44.9769748,-1.42108547e-14 C42.5004287,-1.42108547e-14 40.4923728,2.00684499 40.4908788,4.48339062 L40.4908788,6.64909587 L31.9827669,6.64909587 L31.9827669,11.4445781 L57.9711826,11.4445781 L57.9711826,6.64909587 L49.4630707,6.64909587 Z M44.9769756,1.23484253 C46.4293631,1.23484253 47.6067559,2.41223527 47.6067559,3.86462282 C47.6067559,5.31701037 46.4293631,6.49440311 44.9769756,6.49440311 C43.524588,6.49440311 42.3471953,5.31701037 42.3471953,3.86462282 C42.3471953,3.16716159 42.6242601,2.49826643 43.1174396,2.00508687 C43.6106192,1.5119073 44.2795144,1.23484253 44.9769756,1.23484253 L44.9769756,1.23484253 Z" id="Shape" fill="#56CC7E"></path>
                    </g>
                    <g id="Mujer" transform="translate(75.200000, 55.200000)" fill-rule="nonzero">
                        <path d="M22.524171,66.6833804 C22.524171,66.6833804 22.8568111,70.0097807 23.4112111,71.1185808 C23.4112111,71.1185808 20.0848108,71.8947409 19.9739308,71.2294608 C19.8630508,70.5641808 20.0848108,68.0139405 20.0848108,68.0139405 L22.524171,66.6833804 Z" id="Path" fill="#A0616A"></path>
                        <path d="M5.8921697,68.3465806 C5.8921697,68.3465806 6.22480973,71.6729808 6.77920977,72.7817809 C6.77920977,72.7817809 3.45280951,73.557941 3.3419295,72.8926609 C3.23104949,72.2273809 3.56368952,68.6792206 3.56368952,68.6792206 L5.8921697,68.3465806 Z" id="Path" fill="#A0616A"></path>
                        <path d="M20.3065708,21.8878569 C20.3065708,21.8878569 22.635051,29.6494575 21.1936109,31.0908976 C19.7521708,32.5323377 16.3148905,37.4110581 16.3148905,37.4110581 L15.2060904,35.526098 C15.2060904,35.526098 19.0868908,30.0929775 18.6433707,28.8732974 C18.1998507,27.6536173 17.0910506,24.3272171 17.0910506,24.3272171 C17.0910506,24.3272171 18.9760107,21.4443368 20.3065708,21.8878569 Z" id="Path" fill="#A0616A"></path>
                        <circle id="Oval" fill="#A0616A" cx="9.44032999" cy="8.02785467" r="4.43520035"></circle>
                        <path d="M13.4320103,8.58225583 C13.4320103,8.58225583 15.2060904,13.3500962 16.2040105,13.7936162 C17.2019306,14.2371363 18.9760107,16.3438564 18.9760107,16.3438564 C18.9760107,16.3438564 19.1977708,21.8878569 17.9780907,21.8878569 C16.7584106,21.8878569 9.99473003,14.0153763 9.99473003,14.0153763 C9.99473003,14.0153763 10.3273701,12.4630561 9.66209,11.5760161 C8.99680995,10.688976 13.4320103,8.58225583 13.4320103,8.58225583 Z" id="Path" fill="#A0616A"></path>
                        <path d="M15.0952104,30.4256176 L15.0952104,31.7561777 C15.0952104,31.7561777 17.0910506,35.1934579 17.2019306,41.4027384 L18.1998507,52.4907393 C18.1998507,52.4907393 23.4112111,60.91762 22.635051,65.7963404 L22.745931,67.6813005 L20.0848108,68.5683406 L19.1977708,67.0160205 C19.1977708,67.0160205 18.3107307,66.9051405 17.5345706,64.4657803 L12.7667303,53.7104194 L9.88385002,44.9508987 L8.10976988,56.3715396 C8.10976988,56.3715396 8.88592994,66.9051405 6.89008978,67.2377805 L6.89008978,68.9009806 L3.23104949,69.0118606 L3.23104949,67.4595405 C3.23104949,67.4595405 2.0113694,67.9030605 2.1222494,66.0181004 C2.23312941,64.1331402 2.1222494,55.9280196 2.1222494,55.9280196 L1.45696935,41.8462585 C1.45696935,41.8462585 -0.0164141849,35.2497085 0.775722577,33.9464626 L5.11600964,26.6556973 L15.0952104,30.4256176 Z" id="Path" fill="#2F2E41"></path>
                        <path d="M22.745931,70.8968208 C22.745931,70.8968208 23.8547311,70.4533007 24.0764911,71.0077008 C24.2982512,71.5621008 25.8505713,74.5558611 24.0764911,74.7776211 C22.302411,74.9993811 21.1936109,74.7776211 21.1936109,74.7776211 C21.1936109,74.7776211 19.7521708,74.5558611 19.1977708,74.6667411 C18.6433707,74.7776211 16.4257705,74.4449811 16.6475306,72.7817809 C16.8692906,71.1185808 18.3107307,71.3403408 18.3107307,71.3403408 C18.3107307,71.3403408 19.7521708,70.4533007 19.7521708,70.1206607 C19.7521708,69.7880207 20.3065708,70.6750608 20.3065708,70.6750608 C20.3065708,70.6750608 20.7500909,71.4512208 22.745931,70.8968208 Z" id="Path" fill="#2F2E41"></path>
                        <path d="M6.11392972,72.5600209 C6.11392972,72.5600209 7.22272981,72.1165009 7.44448983,72.6709009 C7.66624984,73.225301 9.21856997,76.2190612 7.44448983,76.4408212 C5.67040969,76.6625812 4.5616096,76.4408212 4.5616096,76.4408212 C4.5616096,76.4408212 3.12016948,76.2190612 2.56576944,76.3299412 C2.0113694,76.4408212 -0.206230781,76.1081812 0.0155292368,74.4449811 C0.237289254,72.7817809 1.67872937,73.0035409 1.67872937,73.0035409 C1.67872937,73.0035409 3.12016948,72.1165009 3.12016948,71.7838608 C3.12016948,71.4512208 3.67456953,72.3382609 3.67456953,72.3382609 C3.67456953,72.3382609 4.11808956,73.114421 6.11392972,72.5600209 Z" id="Path" fill="#2F2E41"></path>
                        <path d="M16.7584106,19.7811367 C16.7584106,19.7811367 20.5283309,18.9195214 16.7584106,14.1389687 C16.7584106,14.1389687 19.7521708,15.0132963 20.0848108,17.3417765 C20.4174509,19.6702567 20.5283309,22.5531369 20.5283309,22.5531369 C20.5283309,22.5531369 18.6433707,21.9987369 17.6454506,24.5489771 C16.6475306,27.0992173 15.2060904,28.4297774 15.6496105,31.0908976 L4.5616096,26.9883373 C4.5616096,26.9883373 6.11392972,23.772817 5.33776966,22.3313769 C4.5616096,20.8899368 5.55952968,18.2288166 5.55952968,18.2288166 C5.55952968,18.2288166 8.55328992,11.021616 11.3252901,13.9044962 C14.0972904,16.7873765 13.8755303,19.1158567 16.7584106,19.7811367 Z" id="Path" fill="#D0CDE1"></path>
                        <path d="M10.21649,19.3376167 C10.21649,19.3376167 9.77297001,26.6556973 8.55328992,27.9862574 C7.33360982,29.3168175 2.45488943,34.8608179 2.45488943,34.8608179 L2.23312941,36.191378 L1.12432932,36.9675381 C1.12432932,36.9675381 0.0155292368,34.3064179 1.23520933,33.1976178 L5.44864967,25.6577772 L6.44656975,18.5614566 L10.21649,19.3376167 Z" id="Path" fill="#A0616A"></path>
                        <path d="M6.77920977,13.5718562 C6.77920977,13.5718562 9.36445369,12.077798 10.0676713,13.4346666 C10.770889,14.7915352 10.4382501,20.2246568 10.4382501,20.2246568 L5.7812897,19.6702567 C5.7812897,19.6702567 6.11392972,13.6827362 6.77920977,13.5718562 Z" id="Path" fill="#D0CDE1"></path>
                        <path d="M4.35537389,7.75952062 C3.53597063,6.77712374 4.21788268,6.77601494 4.21788268,6.77601494 C4.27441929,7.12861891 4.63810904,7.5665894 5.00623954,7.93138463 C5.26755024,8.18767971 5.54375155,8.42833769 5.83340441,8.65210469 L5.7557884,8.38266627 L6.47761726,8.8572327 C6.71599819,11.0338073 7.94566858,10.7277785 7.94566858,10.7277785 C6.9322253,10.092436 7.21273952,9.03574952 7.35355935,8.50685188 C7.49326816,7.97795423 8.4424088,8.08994304 8.4978488,9.63561037 C8.55328881,11.1812777 9.60221369,11.5671401 9.60221369,11.5671401 L9.80402307,12.4475274 L9.98032228,13.2148171 L10.4604327,12.3455178 L10.6855191,11.9374793 C12.1934983,12.0882762 12.3697798,10.6712296 12.3697798,10.6712296 C12.710233,10.5108656 13.0385692,10.3259472 13.3521889,10.1179384 C15.7083891,8.53678948 14.9167058,6.72057493 14.3490002,5.88675727 C14.2390409,5.72225236 14.1155317,5.56722049 13.9797609,5.42327883 C14.0130249,5.42993163 14.0463,5.43658443 14.0784596,5.44212843 C18.5990254,6.2881429 16.3071311,3.67802749 16.3071311,3.67802749 L17.4414336,4.22910114 L19.5681322,4.49410436 L17.8505875,2.94067543 C19.0813556,2.87414743 20.3154623,4.79348038 20.3531493,4.85224679 C19.5891983,2.5359634 18.094538,2.77213782 18.094538,2.77213782 L18.5458129,2.64240821 L17.7585649,2.28315698 L18.673325,2.40955465 C18.673325,2.40955465 18.4149657,2.19112103 18.0147044,1.8185642 C17.6144153,1.44600737 15.7205892,1.30962496 15.7205892,1.30962496 C17.6510102,0.5578585 19.5492659,2.06028262 19.5492659,2.06028262 C18.505895,-0.304787968 15.9412393,0.534573699 14.6705455,1.13665215 L14.0496341,1.20872415 C14.0629253,1.16326335 14.0795717,0.976984934 14.0695848,0.321684082 C14.0540616,-0.720588001 12.8210759,1.09562654 12.7600852,1.18543935 C12.7600852,1.17213375 12.6957748,1.10117054 11.8553143,0.766312917 C10.8751251,0.374906486 11.2931449,2.52486986 11.3053495,2.58252746 L11.3053495,2.58363072 C11.3053495,2.58363072 11.3153109,2.59804512 11.2332608,2.58695712 C11.0791498,2.56699872 10.6012503,2.45611871 9.13320012,1.99042267 C7.86473948,1.58792824 7.07859356,2.00372827 6.63285038,2.44392191 C6.04801078,3.0372918 5.35264833,3.51040947 4.58600542,3.83657482 C4.338743,3.93858443 4.11698298,4.02285323 3.97283897,4.06498764 C3.43286774,4.22021965 3.15011817,4.59499408 2.62454804,5.82021817 C2.10783389,7.02882579 4.29439876,7.74067323 4.35537389,7.75952062 Z" id="Path" fill="#2F2E41"></path>
                        <path d="M11.2332597,2.58697375 C11.753287,3.32765221 13.2568199,5.37560597 14.348988,5.88676281 C14.2390308,5.72225874 14.1155246,5.56722694 13.9797575,5.42328438 C14.0130215,5.42993718 14.0462856,5.43658998 14.0784408,5.44213398 L11.3053317,2.58475615 L11.3053317,2.58253855 L11.2332597,2.58697375 Z" id="Path" fill="#D0CDE1"></path>
                    </g>
                    <line x1="0.505074731" y1="130.17" x2="112.743881" y2="130.17" id="Path" stroke="#3F3D56" stroke-width="0.5"></line>
                    <g id="Hombre" transform="translate(25.600000, 93.600000) scale(-1, 1) translate(-25.600000, -93.600000) translate(9.600000, 53.600000)" fill-rule="nonzero">
                        <polygon id="Path" fill="#FFB9B9" points="25.0068896 69.4877517 26.0987962 72.9622931 22.7236011 73.260074 23.0213821 69.4877517"></polygon>
                        <polygon id="Path" fill="#FFB9B9" points="8.62687199 72.1680384 8.62687199 76.9331791 4.75533233 76.9331791 5.84723889 72.1680384"></polygon>
                        <path d="M22.4257634,37.5220136 L24.0141217,52.6114101 C24.0141217,52.6114101 25.9995685,65.9139027 25.6024787,67.9986223 C25.2053888,70.083342 25.7017514,70.3811591 25.7017514,70.3811591 L22.7235805,70.3811591 C22.7235805,70.3811591 22.8228533,69.0906179 22.2272191,68.4949837 C21.6315849,67.8993495 21.929402,66.1124483 21.929402,66.1124483 L14.3847044,43.0812656 L10.1159936,55.9866696 C10.1159936,55.9866696 9.42108532,70.1826161 9.3218151,70.3811591 C9.22254489,70.5797021 8.92472521,73.260056 8.92472521,73.260056 L5.25164986,73.260056 C5.25164986,73.260056 5.74801125,71.671699 5.05310427,71.1753376 C4.35819728,70.6789762 3.76256438,71.0760648 4.35819599,70.1826135 C4.9538276,69.2891622 5.15237448,68.1971666 4.95383018,67.7008052 C4.75528588,67.2044439 4.75528459,65.218997 4.75528459,65.218997 C4.75528459,65.218997 5.05310169,38.4154649 6.74073146,37.5220123 C8.42836124,36.6285598 22.4257634,37.5220136 22.4257634,37.5220136 Z" id="Path" fill="#2F2E41"></path>
                        <path d="M7.57779789,74.4076558 C7.57779789,74.4076558 9.27526812,74.153035 9.27526812,74.2379091 C9.27526812,74.3227831 11.3122332,79.8395613 9.27526812,79.7546886 C7.23830308,79.6698158 -0.485186952,78.5664586 0.0240533406,76.5294936 C0.533293633,74.4925286 3.07950026,75.0866493 3.07950026,75.0866493 L5.37108609,73.8135454 L7.57779789,74.4076558 Z" id="Path" fill="#2F2E41"></path>
                        <path d="M24.2904425,72.6498462 C24.2904425,72.6498462 22.592971,72.3952255 22.592971,72.4800995 C22.592971,72.5649735 20.5560073,78.081753 22.592971,77.996879 C24.6299348,77.912005 32.3534261,76.8086491 31.8441871,74.7716853 C31.3349481,72.7347216 28.7887402,73.328841 28.7887402,73.328841 L26.4971505,72.0557281 L24.2904425,72.6498462 Z" id="Path" fill="#2F2E41"></path>
                        <circle id="Oval" fill="#FFB9B9" cx="14.2585436" cy="5.2565141" r="3.90668375"></circle>
                        <path d="M17.3628741,4.76214222 C17.3628741,4.76214222 18.0577824,11.7112056 18.9512324,12.2075696 C19.8446823,12.7039336 12.1014405,13.2002937 12.1014405,13.2002937 C12.1014405,13.2002937 13.9876145,6.84686317 13.3919816,6.25122898 C12.7963487,5.65559479 17.3628741,4.76214222 17.3628741,4.76214222 Z" id="Path" fill="#FFB9B9"></path>
                        <path d="M9.02399801,12.0090227 C9.02399801,12.0090227 11.8036234,9.32867014 14.9803386,9.82503154 C18.1570539,10.3213929 20.4403178,10.9170271 20.4403178,10.9170271 C20.4403178,10.9170271 25.3046616,13.4981082 25.4039344,15.5828214 C25.5032071,17.6675346 23.6170318,25.5100557 23.6170318,25.5100557 C23.6170318,25.5100557 22.7235805,38.3161857 22.624309,38.3161857 C22.5250375,38.3161857 5.84728276,38.1176401 5.84728276,38.1176401 L8.92472521,21.4398879 L9.02399801,12.0090227 Z" id="Path" fill="#3F3D56"></path>
                        <path d="M9.67324309,35.8969269 C10.3165261,36.0706527 11.4253899,35.83041 12.5829218,35.4511947 C14.6477671,34.7731624 16.8665127,33.6503927 16.8665127,33.6503927 C16.8665127,33.6503927 24.0141217,30.7714945 26.09884,29.2824103 C28.1835584,27.7933262 26.7937483,21.836983 26.7937483,21.836983 L23.6170331,22.829707 L23.8155787,26.5027837 L15.9730627,31.565673 C14.7407388,31.6812321 13.5239429,31.9257874 12.3426637,32.2953215 C11.0223367,32.7291412 9.73974579,33.4051853 9.27615062,34.4435764 C9.20385099,34.6020357 9.15245949,34.7692222 9.12326822,34.9409326 C9.0289679,35.4889128 9.25133597,35.7817664 9.67324309,35.8969269 Z" id="Path" fill="#FFB9B9"></path>
                        <path d="M9.2761532,34.4435777 C9.41413107,34.9578072 9.5481596,35.4472196 9.67324309,35.8969269 C10.3165261,36.0706527 11.4253899,35.83041 12.5829218,35.4511947 L12.3426663,32.2953228 C11.0223457,32.7291425 9.73974579,33.4051866 9.2761532,34.4435777 Z" id="Path" fill="#000000" opacity="0.15"></path>
                        <path d="M10.7116278,19.9508102 L11.307262,25.2122438 L12.2950226,38.1943174 C12.2950226,38.1943174 17.7599627,44.7689018 14.6825215,44.9674397 C11.6050804,45.1659775 9.91744929,38.5147377 9.91744929,38.5147377 C9.91744929,38.5147377 6.84000684,27.9918692 6.93927963,25.807878 C7.03855243,23.6238868 6.93927963,19.9508102 6.93927963,19.9508102 L10.7116278,19.9508102 Z" id="Path" fill="#FFB9B9"></path>
                        <path d="M9.84669018,4.82048432 C9.74452658,4.77960856 9.64965702,4.72245721 9.56576584,4.65124977 C9.35249377,4.44427264 9.38845069,4.09353621 9.48106341,3.81113844 C9.57367613,3.52874067 9.70899745,3.23677727 9.64268184,2.94707431 C9.61177996,2.81207813 9.53821078,2.6886074 9.51719451,2.55172234 C9.46722072,2.2262289 9.72690173,1.92956655 10.0143262,1.76884869 C10.3017506,1.60813083 10.6323507,1.52895825 10.9039868,1.34279354 C11.3205679,1.05729281 11.5505857,0.553772026 11.9735133,0.277759517 C12.387105,0.007836809 12.9126201,-0.000528926708 13.4064991,-9.9475983e-14 L14.8809239,0.00166443398 C15.651458,0.00252242507 16.4981829,0.0310890127 17.0716526,0.545731424 C17.2460789,0.702265125 17.384231,0.896104021 17.5608726,1.05013213 C17.9166331,1.36034945 18.3967895,1.48417112 18.7918641,1.7424703 C19.3911388,2.14326325 19.7476566,2.81943628 19.7398062,3.54034097 C19.7258564,4.19458691 19.4069663,4.83014027 19.4898224,5.47927181 C19.5454034,5.91471842 19.780462,6.33312262 19.718706,6.76774091 C19.6454749,7.28317293 19.1726702,7.65240198 18.687802,7.84197156 C18.2029338,8.03154115 17.6743326,8.09961403 17.2025717,8.319781 C16.8174924,8.49949465 16.4152068,8.78595272 16.0092893,8.66019961 C15.6658916,8.55381516 15.4774638,8.19114555 15.3544305,7.85335381 C15.210566,7.45827138 15.1048731,7.05031784 15.0387994,6.63508129 C14.9893959,6.32447174 14.9566348,5.99527411 14.7742246,5.7390612 C14.5564338,5.45556954 14.2074044,5.30503159 13.8517462,5.34119202 C13.0556027,5.41116926 12.6074346,6.76708935 11.8752934,6.44643163 C11.5122535,6.28742975 11.2333135,5.81154661 10.942528,5.5520643 C10.6135507,5.25778015 10.2446208,5.01148302 9.84669018,4.82048432 Z" id="Path" fill="#2F2E41"></path>
                        <path d="M24.212666,14.6893766 C24.212666,14.6893766 26.1981128,15.3842848 26.9922913,18.1639076 C27.7864698,20.9435304 27.4886527,22.8297083 27.4886527,22.8297083 L23.3192147,23.5246166 L24.212666,14.6893766 Z" id="Path" fill="#3F3D56"></path>
                        <path d="M11.0094436,11.8104784 C11.0094436,11.8104784 7.43563974,11.0162999 6.93927834,14.3915595 C6.62872305,16.6619857 6.46293395,18.9498704 6.44291566,21.2413501 C6.44291566,21.2413501 9.81817521,19.6529931 11.3072607,21.2413501 L11.0094436,11.8104784 Z" id="Path" fill="#3F3D56"></path>
                    </g>
                </g>
            </g>
        </g>
    </g>
</svg>