<?xml version="1.0" encoding="UTF-8"?>
<svg width="210px" height="145px" viewBox="0 0 210 145" version="1.1" xmlns="http://www.w3.org/2000/svg" xmlns:xlink="http://www.w3.org/1999/xlink">
    <!-- Generator: Sketch 59.1 (86144) - https://sketch.com -->
    <title>Ilustración 3</title>
    <desc>Created with Sketch.</desc>
    <g id="Page-1" stroke="none" stroke-width="1" fill="none" fill-rule="evenodd">
        <g id="Landing-2.0---verde-Copy-5" transform="translate(-283.000000, -1737.000000)">
            <g id="Ilustración-3" transform="translate(283.000000, 1737.000000)">
                <path d="M6.84053433,19.1133352 C1.44250136,25.4253416 0.0769035954,33.4268443 0.00248957901,41.0988852 C-0.0498013514,46.5088894 0.690316434,52.3769259 5.21147073,56.3666283 C11.1625809,61.6159194 22.5881492,62.6505099 25.5365532,69.3582723 C28.1510997,75.3187188 22.067251,81.3153258 16.222734,85.5219908 C10.3782169,89.7286558 3.66687709,94.8795101 4.75895306,101.143303 C5.45080229,105.14305 9.24591713,108.282981 13.030976,110.918676 C20.2270125,115.94096 28.3160172,120.334454 37.434751,122.471938 C53.9787969,126.345123 71.8482168,122.335332 87.3504665,116.264395 C96.8935613,112.527816 107.973205,107.941466 117.449931,111.784518 C119.95185,112.799019 122.075667,114.33182 124.382501,115.601453 C131.089819,119.271739 139.281394,120.623737 147.25375,121.770827 C158.938762,123.458314 171.219085,124.866563 182.477725,121.823059 C193.736365,118.779555 203.4665,109.878059 201.74291,100.383933 C200.117869,91.4402501 189.77231,85.610383 181.528443,79.5012768 C178.620263,77.3457126 175.659792,74.4890375 176.38382,71.3531234 C176.959021,68.8660884 179.666082,67.134405 182.079509,65.5272741 C194.782183,57.0215341 204.118125,45.2794343 208.410004,32.4043073 C210.437283,26.3293527 211.169356,19.3302979 206.646191,14.2075683 C202.997893,10.0752331 196.745104,8.09042652 190.798016,6.45717979 C179.762619,3.42572923 168.451688,0.864364442 156.845113,0.173298178 C145.238538,-0.517768087 133.247825,0.800079208 122.944501,5.17348403 C118.003008,7.2727987 113.524088,10.0370638 108.534327,12.0580308 C94.3675072,17.7954879 77.6746332,17.0240651 61.8747274,16.1180451 C56.2293181,15.79461 50.3284878,15.2200607 45.4272186,12.7571327 C41.2037204,10.6317022 38.7902928,9.10894569 33.5611998,8.87189389 C23.3121774,8.40783486 12.7091857,12.238833 6.84053433,19.1133352 Z" id="Path" fill="#56CC7E" fill-rule="nonzero" opacity="0.1"></path>
                <g transform="translate(64.000000, 8.000000)">
                    <g id="Group-4">
                        <rect id="Rectangle" stroke="#3F3D56" stroke-width="0.5" fill-opacity="0.54" fill="#D8D8D8" x="7.81200031" y="0" width="76.356003" height="99.0360039" rx="9.61171634"></rect>
                        <rect id="Rectangle" stroke="#3F3D56" stroke-width="0.5" fill-opacity="0.78" fill="#FFFFFF" x="11.3400005" y="10.3320004" width="68.0400027" height="78.6240031"></rect>
                        <circle id="Oval" stroke="#3F3D56" stroke-width="0.5" cx="46.1160018" cy="5.54400022" r="1.76400007"></circle>
                        <circle id="Oval" stroke="#3F3D56" stroke-width="0.5" cx="45.9900018" cy="94.1220037" r="3.65400015"></circle>
                        <path d="M4.15656074,15.8760006 C2.6816575,15.9586204 1.38052013,16.8608325 0.795941864,18.2062625 C-0.0443850439,20.2207118 1.03759841,22.5869833 2.6618459,24.0559383 C4.2860934,25.5248933 6.37254869,26.3645396 8.2682641,27.4681948 C10.8145233,28.9505869 13.1025485,31.0083927 14.3765849,33.6499013 C15.6506212,36.2914099 15.7861304,39.5634754 14.2885554,42.0870123 C12.898551,44.4292864 10.3710645,45.831128 7.96049766,47.1240019" id="Path" stroke="#3F3D56" stroke-width="0.5"></path>
                        <ellipse id="Oval" fill="#56CC7E" fill-rule="nonzero" cx="6.04800024" cy="16.3800007" rx="3.02400012" ry="1.51200006"></ellipse>
                        <ellipse id="Oval" fill="#56CC7E" fill-rule="nonzero" cx="8.56800034" cy="25.452001" rx="3.02400012" ry="1.51200006"></ellipse>
                        <ellipse id="Oval" fill="#56CC7E" fill-rule="nonzero" cx="3.02400012" cy="27.2160011" rx="3.02400012" ry="1.51200006"></ellipse>
                        <ellipse id="Oval" fill="#56CC7E" fill-rule="nonzero" cx="11.5920005" cy="35.2800014" rx="3.02400012" ry="1.51200006"></ellipse>
                        <ellipse id="Oval" fill="#56CC7E" fill-rule="nonzero" cx="17.3880007" cy="35.2800014" rx="3.02400012" ry="1.51200006"></ellipse>
                    </g>
                    <path d="M28,63.2 C33.19786,57.5582207 31.7535389,56.2471467 39.2882398,60.0535962 C39.6567272,60.239752 39.3979612,61.038017 39.1694669,61.413567 C38.1648221,63.0647868 38.5662095,55.0105805 40.3339228,53.212092 C41.1317308,52.4003945 42.3296178,52.199242 43.3995474,52.0902519 C46.1618417,51.8088663 49.1568848,53.2476069 51.72007,52.0522234 C53.1717961,51.3751872 53.922371,49.0215635 53.7592721,47.2588244 C53.3215281,42.527777 44.3768833,49.8308296 56.0849738,47.3348813 C57.2016072,47.0968357 58.1604112,46.1171753 58.868914,45.1147426 C60.3070801,43.0799382 61.2229713,40.6382475 62.4,38.4" id="Path-4" stroke="#000000" stroke-width="0.84"></path>
                    <line x1="0.505074731" y1="126.97" x2="112.743881" y2="126.97" id="Path" stroke="#3F3D56" stroke-width="0.5"></line>
                    <g id="Hombres" transform="translate(56.800000, 48.800000)" fill-rule="nonzero">
                        <path d="M30.4004059,32.7205804 C30.4004059,32.7205804 30.0340819,35.1592516 31.1330539,35.1906508 C32.2320259,35.22205 32.9661691,33.3096892 32.9661691,33.3096892 L32.5176091,31.7800996 L30.4004059,32.7205804 Z" id="Path" fill="#585B8A"></path>
                        <path d="M30.4004059,32.7205804 C30.4004059,32.7205804 30.0340819,35.1592516 31.1330539,35.1906508 C32.2320259,35.22205 32.9661691,33.3096892 32.9661691,33.3096892 L32.5176091,31.7800996 L30.4004059,32.7205804 Z" id="Path" fill="#000000" opacity="0.2"></path>
                        <path d="M5.78492871,85.5071204 C3.82920714,85.5923468 1.27839598,83.3824412 1.27839598,83.3824412 L1.15130398,81.0873092 C1.15130398,81.0873092 0.982346384,81.1725356 0.64144079,80.6626725 C0.412675193,80.3202717 0.741619188,78.9013269 0.982346384,78.0086925 C1.09897198,77.5720941 1.19466478,77.2610925 1.19466478,77.2610925 L5.48588871,78.4094061 L5.69073111,78.9521637 L7.35638388,83.380946 C7.35638388,83.380946 7.73915508,85.421894 5.78492871,85.5071204 Z" id="Path" fill="#636992"></path>
                        <path d="M25.5021308,79.0059909 C25.5021308,79.0059909 20.5305909,80.9183517 18.9232509,79.4306277 C17.3159109,77.9429037 16.1182557,78.3675405 16.1182557,78.3675405 C16.1182557,78.3675405 13.3132606,78.4109013 12.7600366,78.1970877 C12.434083,78.0729861 12.6105166,77.0098989 12.8138638,76.1636157 C12.9514222,75.5789925 13.1009422,75.0960429 13.1009422,75.0960429 C13.1009422,75.0960429 17.9872557,73.4378662 18.7527981,74.4575926 C18.9827398,74.7572019 19.2576133,75.0194665 19.5676821,75.2350965 C20.4528405,75.8750421 21.8359004,76.4551797 24.023378,77.3478141 C27.0317204,78.5798589 25.5021308,79.0059909 25.5021308,79.0059909 Z" id="Path" fill="#636992"></path>
                        <path d="M21.0404541,40.1621907 L22.3995908,42.8819595 C22.3995908,42.8819595 24.3553124,45.645089 22.0601804,46.706681 C19.7650485,47.768273 19.8084093,40.5883227 19.8084093,40.5883227 L21.0404541,40.1621907 Z" id="Path" fill="#FFD6D6"></path>
                        <path d="M15.3452374,16.5769063 C15.3452374,16.5769063 16.8329613,17.2572223 17.7255957,20.104083 C18.6182301,22.9509438 19.8084093,27.7968869 19.8084093,27.7968869 C19.8084093,27.7968869 20.6158173,33.27829 20.4872301,34.638922 C20.4054173,35.3882821 20.4199897,36.1450382 20.5305909,36.8906932 L21.6774093,40.7154147 L19.3822773,41.5228227 L15.8551005,28.0092053 L15.3452374,16.5769063 Z" id="Path" fill="#DCE6F2"></path>
                        <path d="M15.3452374,16.5769063 C15.3452374,16.5769063 16.8329613,17.2572223 17.7255957,20.104083 C18.6182301,22.9509438 19.8084093,27.7968869 19.8084093,27.7968869 C19.8084093,27.7968869 20.6158173,33.27829 20.4872301,34.638922 C20.4054173,35.3882821 20.4199897,36.1450382 20.5305909,36.8906932 L21.6774093,40.7154147 L19.3822773,41.5228227 L15.8551005,28.0092053 L15.3452374,16.5769063 Z" id="Path" fill="#000000" opacity="0.05"></path>
                        <path d="M5.48588871,78.4109013 L5.69073111,78.9536589 L5.43953751,79.4336181 C4.46167673,79.8582549 2.03945277,79.5188445 2.03945277,79.5188445 C2.03945277,79.5188445 1.59089277,78.9491733 0.977860784,78.0116829 C1.09448638,77.5750845 1.19017918,77.2640829 1.19017918,77.2640829 L5.48588871,78.4109013 Z" id="Path" fill="#000000" opacity="0.1"></path>
                        <path d="M19.7231829,75.4354533 C18.4836621,78.2434389 14.2701886,77.2012845 13.099447,76.8499125 C12.9065662,76.7915997 12.800407,76.7527245 12.800407,76.7527245 C12.800407,76.7527245 12.807883,76.5239589 12.8108734,76.1636157 C12.9484318,75.5789925 13.0979518,75.0960429 13.0979518,75.0960429 C13.0979518,75.0960429 17.9842653,73.4378662 18.7498077,74.4575926 C18.9797494,74.7572019 19.2546229,75.0194665 19.5646917,75.2350965 C19.6114878,75.3064415 19.6645265,75.3734904 19.7231829,75.4354533 Z" id="Path" fill="#000000" opacity="0.1"></path>
                        <path d="M19.5093693,71.866411 C18.4896429,73.989595 19.7231829,75.1812693 19.7231829,75.1812693 C18.4836621,77.9877597 14.2701886,76.9471005 13.099447,76.5942333 C12.9065662,76.5374157 12.800407,76.4985405 12.800407,76.4985405 C12.800407,76.4985405 12.8856334,73.5649582 12.5880886,72.1624606 C12.2905438,70.759963 12.3324094,64.8539231 12.5028622,64.1317415 C12.673315,63.4095599 12.7570462,62.0055672 12.7570462,62.0055672 C12.7570462,62.0055672 12.6299542,60.3488856 12.8422726,59.5414776 C12.9723858,59.0972527 12.8509938,58.6174109 12.5252902,58.2885 L12.5028622,58.266072 C12.5028622,58.266072 11.5683622,61.4538384 11.2274566,62.004072 C10.886551,62.5543055 10.7609542,65.3189303 10.7175934,65.8287935 C10.6742326,66.3386567 8.93232466,70.5895102 8.93232466,70.5895102 C8.93232466,70.5895102 8.25350387,72.5437366 8.12641187,73.0954654 C7.99931987,73.6471942 7.48796148,75.2216397 7.48796148,75.2216397 L5.43953751,79.1749485 C4.46167673,79.5995853 2.03945277,79.2601749 2.03945277,79.2601749 C2.03945277,79.2601749 1.57295037,78.6620949 0.934499985,77.6872245 C0.296049595,76.7123541 0,73.2689086 0,73.2689086 C0,73.2689086 2.33699756,73.2255478 1.74190797,70.9737766 C1.14681838,68.7220054 2.25177116,66.9786023 2.20990556,66.2130599 C2.16803997,65.4475175 2.71976876,62.9415623 3.01731355,62.5587911 C3.31485835,62.17602 3.27149755,60.561204 3.18627115,59.6685696 C3.10104475,58.7759352 3.14440555,55.6315297 3.14440555,55.6315297 C3.14440555,55.6315297 3.22963195,54.2290321 3.65426874,53.5920769 C4.07890553,52.9551217 3.90994794,51.1264921 3.90994794,51.1264921 C3.90994794,51.1264921 4.71586072,50.7018553 4.16413193,46.579589 C3.61240314,42.4573227 5.06125192,37.1030116 5.06125192,37.1030116 L5.11059352,36.3554116 L5.18834392,35.1442996 C5.18834392,35.1442996 17.3428245,34.3787572 18.3206853,35.3132572 C18.5762846,35.5726297 18.7860899,35.8734348 18.9411933,36.2029012 C19.2757429,36.9220878 19.5121071,37.6829791 19.6439373,38.4651387 L20.1538005,51.3418009 L20.6636637,60.8183784 L20.4932109,67.9579583 C20.4932109,67.9579583 20.5305909,69.7402366 19.5093693,71.866411 Z" id="Path" fill="#565988"></path>
                        <path d="M15.9059373,46.452497 L14.6305318,74.0748214 L13.099447,76.5927381 C12.9065662,76.5359205 12.800407,76.4970453 12.800407,76.4970453 C12.800407,76.4970453 12.8856334,73.563463 12.5880886,72.1609654 C12.2905438,70.7584678 12.3324094,64.8524279 12.5028622,64.1302463 C12.673315,63.4080647 12.7570462,62.004072 12.7570462,62.004072 C12.7570462,62.004072 12.6299542,60.3473904 12.8422726,59.5399824 C12.9723858,59.0957575 12.8509938,58.6159157 12.5252902,58.2870048 L12.546223,58.1374848 L15.9059373,46.452497 Z" id="Path" fill="#000000" opacity="0.1"></path>
                        <path d="M2.17103037,76.1157693 C2.17103037,76.1157693 5.48588871,74.7984981 5.9957519,75.2186493 C6.5056151,75.6388005 2.08729917,76.2802413 2.08729917,76.2802413 L2.17103037,76.1157693 Z" id="Path" fill="#000000" opacity="0.1"></path>
                        <path d="M18.5330037,72.6304582 C18.4059117,72.673819 15.1762798,73.8266182 15.4738246,75.0526821 C15.7713693,76.2787461 18.5330037,72.6304582 18.5330037,72.6304582 Z" id="Path" fill="#000000" opacity="0.1"></path>
                        <path d="M8.44040386,9.75729919 C8.44040386,9.75729919 9.52292865,12.3709088 8.95026706,13.7106079 C8.37760547,15.0503071 15.132919,17.3439439 15.132919,17.3439439 C15.132919,17.3439439 13.1577598,12.2438168 15.0701206,9.374528 C16.9824813,6.50523925 8.44040386,9.75729919 8.44040386,9.75729919 Z" id="Path" fill="#FFD6D6"></path>
                        <path d="M47.994424,85.421894 C46.6876192,85.7089724 44.9666441,87.0157772 44.9666441,87.0157772 C44.9666441,87.0157772 41.6517857,87.7170259 39.388053,87.3985483 C37.1243202,87.0800708 37.5085866,84.6249524 39.260961,84.0193964 C40.4765585,83.6007404 41.7220601,82.5675572 42.3724721,81.975458 C42.6595505,81.7108076 42.8300033,81.526898 42.8300033,81.526898 L49.1741368,80.2514925 C49.1741368,80.2514925 49.2773056,80.6058549 49.4208448,81.0947852 C49.6750288,81.9575156 50.050324,83.2374068 50.1938632,83.724842 C50.416648,84.4978604 49.3012288,85.1348156 47.994424,85.421894 Z" id="Path" fill="#505484"></path>
                        <path d="M46.3691417,80.5131525 C46.3691417,80.5131525 43.6912385,80.8002309 42.5758193,80.1632757 C41.4604001,79.5263205 39.866517,80.5460469 39.866517,80.5460469 C39.866517,80.5460469 35.276253,80.4503541 33.7466635,79.9718901 C32.2170739,79.4934261 33.9694483,77.1310101 36.4559658,77.3582805 C37.362057,77.4405165 37.975089,77.2416549 38.3892594,76.9575669 C38.8219039,76.6610224 39.1234446,76.2089791 39.231057,75.6956181 L44.6137769,76.0140957 L45.3613769,77.9219709 L46.3691417,80.5131525 Z" id="Path" fill="#505484"></path>
                        <path d="M45.4436129,78.7921773 C45.4436129,78.7921773 39.1876962,77.7694605 38.3892594,76.9575669 C38.8219039,76.6610224 39.1234446,76.2089791 39.231057,75.6956181 L44.6137769,76.0140957 L45.3613769,77.9219709 L45.4436129,78.7921773 Z" id="Path" fill="#000000" opacity="0.1"></path>
                        <path d="M36.1688874,43.0000803 L36.233181,52.3376041 C36.233181,52.3376041 36.4559658,59.350092 36.4559658,60.30702 C36.4559658,61.263948 36.487365,63.3975983 36.487365,63.3975983 C36.487365,63.3975983 36.965829,66.0112079 37.2529074,66.8724431 C37.5399858,67.7336783 37.7627706,71.657083 37.7627706,71.657083 C37.7627706,71.657083 38.4326202,72.741103 38.1455418,73.152283 C37.8584634,73.563463 39.260961,74.4590878 39.260961,74.4590878 C39.260961,74.4590878 38.363841,75.7030941 38.3055282,76.5314349 C38.2472154,77.3597757 45.4436129,78.5364981 45.4436129,78.5364981 L42.6401129,49.7882882 L40.4077794,42.5859099 L36.1688874,43.0000803 Z" id="Path" fill="#575988"></path>
                        <path d="M36.1688874,43.0000803 L36.233181,52.3376041 C36.233181,52.3376041 36.4559658,59.350092 36.4559658,60.30702 C36.4559658,61.263948 36.487365,63.3975983 36.487365,63.3975983 C36.487365,63.3975983 36.965829,66.0112079 37.2529074,66.8724431 C37.5399858,67.7336783 37.7627706,71.657083 37.7627706,71.657083 C37.7627706,71.657083 38.4326202,72.741103 38.1455418,73.152283 C37.8584634,73.563463 39.260961,74.4590878 39.260961,74.4590878 C39.260961,74.4590878 38.363841,75.7030941 38.3055282,76.5314349 C38.2472154,77.3597757 45.4436129,78.5364981 45.4436129,78.5364981 L42.6401129,49.7882882 L40.4077794,42.5859099 L36.1688874,43.0000803 Z" id="Path" fill="#000000" opacity="0.1"></path>
                        <path d="M49.4208448,81.1022612 C47.3380312,86.0678204 42.3844337,82.2356228 42.3844337,82.2356228 C42.3844337,82.2356228 42.3844337,82.13993 42.3724721,81.975458 C42.6595505,81.7108076 42.8300033,81.526898 42.8300033,81.526898 L49.1741368,80.2514925 C49.1741368,80.2514925 49.2773056,80.6133309 49.4208448,81.1022612 Z" id="Path" fill="#000000" opacity="0.1"></path>
                        <path d="M49.4926144,80.6731389 C47.4516664,85.9063388 42.3844337,81.9799436 42.3844337,81.9799436 C42.3844337,81.9799436 42.2244473,79.2706413 42.5444201,78.0281301 C42.8643929,76.7856189 42.1930481,73.055095 42.1930481,73.055095 C42.1930481,73.055095 41.8102769,69.7402366 41.4604001,68.9761894 C41.1105233,68.2121423 41.1419225,66.6810575 41.1419225,66.5539655 C41.1419225,66.4268735 41.2690145,65.4056519 40.9819361,64.7044031 C40.6948577,64.0031543 40.5333761,62.2821791 40.5333761,62.2821791 C40.5333761,62.2821791 40.5333761,59.8599552 40.2462978,58.4260584 L39.2579706,53.4918985 L37.4727018,43.3873371 L38.0304114,43.2916443 L48.0228328,41.5392699 C48.0228328,41.5392699 49.9037944,51.1085497 49.265344,52.0894009 C49.1277856,52.3047097 49.0066744,52.7756977 48.906496,53.3827489 C48.5416672,55.5537793 48.405604,59.4517656 48.405604,59.4517656 C48.405604,59.4517656 49.6481152,61.3955256 49.1711464,62.7666239 C48.6941776,64.1377223 49.6197064,66.3999599 49.6197064,66.3999599 C49.6197064,66.3999599 49.9067848,75.3248085 49.3640272,76.2174429 C48.8212696,77.1100773 49.4926144,80.6731389 49.4926144,80.6731389 Z" id="Path" fill="#575988"></path>
                        <path d="M48.5356864,15.4300879 C48.5356864,15.4300879 39.4837458,21.8041254 41.5231985,18.6163591 C42.6221705,16.8998695 42.4203185,14.7138871 41.9897009,13.0631863 C41.7720065,12.2236035 41.4714926,11.4077083 41.0925809,10.6275056 C41.0925809,10.6275056 48.7838896,7.35600803 47.7641632,10.2880952 C47.5252106,10.971191 47.4235844,11.6947693 47.4651232,12.41726 C47.526219,13.5033097 47.897788,14.5489963 48.5356864,15.4300879 L48.5356864,15.4300879 Z" id="Path" fill="#D28690"></path>
                        <path d="M32.2380067,30.0277253 C32.2380067,30.0277253 28.4132851,28.9227725 27.77633,30.0067925 C27.1393748,31.0908125 27.9677156,33.4696756 29.1220099,33.8524468 C30.2763043,34.235218 32.9257987,32.5561084 32.9257987,32.5561084 L32.2380067,30.0277253 Z" id="Path" fill="#D28690"></path>
                        <path d="M36.6159522,28.1482589 L35.022069,29.6150501 C35.022069,29.6150501 32.2484731,29.8692341 31.4515315,29.6778485 C31.4515315,29.6778485 32.1856747,34.58659 31.1330539,35.192146 L37.571385,33.8853412 L36.6159522,28.1482589 Z" id="Path" fill="#585B8A"></path>
                        <path d="M36.6159522,28.1482589 L35.022069,29.6150501 C35.022069,29.6150501 32.2484731,29.8692341 31.4515315,29.6778485 C31.4515315,29.6778485 32.1856747,34.58659 31.1330539,35.192146 L37.571385,33.8853412 L36.6159522,28.1482589 Z" id="Path" fill="#000000" opacity="0.1"></path>
                        <path d="M16.1526453,7.07939604 C16.1526453,9.7218797 14.0104891,11.864036 11.3680054,11.864036 C8.91288706,10.6843232 6.58336549,9.72440479 6.58336549,7.07939604 C6.51402568,5.32624998 7.40979132,3.67576975 8.91755619,2.77856621 C10.4253211,1.88136267 12.3032138,1.88136267 13.8109786,2.77856621 C15.3187435,3.67576975 16.2145092,5.32624998 16.1451693,7.07939604 L16.1526453,7.07939604 Z" id="Path" fill="#000000" opacity="0.1"></path>
                        <path d="M16.1526463,6.95080884 C16.1541205,9.27383741 14.4837813,11.2609572 12.1950928,11.658913 C9.90640427,12.0568689 7.66334449,10.7502087 6.88058716,8.56302907 C6.09782983,6.3758494 7.00246294,3.94267926 9.02394411,2.79809294 C11.0454253,1.65350661 13.5972967,2.12956336 15.0701206,3.92601929 C15.7687955,4.77938291 16.1512065,5.84791535 16.1526463,6.95080884 L16.1526463,6.95080884 Z" id="Path" fill="#FFD6D6"></path>
                        <path d="M18.9411933,36.2073868 C18.4678186,36.5013602 17.9724287,36.7583031 17.4594501,36.9759196 C17.4594501,36.9759196 15.0372262,36.6245476 14.6873494,37.038718 C14.3374726,37.4528883 11.2483894,37.6128747 11.2483894,37.6128747 C11.2483894,37.6128747 6.5310335,37.3900899 5.82978471,36.784534 C5.61295513,36.6089362 5.37168453,36.4658864 5.11358392,36.3598972 L5.19133432,35.1487852 C5.19133432,35.1487852 17.3458149,34.3832428 18.3236757,35.3177428 C18.5782099,35.5773468 18.7869945,35.8781382 18.9411933,36.2073868 L18.9411933,36.2073868 Z" id="Path" fill="#000000" opacity="0.1"></path>
                        <path d="M19.5317973,35.3506372 C19.4361045,35.8918996 17.4594501,36.7202404 17.4594501,36.7202404 C17.4594501,36.7202404 15.0372262,36.3703636 14.6873494,36.784534 C14.3374726,37.1987044 11.2483894,37.3586908 11.2483894,37.3586908 C11.2483894,37.3586908 6.5310335,37.1344108 5.82978471,36.5288548 C5.12853592,35.9232988 3.56605194,35.6317348 3.56605194,35.6317348 C3.56605194,35.6317348 2.76911036,29.9589461 3.08908315,28.7164349 C3.40905595,27.4739237 2.61061916,24.0618774 2.41923356,22.8507654 C2.22784796,21.6396534 2.96049595,18.2933959 3.85313034,17.7521335 C4.74576472,17.2108711 6.0211703,15.3927079 6.78521749,14.8514455 C7.42964868,14.3954095 8.14136387,13.8048055 8.34919667,13.6268767 L8.41049986,13.5760399 C8.41049986,13.5760399 8.53908706,12.5877127 9.04895025,12.08084 C9.55881345,11.5739672 14.243275,15.3000055 14.243275,15.3000055 C14.243275,15.3000055 14.2761694,15.5870839 14.594647,15.0458215 C14.6664166,14.9247103 15.2839342,15.8158495 15.3915886,16.1926399 C15.3915886,16.1926399 17.9409045,20.6558118 18.1008909,21.5753598 C18.2608773,22.4949078 18.9292317,25.4957741 19.0563237,26.2284221 C19.0892181,26.4168173 19.1430453,27.0776957 19.2058437,27.9628541 C19.2178053,28.1362973 19.2282717,28.3202069 19.2417285,28.5115925 C19.3359261,29.9798789 19.4375997,31.8548596 19.4989029,33.2723092 C19.4989029,33.4337908 19.5123597,33.5892916 19.5168453,33.7388116 C19.5491262,34.2754868 19.5541166,34.8134555 19.5317973,35.3506372 L19.5317973,35.3506372 Z" id="Path" fill="#DCE6F2"></path>
                        <path d="M3.34625755,23.8435782 C3.34625755,23.8435782 5.09863192,25.9787237 5.67278871,25.9787237 C6.2469455,25.9787237 3.34625755,23.8435782 3.34625755,23.8435782 Z" id="Path" fill="#000000" opacity="0.1"></path>
                        <path d="M7.03790629,28.4338421 C7.03790629,28.4338421 4.16861753,31.5573148 4.55138873,32.1314716 C4.93415992,32.7056284 7.03790629,28.4338421 7.03790629,28.4338421 Z" id="Path" fill="#000000" opacity="0.1"></path>
                        <path d="M4.93415992,34.6493884 C4.93415992,34.6493884 8.22359987,31.0474517 8.37311987,29.8049405 L4.93415992,34.6493884 Z" id="Path" fill="#000000" opacity="0.1"></path>
                        <path d="M9.07735905,34.9035724 C9.07735905,34.9035724 12.8706814,32.8955188 13.189159,31.3016356 C13.5076366,29.7077525 9.07735905,34.9035724 9.07735905,34.9035724 Z" id="Path" fill="#000000" opacity="0.1"></path>
                        <path d="M13.8904078,15.5257807 L13.3640974,16.7996911 L14.2402846,17.2138615 L15.1015198,19.6211334 C15.1015198,19.6211334 17.4758973,24.3698886 17.3802045,26.8399589 C17.2845117,29.3100293 17.8108221,33.0226108 17.8108221,33.0226108 L19.1804253,32.7684268 L18.5344989,25.5032501 C18.4339194,24.3783856 18.1521788,23.2771737 17.7001773,22.242219 C16.6056909,19.7362638 14.5692286,15.1101151 14.4406414,15.1101151 C14.265703,15.1101151 14.3883094,15.1744087 14.3883094,15.1744087 L13.8904078,15.5257807 Z" id="Path" fill="#000000" opacity="0.1"></path>
                        <path d="M14.0174998,15.3971935 L13.4911894,16.6725991 L14.3688718,17.0867695 L15.2286118,19.4940414 C15.2286118,19.4940414 17.6029893,24.2427966 17.5072965,26.7128669 C17.4116037,29.1829373 17.9379141,32.8955188 17.9379141,32.8955188 L19.3090125,32.6413348 L18.6615909,25.3761581 C18.5621892,24.2512575 18.2809259,23.1499373 17.8287645,22.115127 C16.7342781,19.6076766 14.6978158,14.9830231 14.5707238,14.9830231 C14.3942902,14.9830231 14.5168966,15.0473167 14.5168966,15.0473167 L14.0174998,15.3971935 Z" id="Path" fill="#575989"></path>
                        <path d="M29.5391707,34.1290588 C28.8723115,34.078222 27.2724476,33.2693188 26.6369876,32.9328988 L26.3678516,32.7833788 L26.400746,30.3148037 C26.5578771,30.2224037 26.7206786,30.1400042 26.8881812,30.0680957 C27.7374548,29.6972861 29.4793627,29.1934037 30.3525595,30.8156957 C31.5307771,32.9912116 30.3839587,34.1858764 29.5391707,34.1290588 Z" id="Path" fill="#FFD6D6"></path>
                        <path d="M15.0701206,3.92601929 C15.001617,3.96893 14.926264,3.99977921 14.8473358,4.01722649 C14.2926166,4.13833768 13.6616422,3.66136889 13.1861686,3.96788489 C12.8960998,4.15628008 12.8288158,4.54652728 12.7899406,4.89042327 C12.7221582,5.48850326 12.6543758,6.08259605 12.5865934,6.67270164 C12.5723765,6.88278632 12.528065,7.08974085 12.4550158,7.28722883 C12.2202694,7.82400562 11.5758382,8.07669442 10.9882246,8.06772322 C10.7580427,8.0841093 10.5307113,8.00886961 10.355755,7.85839522 C10.2525862,7.75373123 10.1972638,7.60720163 10.0836286,7.51150883 C9.33602865,6.88502004 9.10875825,8.42059042 9.30612465,8.85718881 C9.62310705,9.5703992 10.7489926,10.2581912 10.2765094,11.1642824 C10.197046,11.311543 10.0765405,11.4325679 9.92962304,11.512664 C7.97633341,10.9009492 6.62849339,9.11449852 6.57646103,7.06832454 C6.52442867,5.02215056 7.77972975,3.16950435 9.69940426,2.45930361 C11.6190788,1.74910286 13.7778967,2.33866522 15.0701206,3.92601929 Z" id="Path" fill="#000000" opacity="0.1"></path>
                        <path d="M9.95653664,7.50552803 C10.0686766,7.59972563 10.1254942,7.74625523 10.228663,7.85091922 C10.4037007,8.00124974 10.6309712,8.07646928 10.8611326,8.06024722 C11.4487462,8.06921842 12.0931774,7.81802482 12.3264286,7.27825763 C12.4008106,7.08160477 12.4456548,6.87501913 12.4595014,6.66522564 L12.6628486,4.88294727 C12.7017238,4.53905128 12.7675126,4.14880408 13.0590766,3.96040889 C13.5345502,3.66136889 14.1655246,4.13086168 14.7202438,4.00975049 C15.1352281,3.904273 15.3969678,3.4946503 15.3183238,3.0737553 C15.2540302,2.78817211 15.035731,2.56239691 14.923591,2.29027051 C14.855612,2.08117418 14.8011737,1.86791579 14.7606142,1.65182012 C14.4511078,0.491544943 13.0889806,-0.160362247 11.9047822,0.0340137501 C11.2468942,0.143163348 10.6353574,0.457155343 9.97597424,0.552848142 C9.50349105,0.621627341 9.02054146,0.576771341 8.54357266,0.627608141 C8.10042855,0.67333525 7.66955206,0.800570541 7.27265268,1.00290333 C7.16845687,1.04901919 7.07634305,1.11861629 7.00351669,1.20625053 C6.9357904,1.32461128 6.89019015,1.45431865 6.86894869,1.58902173 C6.70896229,2.18710172 6.1946135,2.62818571 5.82230871,3.1320681 C5.39647195,3.71182426 5.15005697,4.40376166 5.11358392,5.12217927 C5.09891896,5.30566579 5.11611834,5.49030618 5.16442072,5.66792726 C5.19581992,5.77259126 5.24516152,5.87426486 5.26908472,5.98191925 C5.34234951,6.30936805 5.17488712,6.63681684 5.09265112,6.96277044 C4.99047077,7.37871598 5.02722981,7.81667371 5.19731512,8.20976722 C5.77147191,9.5300288 7.66289988,9.97111279 8.05613747,11.3571632 C8.40533337,11.5245905 8.78248852,11.6259763 9.16856625,11.6562032 C9.55432785,11.6636792 9.96999344,11.497712 10.1494174,11.1553112 C10.6204054,10.2581912 9.49601505,9.561428 9.17903265,8.84971281 C8.98017106,8.41161922 9.20295585,6.87754404 9.95653664,7.50552803 Z" id="Path" fill="#353045"></path>
                        <path d="M47.7716392,10.2880952 C47.5326866,10.971191 47.4310604,11.6947693 47.4725992,12.41726 C47.2423384,12.6131311 46.9911448,12.0270128 46.7249992,12.178028 C45.9953417,12.5996743 45.1520489,13.6029546 44.2489481,13.6029546 C43.4657768,13.6034625 42.6936179,13.4184927 41.9956817,13.0631863 C41.7779873,12.2236035 41.4774734,11.4077083 41.0985617,10.6275056 C41.0985617,10.6275056 48.7913656,7.35600803 47.7716392,10.2880952 Z" id="Path" fill="#000000" opacity="0.1"></path>
                        <path d="M49.2160026,8.37573442 C49.2160026,11.1222659 46.9894987,13.3487695 44.2429673,13.3487695 C41.4964358,13.3487695 39.2699322,11.1222659 39.2699322,8.37573442 C39.2699322,5.62920296 41.4964358,3.40269907 44.2429673,3.40269907 C45.5620198,3.40230253 46.8271613,3.92611838 47.7598723,4.8588294 C48.6925833,5.79154042 49.2163992,7.0566819 49.2160026,8.37573442 Z" id="Path" fill="#D28690"></path>
                        <path d="M49.003684,16.5350407 C49.003684,16.5350407 48.0676888,17.5547671 47.9405968,17.6384983 C47.8135048,17.7222295 45.0997169,29.1515381 45.0518705,29.2846109 C45.0040241,29.4176837 41.8207433,39.7375539 41.8207433,39.7375539 L36.7206162,42.2450043 L37.1467482,29.6225261 L40.8847481,19.2129438 C40.8847481,19.2129438 42.1182881,17.8104463 42.4995641,17.3005831 C42.8808401,16.7907199 47.6415568,13.7300455 47.6415568,13.7300455 L48.4549456,15.4061647 L49.003684,16.5350407 Z" id="Path" fill="#F0F3F7"></path>
                        <path d="M48.3293488,15.6618439 L42.4651745,19.8603654 L42.3709769,17.5547671 C42.7537481,17.0449039 47.5129696,13.9857247 47.5129696,13.9857247 L48.3293488,15.6618439 Z" id="Path" fill="#000000" opacity="0.1"></path>
                        <path d="M48.4564408,15.4061647 L42.5922665,19.6046862 L42.5010593,17.3005831 C42.8838305,16.7892247 47.643052,13.7300455 47.643052,13.7300455 L48.4564408,15.4061647 Z" id="Path" fill="#F0F3F7"></path>
                        <path d="M42.3051881,16.2748759 L42.5010593,17.3005831 L41.1897689,18.6328063 L42.2364089,16.2898279 C42.2364089,16.2898279 39.993609,17.8523119 39.320769,18.2664823 C38.647929,18.6806527 37.975089,20.0831502 37.9496706,20.4659214 C37.9242522,20.8486926 36.8656506,26.6171741 36.8656506,26.6171741 C36.8656506,26.6171741 36.068709,28.7523197 36.292989,29.3578757 C36.517269,29.9634317 35.081877,49.0556402 35.081877,49.0556402 C35.4703549,48.304947 36.1729375,47.7662273 36.9987234,47.5858586 L36.487365,36.3030796 C36.487365,36.3030796 37.1093682,28.7971757 37.1407674,28.7014829 C37.1721666,28.6057901 38.5911114,24.2547582 38.5911114,24.2547582 L42.3051881,16.2748759 Z" id="Path" fill="#585B8A"></path>
                        <path d="M42.6296465,17.4276751 L42.5279729,19.520955 C42.5279729,19.520955 41.1090281,23.999079 40.6320593,24.731727 C40.1550906,25.4643749 38.7032514,29.8318541 38.7032514,29.8318541 L37.885377,37.4184987 L36.4828794,38.0569491 L35.792097,36.784534 L36.9404106,29.4580541 C36.9404106,29.4580541 39.1069554,23.2754022 39.4269282,22.6369518 L41.0252969,19.2697614 L42.6296465,17.4276751 Z" id="Path" fill="#000000" opacity="0.1"></path>
                        <path d="M42.5010593,17.3005831 L42.4008809,19.393863 C42.4008809,19.393863 40.9819361,23.871987 40.5034721,24.604635 C40.0250082,25.3372829 38.5761594,29.7047621 38.5761594,29.7047621 L37.7627706,37.2899116 L36.360273,37.9268667 L35.6590242,36.6529564 L36.8073378,29.3264765 C36.8073378,29.3264765 38.9738826,23.1423294 39.2923602,22.5053742 L40.9026905,19.1426694 L42.5010593,17.3005831 Z" id="Path" fill="#663D5C"></path>
                        <path d="M25.9701284,33.27829 L28.7108299,35.1756988 C28.7108299,35.1756988 30.6441235,34.0916788 29.5182379,33.39043 C28.3923523,32.6891812 27.3935588,32.583022 27.0317204,32.583022 C26.669882,32.583022 25.9701284,33.27829 25.9701284,33.27829 Z" id="Path" fill="#D28690"></path>
                        <path d="M28.0170571,29.7705509 C27.8926679,29.847959 27.8173773,29.984388 27.818189,30.1308941 C27.818189,30.7125269 27.8839844,32.2525828 28.3714195,31.5573148 C28.9694995,30.7065461 28.8603499,29.9424989 29.7739171,30.4942277 C30.3417204,30.8478445 30.8386382,31.3041976 31.2392131,31.8399076 L30.9850291,30.0127733 C30.9850291,30.0127733 29.1070579,29.0857493 28.0170571,29.7705509 Z" id="Path" fill="#D28690"></path>
                        <path d="M49.2683344,52.0834201 C49.130776,52.2987289 49.0096648,52.7697169 48.9094864,53.3767681 C43.3204289,55.0528873 39.231057,51.5092633 39.231057,51.5092633 C38.7362938,49.832646 38.3320066,48.130647 38.019945,46.4106314 C37.9197666,45.8215226 37.9421946,44.6791898 38.034897,43.2856635 L48.0273184,41.5332891 C48.0273184,41.5332891 49.9067848,51.0950929 49.2683344,52.0834201 Z" id="Path" fill="#000000" opacity="0.1"></path>
                        <path d="M55.0054167,23.5564998 C54.7512327,24.3863358 54.8469255,26.0744165 54.8469255,26.0744165 L52.5517936,36.911626 C52.5517936,36.911626 51.4363744,45.2623178 51.2449888,46.377737 C51.0536032,47.4931562 50.7351256,52.4018977 50.7351256,52.4018977 C44.2325009,55.5896641 39.2220858,51.2550793 39.2220858,51.2550793 C38.7274181,49.5779315 38.3231325,47.8754399 38.0109738,46.1549522 C37.691001,44.262029 38.632977,36.6783748 39.0785466,33.3096892 C39.2116194,32.3123908 39.3013314,31.6844068 39.3013314,31.6844068 L40.9744601,25.4688605 C40.9744601,25.4688605 43.0303601,20.2251942 43.7959025,18.6956047 C44.5614449,17.1660151 47.635576,13.7300455 47.635576,13.7300455 C48.016852,13.4878231 48.6268936,14.3430775 49.0799392,15.1220767 C49.42234,15.7111855 49.6780192,16.2584287 49.6780192,16.2584287 C49.6780192,16.2584287 53.5027407,17.9151103 54.0754023,18.8002686 C54.6480639,19.685427 54.5538663,21.509571 54.6181599,21.6052638 C54.6824535,21.7009566 55.2610959,22.728159 55.0054167,23.5564998 Z" id="Path" fill="#585B8A"></path>
                        <path d="M45.9863705,19.700379 C45.9863705,19.700379 46.2734489,21.389955 45.5378105,21.8998182 C44.8275905,22.3932342 39.5405634,32.7893596 39.2116194,33.4382764 C39.3446922,32.4394828 39.4344042,31.8114988 39.4344042,31.8114988 L41.1075329,25.5974477 C41.1075329,25.5974477 43.1649281,20.3537814 43.9289753,18.8226966 C44.6930225,17.2916119 47.770144,13.8571375 47.770144,13.8571375 C48.15142,13.6149151 48.7599664,14.4701695 49.213012,15.2491687 C48.5297056,16.6681135 47.10478,19.3505022 45.9863705,19.700379 Z" id="Path" fill="#000000" opacity="0.1"></path>
                        <path d="M45.8592785,19.573287 C45.8592785,19.573287 46.1448617,21.262863 45.4107185,21.7727262 C44.6765753,22.2825894 39.4149666,32.6607724 39.081537,33.3096892 C39.2146098,32.3123908 39.3043218,31.6844068 39.3043218,31.6844068 L40.9774505,25.4688605 C40.9774505,25.4688605 43.0333505,20.2251942 43.7988929,18.6956047 C44.5644353,17.1660151 47.6385664,13.7300455 47.6385664,13.7300455 C48.0198424,13.4878231 48.629884,14.3430775 49.0829296,15.1220767 C48.4026136,16.5395263 46.9761928,19.2234102 45.8592785,19.573287 Z" id="Path" fill="#585B8A"></path>
                        <polygon id="Path" fill="#56CC7E" points="53.4444279 34.840774 51.6457024 44.1992306 51.6457024 44.2007258 51.4737544 45.0963506 51.4737544 45.0978458 51.0864976 47.1118802 49.4343016 46.7620034 48.6642736 46.5990266 38.0079834 44.3412746 37.2244986 44.1753074 35.4362394 43.7970218 35.7861162 41.4734811 35.9311506 40.5075819 37.2215082 31.940086"></polygon>
                        <path d="M43.4998529,42.4902171 C43.4998529,42.4902171 39.260961,44.0198066 40.1849946,45.8364746 C41.1090281,47.6531426 47.037496,44.433977 47.037496,44.433977 L43.4998529,42.4902171 Z" id="Path" fill="#D28690"></path>
                        <path d="M46.5276329,55.5253705 C46.5276329,55.6524625 46.6876192,57.27924 47.3245744,57.8519016 C47.9615296,58.4245632 46.5276329,55.5253705 46.5276329,55.5253705 Z" id="Path" fill="#000000" opacity="0.1"></path>
                        <path d="M42.2573417,61.293852 C42.2573417,61.293852 43.0213889,63.3975983 46.0491689,64.2588335 C49.0769488,65.1200687 42.2573417,61.293852 42.2573417,61.293852 Z" id="Path" fill="#000000" opacity="0.1"></path>
                        <path d="M49.2160026,8.37573442 C49.2164691,10.1551353 48.2658983,11.7991038 46.723504,12.6863959 C46.4378949,12.5265775 46.1844074,12.315169 45.9759041,12.0628976 C45.7591001,11.7997424 45.5901425,11.4408944 45.7202249,11.1269024 C45.8248889,10.8742136 46.1015009,10.7142272 46.1687849,10.4525672 C46.2004839,10.292554 46.1922673,10.1271953 46.1448617,9.97111279 C46.0895393,9.72440479 46.0372073,9.4776968 45.9833801,9.232484 C45.9370289,9.02315601 45.8547929,8.77644801 45.6469601,8.72561121 C45.4391273,8.67477441 45.2656841,8.84821761 45.1027073,8.97680481 C44.7034889,9.292292 43.9379465,9.5061056 43.4579873,9.247436 C42.9780281,8.98876641 43.1125961,8.12304562 43.0348457,7.65504803 C43.0328813,7.57274618 42.994554,7.49554404 42.9301817,7.44422483 C42.8603291,7.42104714 42.7857508,7.41590381 42.7133777,7.42927283 C42.4547081,7.42927283 42.2468753,7.19751683 42.1721153,6.94931364 C42.1191465,6.69592159 42.0901116,6.43811179 42.0853937,6.17928565 C42.0569849,5.92061606 41.9627873,5.64699446 41.7414977,5.51392166 C41.5646834,5.43162583 41.3686379,5.39955505 41.1748169,5.42121926 L40.2373266,5.43168566 C41.512901,3.70715805 43.7504805,2.99484163 45.7882544,3.66459 C47.8260283,4.33433837 49.2047403,6.23520925 49.2085264,8.38022002 L49.2160026,8.37573442 Z" id="Path" fill="#000000" opacity="0.1"></path>
                        <path d="M45.2357801,8.97680481 C45.3987569,8.84821761 45.5781809,8.67776481 45.7800329,8.72710641 C45.9818849,8.77644801 46.0686065,9.02614641 46.1149577,9.232484 L46.2764393,9.96961759 C46.3242259,10.1261092 46.332953,10.2919239 46.3018577,10.4525672 C46.2256025,10.7157224 45.9504857,10.8742136 45.8443265,11.1269024 C45.7142441,11.4408944 45.8846969,11.7997424 46.1000057,12.0614024 C46.4927289,12.5347082 47.0357113,12.8592311 47.6385664,12.9809503 C47.795958,13.0187642 47.9596353,13.0223335 48.1185256,12.9914167 C48.4743832,12.9091807 48.7166056,12.5817319 48.9079912,12.275216 C49.8963184,10.73516 50.7470872,9.04707921 50.9205304,7.22592563 C50.9681155,6.85447111 50.950915,6.47757775 50.8696936,6.11200165 C50.7886645,5.8278547 50.6742305,5.55431734 50.528788,5.29711767 C50.2742909,4.7716625 49.9509803,4.28242265 49.5673744,3.84228809 C48.8870584,3.1096401 47.9480728,2.65958491 46.9836688,2.39343931 C45.8989235,2.09244621 44.7662873,2.00360205 43.6478777,2.13177932 C43.3488377,2.16616892 43.0617593,2.21551052 42.7672049,2.23494811 C42.3973803,2.25214342 42.0268417,2.24615088 41.6577665,2.21700571 L39.4568322,2.08542812 C39.3312354,2.34110731 39.4568322,2.64463291 39.6063522,2.8838649 C39.7558722,3.1230969 39.941277,3.3713001 39.9293154,3.65538809 C39.9173538,3.93947609 39.7155018,4.16375608 39.560001,4.40298808 C39.4045002,4.64222008 39.2863794,4.95172647 39.4418802,5.18497767 C39.597381,5.41822886 39.9143634,5.43318086 40.1894802,5.43019046 L41.2989185,5.41822886 C41.4921711,5.39836256 41.6871669,5.43198252 41.8626089,5.51541686 C42.0838985,5.64848966 42.1780961,5.92360646 42.2065049,6.18078085 C42.2127119,6.43950763 42.2417316,6.69718246 42.2932265,6.95080884 C42.3694817,7.19901203 42.5758193,7.43375843 42.8344889,7.43076803 C42.9069011,7.41631999 42.981889,7.42200873 43.0512929,7.44721523 C43.1155997,7.49793394 43.153966,7.5746666 43.1559569,7.65654323 C43.2337073,8.12454082 43.0901681,8.98876641 43.5790985,9.2489312 C44.0680289,9.509096 44.8365617,9.292292 45.2357801,8.97680481 Z" id="Path" fill="#663D5C"></path>
                        <path d="M51.5559904,18.7987734 C50.4237231,18.6785094 49.3590776,19.3582685 48.9917224,20.4360174 C48.3936424,22.1390502 47.396344,25.2116861 47.6460424,26.4257885 C47.9974144,28.1467637 48.4115848,31.0160525 48.4115848,31.0160525 C48.4115848,31.0160525 50.2282528,32.0626924 49.3087048,33.1183036 C48.3891568,34.1739148 48.128992,35.6691148 48.128992,35.6691148 C48.128992,35.6691148 46.9492792,36.178978 46.6950952,37.262998 C46.4409113,38.3470179 44.7184409,39.8437131 44.7184409,39.8437131 L42.1377257,42.4259235 C42.1377257,42.4259235 46.4080169,46.7620034 47.269252,46.983293 L49.9142608,43.8912194 L53.0377335,39.7480203 L55.7470359,36.9071404 C55.7470359,36.9071404 56.3839911,35.4119404 56.0655135,32.5710604 C55.7470359,29.7301805 54.5030295,27.0253637 54.5030295,27.0253637 L54.5987223,26.0684357 C54.5987223,26.0684357 54.8917815,19.2129438 51.5559904,18.7987734 Z" id="Path" fill="#000000" opacity="0.1"></path>
                        <path d="M51.8101744,18.7987734 C50.6789648,18.6799839 49.6160049,19.3594592 49.2488968,20.4360174 C48.6508168,22.1390502 47.6535184,25.2116861 47.9032168,26.4257885 C48.2530936,28.1467637 48.667264,31.0160525 48.667264,31.0160525 C48.667264,31.0160525 50.483932,32.0626924 49.564384,33.1183036 C48.644836,34.1739148 48.3861664,35.6691148 48.3861664,35.6691148 C48.3861664,35.6691148 47.2064536,36.178978 46.9507744,37.262998 C46.6950952,38.3470179 44.9756153,39.8437131 44.9756153,39.8437131 L42.3934049,42.4259235 C42.3934049,42.4259235 46.663696,46.7620034 47.5249312,46.983293 L50.16994,43.8912194 L53.2859367,39.7480203 L55.9952391,36.9071404 C55.9952391,36.9071404 56.6336895,35.4119404 56.3137167,32.5710604 C55.9937439,29.7301805 54.7527279,27.0253637 54.7527279,27.0253637 L54.8484207,26.0684357 C54.8484207,26.0684357 55.1459655,19.2129438 51.8101744,18.7987734 Z" id="Path" fill="#585B8A"></path>
                        <path d="M49.1412424,28.4981357 C49.1412424,28.4981357 51.8505448,31.8114988 52.9988583,31.0788509 C54.1471719,30.3462029 49.1412424,28.4981357 49.1412424,28.4981357 Z" id="Path" fill="#000000" opacity="0.1"></path>
                        <path d="M50.1609688,25.9473245 C50.4480472,26.0430173 52.8074728,29.3264765 54.0185847,28.9377245 C55.2296967,28.5489725 50.1609688,25.9473245 50.1609688,25.9473245 Z" id="Path" fill="#000000" opacity="0.1"></path>
                        <path d="M50.8308184,31.5872188 C50.8308184,31.5872188 50.9908048,33.4681804 52.9345647,33.2125012 C54.8783247,32.956822 50.8308184,31.5872188 50.8308184,31.5872188 Z" id="Path" fill="#000000" opacity="0.1"></path>
                        <polygon id="Path" fill="#000000" opacity="0.1" points="42.2408945 16.4169199 41.1897689 18.7598982 42.5025545 17.4276751"></polygon>
                        <polygon id="Path" fill="#F0F3F7" points="42.2408945 16.2898279 41.1897689 18.6328063 42.5025545 17.3005831"></polygon>
                        <polygon id="Path" fill="#000000" opacity="0.3" points="38.0079834 44.3412746 37.2244986 44.1753074 35.7861162 41.4734811 35.9311506 40.5075819"></polygon>
                        <polygon id="Path" fill="#000000" opacity="0.3" points="51.6457024 44.2007258 51.4737544 45.0963506 51.4737544 45.0978458 49.4343016 46.7620034 48.6642736 46.5990266"></polygon>
                        <path d="M19.5123597,33.7447924 C19.1176269,33.8105812 18.7348557,33.8703892 18.3849789,33.9152452 C16.4412189,34.1709244 11.8180606,31.8757924 11.8180606,31.8757924 C11.8180606,31.8757924 6.1766711,27.1584365 4.55138873,22.6967598 C2.92610635,18.2350831 6.4951487,17.5652335 6.4951487,17.5652335 C7.84082867,16.7996911 10.766935,18.9348366 11.1811054,19.2862086 C11.5952758,19.6375806 11.9466478,20.5287198 11.9137534,21.1028766 C11.880859,21.6770334 12.8706814,22.4096814 12.8706814,22.4096814 C12.8706814,22.4096814 14.5602574,25.3417685 14.9744278,25.6602461 C15.3885982,25.9787237 15.484291,26.2658021 15.6113829,26.8085597 C15.7384749,27.3513173 16.8538941,27.7968869 17.3323581,27.7639925 C17.8108221,27.7310981 18.3789981,27.9239789 18.3789981,28.1781629 C18.3789981,28.3830053 18.8469957,28.4846789 19.2312621,28.5175733 C19.3448973,30.1518269 19.4570373,32.2929532 19.5123597,33.7447924 Z" id="Path" fill="#000000" opacity="0.1"></path>
                        <path d="M19.4944173,33.27829 C19.1953773,33.3261364 18.9082989,33.3694972 18.6391629,33.405382 C16.6954029,33.6610612 12.0737398,31.3659292 12.0737398,31.3659292 C12.0737398,31.3659292 6.4323503,26.6485733 4.80706792,22.1868966 C3.18178555,17.7252199 6.75082789,17.0553703 6.75082789,17.0553703 C8.09650787,16.2898279 11.021119,18.4249735 11.4352894,18.7763454 C11.8494598,19.1277174 12.2008318,20.0188566 12.1694326,20.5930134 C12.1380334,21.1671702 13.1248654,21.8998182 13.1248654,21.8998182 C13.1248654,21.8998182 14.8144414,24.8319054 15.2286118,25.1503829 C15.6427821,25.4688605 15.7384749,25.7559389 15.8670621,26.2986965 C15.9956493,26.8414541 17.1095733,27.2855285 17.5880373,27.2541293 C18.0665013,27.2227301 18.6346773,27.4141157 18.6346773,27.6682997 C18.6346773,27.8178197 18.9008229,27.9179981 19.1968725,27.9673397 C19.2088341,28.1407829 19.2193005,28.3246925 19.2327573,28.5160781 C19.3314405,29.9858597 19.4331141,31.8608404 19.4944173,33.27829 Z" id="Path" fill="#000000" opacity="0.1"></path>
                        <path d="M26.8881812,30.0680957 L26.76707,32.9328988 L26.6369876,32.9328988 L26.3678516,32.7833788 L26.400746,30.3148037 C26.5578771,30.2224037 26.7206786,30.1400042 26.8881812,30.0680957 L26.8881812,30.0680957 Z" id="Path" fill="#000000" opacity="0.1"></path>
                        <path d="M6.4951487,17.3095543 C6.4951487,17.3095543 2.92610635,17.9794039 4.55138873,22.4410806 C6.1766711,26.9027573 11.8180606,31.6216084 11.8180606,31.6216084 C11.8180606,31.6216084 16.4397237,33.9152452 18.3849789,33.6610612 C20.3302341,33.4068772 23.2922252,32.7370276 23.6749964,32.8327204 C24.0577676,32.9284132 26.639978,32.9284132 26.639978,32.9284132 L26.76707,29.9380133 L23.77667,29.7780269 L22.2470804,29.4595493 C22.2470804,29.4595493 21.7043229,29.0109893 21.3858453,29.0767781 C21.0673677,29.1425669 20.3990133,28.6940069 20.3990133,28.6940069 C20.3990133,28.6940069 19.8876549,28.2798365 19.5018933,28.2798365 C19.1161317,28.2798365 18.3864741,28.1841437 18.3864741,27.9299597 C18.3864741,27.6757757 17.8123173,27.4813997 17.3398341,27.5157893 C16.8673509,27.5501789 15.7384749,27.1016189 15.6068973,26.5528805 C15.4753198,26.0041421 15.3841126,25.7245397 14.9699422,25.4060621 C14.5557718,25.0875845 12.8661958,22.1540022 12.8661958,22.1540022 C12.8661958,22.1540022 11.8778686,21.4213542 11.9092678,20.8486926 C11.940667,20.276031 11.5907902,19.3819014 11.1766198,19.0305294 C10.7624494,18.6791575 7.83185747,16.5455071 6.4951487,17.3095543 Z" id="Path" fill="#DCE6F2"></path>
                        <path d="M15.6756765,27.5726069 C15.6756765,27.5726069 14.3045782,28.9437053 14.654455,29.1978893 L15.6756765,27.5726069 Z" id="Path" fill="#000000" opacity="0.1"></path>
                        <path d="M17.1409725,28.6566269 C17.1409725,28.6566269 15.3557038,30.0277253 15.8341677,30.1234181 C16.3126317,30.2191109 17.1409725,28.6566269 17.1409725,28.6566269 Z" id="Path" fill="#000000" opacity="0.1"></path>
                        <path d="M14.1116974,30.6900989 C14.3673766,30.8186861 18.1592037,33.0824188 19.5945957,33.0495244 L14.1116974,30.6900989 Z" id="Path" fill="#000000" opacity="0.1"></path>
                        <path d="M14.3688718,15.5571799 C14.3688718,15.5571799 13.6990222,17.7566191 13.443343,17.7566191 C13.2429862,17.7566191 9.87878624,15.0323647 8.47479346,13.8870415 L8.53609666,13.8362047 C8.53609666,13.8362047 8.66318866,12.8478775 9.17305185,12.3410048 C9.68291504,11.834132 14.3688718,15.5571799 14.3688718,15.5571799 Z" id="Path" fill="#000000" opacity="0.1"></path>
                        <path d="M14.2402846,15.3015007 C14.2402846,15.3015007 13.5719302,17.5009399 13.316251,17.5009399 C13.114399,17.5009399 9.75019904,14.7766855 8.34620627,13.6313623 L8.40750946,13.5805255 C8.40750946,13.5805255 8.53609666,12.5921983 9.04595985,12.0853256 C9.55582305,11.5784528 14.2402846,15.3015007 14.2402846,15.3015007 Z" id="Path" fill="#DCE6F2"></path>
                        <g id="Group" opacity="0.15" transform="translate(5.156945, 0.742739)" fill="#000000">
                            <path d="M0.0568175991,7.45058148 L0.0568175991,7.45058148 C0.505377592,8.47479346 1.74041277,8.97119986 2.45661356,9.78757904 C2.03048157,8.78429986 0.784979987,8.29237907 0.0568175991,7.45058148 Z" id="Path"></path>
                            <path d="M4.62764393,9.81000704 C4.44971513,10.1524078 4.02956394,10.318375 3.64679274,10.310899 C3.30649419,10.286482 2.97330346,10.201412 2.66295116,10.0597054 C2.77553733,10.2256813 2.86131372,10.4083345 2.91713515,10.6009678 C3.26621032,10.7687207 3.6434274,10.8701232 4.02956394,10.9000078 C4.41682073,10.908979 4.83248632,10.7430118 5.01041512,10.3991158 C5.29599831,9.85336784 4.99845352,9.38686545 4.65007193,8.94578146 C4.78178925,9.22074828 4.77344598,9.54224227 4.62764393,9.81000704 L4.62764393,9.81000704 Z" id="Path"></path>
                            <path d="M10.176331,2.31606476 C10.1120374,2.02898637 9.89373824,1.80321117 9.78159824,1.53257998 C9.71292134,1.32317893 9.65847173,1.10937679 9.61862145,0.892634386 C9.53366478,0.586156932 9.37622671,0.304614587 9.15959505,0.0717695988 C9.18969332,0.145365464 9.21516139,0.220770918 9.23585025,0.297544795 C9.27775278,0.515242727 9.33369031,0.730002895 9.40331265,0.940480785 C9.51545265,1.21111198 9.73375184,1.43688718 9.79804544,1.72396557 C9.87668952,2.14486057 9.61494978,2.55448327 9.19996545,2.65996076 C8.64674146,2.78107196 8.01576707,2.30260796 7.54029348,2.61061916 C7.24872948,2.79751916 7.18144548,3.18776635 7.14257029,3.53166234 C7.07578469,4.12974233 7.00800229,4.72433352 6.93922309,5.31543591 C6.92572619,5.52513535 6.88139041,5.73169976 6.80764549,5.9284679 C6.57289909,6.4667399 5.9284679,6.71942869 5.34085431,6.71045749 C5.11125923,6.72579312 4.88478072,6.65065807 4.70987992,6.5011295 C4.6248709,6.38074359 4.53353536,6.26495209 4.43625833,6.1542431 C3.68865834,5.52625911 3.46138794,7.06182949 3.65875434,7.49992308 C3.75758435,7.69699843 3.88009988,7.88127384 4.02358314,8.04866147 C3.85911114,7.55524548 4.08937193,6.1348055 4.81902952,6.74335189 C4.91627217,6.85370249 5.00712909,6.9695201 5.09115592,7.09023829 C5.26675309,7.23957646 5.49360704,7.31465815 5.72362551,7.29956628 C6.3112391,7.30853748 6.95567029,7.05584869 7.19041668,6.5175767 C7.26430514,6.32033335 7.30864316,6.11325462 7.32199428,5.90304951 C7.38977668,5.30496951 7.45755908,4.71087672 7.52534148,4.12077113 C7.56421668,3.77687514 7.63150068,3.38662795 7.92156947,3.19972795 C8.39853827,2.89171675 9.02951265,3.37018075 9.58273665,3.24757435 C9.99433582,3.14087828 10.2534804,2.73421055 10.176331,2.31606476 L10.176331,2.31606476 Z" id="Path"></path>
                        </g>
                        <path d="M48.4370032,12.6101407 C48.2779432,12.6397925 48.1144295,12.6357174 47.957044,12.5981791 C47.3549342,12.476538 46.8125525,12.1525863 46.4199785,11.6801264 C46.2031745,11.4169712 46.0327217,11.0581232 46.1642993,10.7441312 C46.2689633,10.4914424 46.5440801,10.3329512 46.6128593,10.069796 C46.6439546,9.90915272 46.6352275,9.74333799 46.5874409,9.5868464 L46.4259593,8.84971281 C46.3796081,8.64038481 46.2988673,8.39367682 46.0910345,8.34433522 C45.8832017,8.29499362 45.7097585,8.46544641 45.5467817,8.59403361 C45.1475633,8.90952081 44.3805257,9.1248296 43.9020617,8.86466481 C43.4235977,8.60450001 43.5566705,7.74027443 43.4789201,7.27227683 C43.4763174,7.19055374 43.4380729,7.11406489 43.3742561,7.06294884 C43.3041636,7.03854982 43.228914,7.03288033 43.1559569,7.04650164 C42.8972873,7.04650164 42.6909497,6.81474564 42.6146945,6.56654245 C42.5628732,6.31300091 42.5343456,6.05525171 42.5294681,5.79651446 C42.4995641,5.53934006 42.4068617,5.26422327 42.1840769,5.13115047 C42.0084046,5.04844402 41.8136123,5.01485913 41.6203865,5.03396247 L40.5109481,5.04592407 C40.2373266,5.04592407 39.9128682,5.02798167 39.7633482,4.80071127 C39.6138282,4.57344088 39.724473,4.25047768 39.881469,4.01872169 C40.038465,3.78696569 40.2373266,3.55670489 40.2507834,3.2711217 C40.2642402,2.9855385 40.0788354,2.73883051 39.9278202,2.49959851 C39.841222,2.36877335 39.7775145,2.22416744 39.739425,2.07197132 L39.4209474,2.05253372 C39.2968458,2.30671771 39.4209474,2.61024331 39.5704674,2.8509705 C39.7199874,3.0916977 39.9068874,3.3384057 39.8934306,3.62099849 C39.8799738,3.90359129 39.6811122,4.13086168 39.5241162,4.36859848 C39.3671202,4.60633528 39.2519898,4.91733687 39.4074906,5.15058807 C39.5629914,5.38383926 39.8784786,5.40028646 40.1550906,5.39729606 L41.2645289,5.38383926 C41.4578935,5.36512565 41.6527122,5.39923184 41.8282193,5.48252246 C42.0510041,5.61559526 42.1452017,5.89071206 42.1736105,6.14788645 C42.1783284,6.40671259 42.2073632,6.66452239 42.2603321,6.91791444 C42.3350921,7.16462244 42.5429249,7.40086403 42.8015945,7.39637843 C42.8740964,7.38355541 42.9486608,7.38921202 43.0183985,7.41282563 C43.0824451,7.46440715 43.1206923,7.54144784 43.1230625,7.62364883 C43.2008129,8.09015122 43.0572737,8.95587201 43.5462041,9.2160368 C44.0351345,9.4762016 44.7976865,9.2608928 45.1909241,8.94540561 C45.3539009,8.81681841 45.5348201,8.64636561 45.7366721,8.69421201 C45.9385241,8.74205841 46.0252457,8.99325201 46.0701017,9.1995896 L46.2330785,9.93821839 C46.2804282,10.0948227 46.2886426,10.2606508 46.2570017,10.421168 C46.1822417,10.682828 45.9056297,10.8428144 45.8009657,11.094008 C45.6708833,11.408 45.8398409,11.7683432 46.0566449,12.0300032 C46.4518856,12.5045028 46.9982837,12.8286462 47.6041768,12.9480559 C47.7615623,12.9855942 47.925076,12.9896693 48.084136,12.9600175 C48.3411493,12.881676 48.5617326,12.7141175 48.7061392,12.4875343 C48.6244763,12.5441605 48.5333221,12.5856863 48.4370032,12.6101407 Z" id="Path" fill="#000000" opacity="0.1"></path>
                    </g>
                </g>
            </g>
        </g>
    </g>
</svg>