<?xml version="1.0" encoding="UTF-8"?>
<svg width="148px" height="120px" viewBox="0 0 148 120" version="1.1" xmlns="http://www.w3.org/2000/svg" xmlns:xlink="http://www.w3.org/1999/xlink">
    <!-- Generator: Sketch 59.1 (86144) - https://sketch.com -->
    <title>Ilustración 1</title>
    <desc>Created with Sketch.</desc>
    <g id="Page-1" stroke="none" stroke-width="1" fill="none" fill-rule="evenodd">
        <g id="Landing-2.0---verde-Copy-5" transform="translate(-311.000000, -1353.000000)">
            <g id="Ilustración-1" transform="translate(310.000000, 1353.000000)">
                <line x1="17" y1="103.01616" x2="85.8370126" y2="103.11912" id="Path" stroke="#3F3D56" stroke-width="0.624"></line>
                <g id="Reloj" transform="translate(0.932800, 0.000000)">
                    <circle id="Oval" fill="#535461" fill-rule="nonzero" cx="67.0457747" cy="9.04577474" r="9.04577474"></circle>
                    <circle id="Oval" fill="#EDEDF4" fill-rule="nonzero" cx="67.0457747" cy="9.04577474" r="7.67667141"></circle>
                    <line x1="70.3364691" y1="3.28827118" x2="67.0457747" y2="9.04577474" id="Path" stroke="#535461" stroke-width="0.624" stroke-linecap="round"></line>
                    <line x1="67.2032822" y1="9.10635453" x2="70.4721678" y2="10.8268207" id="Path" stroke="#535461" stroke-width="0.624" stroke-linecap="round"></line>
                    <ellipse id="Oval" fill="#56CC7E" fill-rule="nonzero" opacity="0.1" cx="74.0672" cy="93.5" rx="74" ry="26.5"></ellipse>
                </g>
                <g id="Hombre" transform="translate(17.000000, 20.966400)" fill-rule="nonzero">
                    <path d="M24.5729068,24.2656296 C24.5729068,24.2656296 28.7241457,22.2822246 28.6577223,23.9951546 C28.5912989,25.7080846 24.4732697,26.8350253 24.4732697,26.8350253 L24.5729068,24.2656296 Z" id="Path" fill="#FFB9B9"></path>
                    <path d="M22.2953702,38.7591132 C22.2953702,38.7591132 24.2538656,43.5526979 24.977483,47.0117771 C25.7011005,50.4708562 26.8031301,55.2312259 25.3855834,58.607268 C23.9680367,61.9833101 19.937819,71.9056233 19.8963039,72.9762047 C19.8547887,74.0467862 20.2415051,75.1339744 19.3850407,75.100762 C18.5285764,75.0675497 13.8678358,73.600185 13.6786284,72.9495337 C13.4894209,72.2988823 15.268777,70.6523825 15.268777,70.6523825 L19.6625669,56.8842792 L15.0783153,47.9145324 L11.7717124,61.2959234 L11.1240754,77.9969933 C11.1240754,77.9969933 7.94554357,77.0159835 7.48409969,77.8558423 C7.48409969,77.8558423 6.06001298,75.8706745 5.87910828,75.0059061 C5.69820358,74.1411377 6.55165485,57.6624877 6.55165485,57.6624877 C6.55165485,57.6624877 3.63404089,38.8932184 5.98932082,38.9845528 C8.34460075,39.0758873 17.569969,33.4293516 22.2953702,38.7591132 Z" id="Path" fill="#2F2E41"></path>
                    <path d="M19.4182518,74.2442937 C19.4182518,74.2442937 21.5908642,79.0461853 21.7966786,79.2686051 C22.0024929,79.491025 23.4182755,81.6903085 22.3476941,81.6487933 C21.2771127,81.6072782 18.7492321,80.4370596 16.8886098,78.649402 C15.0279875,76.8617445 12.5748346,73.7644801 12.7972544,73.5586672 C13.0196743,73.3528542 14.5433968,72.7686263 14.5433968,72.7686263 L19.4182518,74.2442937 Z" id="Path" fill="#2F2E41"></path>
                    <path d="M10.7373591,76.909801 C10.7373591,76.909801 10.8684445,79.0592666 11.263465,79.9323377 C11.6584854,80.8054089 11.6086675,82.0901061 10.5380861,82.048591 C9.46750467,82.0070758 6.70059877,81.4709044 6.70059877,81.4709044 C6.70059877,81.4709044 6.53630094,80.1779031 6.75871945,79.9720901 C6.98113795,79.7662771 7.92893805,77.4442096 7.52561484,76.7852555 C7.12229164,76.1263014 10.7373591,76.909801 10.7373591,76.909801 Z" id="Path" fill="#2F2E41"></path>
                    <path d="M9.15351976,7.15594821 C9.15351976,7.15594821 6.8712046,10.712895 5.98152788,11.5361483 C5.09185116,12.3594015 7.5948207,14.1719647 7.5948207,14.1719647 L12.0746566,14.7745609 C12.0746566,14.7745609 12.0182987,10.6980482 12.2490213,10.2781195 C12.4797439,9.85819075 9.15351976,7.15594821 9.15351976,7.15594821 Z" id="Path" fill="#FFB9B9"></path>
                    <path d="M13.047365,11.8101475 C13.047365,11.8101475 12.1244759,13.4898664 11.2680102,13.456654 C10.4115445,13.4234416 5.98152788,11.5361483 5.79231502,10.8854956 C5.60310217,10.2348429 4.32495038,15.5462362 4.32495038,15.5462362 L15.1648765,34.6227157 L17.8089997,32.7953058 L16.5278268,21.5948353 L15.4756137,15.5497617 L13.047365,11.8101475 Z" id="Path" fill="#56CC7E"></path>
                    <path d="M5.39249042,28.882805 C5.82489217,29.7873501 6.09495444,30.7306238 6.05750704,31.6962905 C6.05584676,31.7391166 6.05418648,31.7819346 6.05038307,31.8246717 C5.94780297,33.8063949 5.21775884,36.0983076 4.95584557,37.7650599 C4.7657992,38.9606858 4.81988314,39.8334022 5.51957283,40.038522 C7.21589731,40.5331796 5.27224469,40.8866849 11.83512,43.0711257 C18.3979954,45.2555664 19.5433071,43.3700345 19.5599126,42.9418017 C19.5765181,42.5135688 18.6304835,39.2603094 18.852902,39.0545018 C19.0753205,38.8486943 21.9650104,41.7484484 22.8380816,41.3534225 C23.7111528,40.9583967 22.9377175,38.7840269 22.9377175,38.7840269 C22.9377175,38.7840269 20.970918,34.2045605 21.0124331,33.1339737 C21.0539483,32.0633869 18.0331743,27.0141726 18.0331743,27.0141726 L15.9785633,13.6393202 C15.9785633,13.6393202 15.1885224,11.8931778 14.1262437,11.6375469 C13.0639651,11.381916 12.1825938,11.9910481 12.1825938,11.9910481 L13.9601939,15.9198726 L15.8356603,22.8546202 L15.5219074,25.4157171 C15.5219074,25.4157171 13.3409922,20.8279426 11.9086014,19.0568906 C10.4762106,17.2858386 7.4222255,13.0930845 7.4222255,13.0930845 C7.4222255,13.0930845 6.70922658,10.6873096 7.247471,9.96836688 C7.78579634,9.24729447 5.00228493,9.13935453 3.81546081,12.0954679 C3.18643899,13.662204 2.16518456,15.9985802 1.52542823,18.173909 C0.955345767,20.1010397 0.686057664,21.9025986 1.25084367,22.9323662 C2.11405838,24.505506 4.28548124,26.5732631 5.39249042,28.882805 Z" id="Path" fill="#575A89"></path>
                    <path d="M17.1369576,22.4762093 L20.5296066,23.4655232 L25.2401691,23.6481893 L25.7247666,27.7413048 L17.9833577,28.2988698 C17.9833577,28.2988698 16.0497761,22.862927 17.1369576,22.4762093 Z" id="Path" fill="#575A89"></path>
                    <path d="M11.6047778,36.2385536 C11.6047778,36.2385536 16.1434627,36.9915652 15.1075556,38.3573761 C14.0716486,39.723187 10.0509179,38.2872706 10.0509179,38.2872706 L11.6047778,36.2385536 Z" id="Path" fill="#FFB9B9"></path>
                    <path d="M6.05038307,31.8246717 C5.94780297,33.8063949 5.21775884,36.0983076 4.95584557,37.7650599 C6.40170207,39.1334887 7.77662365,40.3404843 8.29478149,40.3605777 C9.3653629,40.4020928 11.0865957,40.2544019 11.7206415,40.4934272 C12.3546873,40.7324526 12.7265622,36.6725455 12.7265622,36.6725455 C12.7265622,36.6725455 12.3481473,35.3712414 10.6601256,34.6624694 C9.52074835,34.1829701 7.33673242,32.8824173 6.05038307,31.8246717 Z" id="Path" fill="#000000" opacity="0.1"></path>
                    <path d="M3.43527905,16.3694894 C3.43527905,16.3694894 -0.188092513,15.8001043 0.00765492315,21.8119668 C0.203402359,27.8238294 -0.374284221,31.6613126 1.08301488,32.7900188 C2.54031398,33.9187249 7.27401798,39.0343654 8.3445994,39.0758805 C9.41518082,39.1173957 11.1364149,38.9697034 11.7704607,39.2087301 C12.4045066,39.4477568 12.7763802,35.3878496 12.7763802,35.3878496 C12.7763802,35.3878496 12.3979639,34.0865443 10.7099449,33.3777695 C9.02192586,32.6689948 5.04504765,30.1559597 5.0782587,29.29949 C5.11146974,28.4430203 6.08417946,25.4786082 6.08417946,25.4786082 C6.08417946,25.4786082 7.43706419,18.2401773 3.43527905,16.3694894 Z" id="Path" fill="#575A89"></path>
                    <circle id="Oval" fill="#FFB9B9" cx="12.3486571" cy="7.7087265" r="4.71409891"></circle>
                    <path d="M15.5227787,0.952051274 C15.6364823,1.05001669 15.7726453,1.11834701 15.9191451,1.15095878 C16.072244,1.17825178 16.2186603,1.07682993 16.2469248,0.923907396 C16.3547798,1.14758157 16.4764673,1.38597169 16.6966725,1.50074293 C16.9168778,1.61551417 17.2573814,1.51927578 17.2891223,1.27299156 C17.3212734,1.45998932 17.4040017,1.63461784 17.5283378,1.77794401 C17.6649638,1.90820942 17.9127249,1.94108733 18.0320049,1.79477882 C17.935571,2.321787 17.9950917,2.86376065 17.9648073,3.39866292 C17.934523,3.9335652 17.7918871,4.50063865 17.3877587,4.85237441 C16.7983827,5.365341 15.9121061,5.23874007 15.1368298,5.14155488 C15.0195898,5.11695168 14.8979418,5.12360621 14.7840852,5.16085111 C14.4937974,5.28452934 14.5069663,5.68862132 14.5030523,6.00413298 C14.4541586,7.14728437 13.5867854,8.08794195 12.4513411,8.22919336 C12.1436194,8.27669098 11.8296295,8.20005975 11.5783859,8.01614311 C11.3582656,7.82956566 11.2458277,7.52546828 10.9935983,7.3853113 C10.5833062,7.15732256 10.0856989,7.48981873 9.78572187,7.85083508 C9.48574485,8.21185143 9.19009723,8.6559345 8.72539078,8.72202076 C8.1107882,8.80941824 7.64267891,8.18306961 7.4130164,7.60633118 C6.77288564,5.97326935 6.81949704,4.15088478 7.54227431,2.55268225 C8.82557959,-0.244721051 13.2093821,-0.687185651 15.5227787,0.952051274 Z" id="Path" fill="#2F2E41"></path>
                </g>
                <g id="Mesa" transform="translate(61.928000, 31.449600)" fill-rule="nonzero">
                    <polygon id="Path" fill="#47465A" points="58.4483664 17.2690727 53.6926237 41.0966673 52.6631327 41.0966673 52.5498533 40.9206518 52.2218748 40.41034 56.3401711 18.1514776 56.9653142 17.8896713"></polygon>
                    <polygon id="Path" fill="#000000" opacity="0.1" points="56.9653142 17.8896713 52.5498533 40.9206518 52.2218748 40.41034 56.3401711 18.1514776"></polygon>
                    <polygon id="Path" fill="#47465A" points="65.6064764 49.725637 64.3837897 50.1197875 64.086625 50.2158866 63.6943588 49.3333708 56.9653142 18.6378478 57.6649424 18.4810078 59.1348046 18.1514776"></polygon>
                    <polygon id="Path" fill="#000000" opacity="0.1" points="64.3837897 50.1197875 64.086625 50.2158866 63.6943588 49.3333708 56.9653142 18.6378478 57.6649424 18.4810078"></polygon>
                    <polygon id="Path" fill="#47465A" points="7.31210556 17.2690727 6.23351206 48.156683 4.99741354 48.4312361 4.90973833 48.450855 4.56646384 47.8135194 5.25290198 17.5631338 5.91329249 17.4690298"></polygon>
                    <polygon id="Path" fill="#000000" opacity="0.1" points="5.91329249 17.4690298 4.99741354 48.4312361 4.90973833 48.450855 4.56646384 47.8135194 5.25290198 17.5631338"></polygon>
                    <polygon id="Path" fill="#47465A" points="13.7347857 59.0900365 12.4561242 59.3106101 12.3129177 59.3351059 11.9207623 58.5016927 5.69415989 18.1514776 5.87361142 18.0970547 6.82185594 17.808314"></polygon>
                    <polygon id="Path" fill="#000000" opacity="0.1" points="12.4561242 59.3106101 12.3129177 59.3351059 11.9207623 58.5016927 5.69415989 18.1514776 5.87361142 18.0970547"></polygon>
                    <path d="M40.7982839,14.7685857 L45.5590344,20.8517677 C45.8908553,21.275761 46.4196013,21.4962522 46.9543471,21.433624 L66.4975946,19.1447757 C67.2754174,19.0536795 67.861802,18.3946116 67.861802,17.6114726 L67.861802,13.1016306 L40.7982839,14.7685857 Z" id="Path" fill="#7A799C"></path>
                    <path d="M56.8304762,15.7491492 L58.1542355,15.7491492 L58.1542355,17.6596585 C58.1542355,17.9313096 57.9340187,18.1515264 57.6623676,18.1515264 L57.3223441,18.1515264 C57.0506929,18.1515264 56.8304762,17.9313096 56.8304762,17.6596585 L56.8304762,15.7491492 Z" id="Path" fill="#47465A"></path>
                    <path d="M5.69415989,18.6418071 L10.4549104,24.7249879 C10.7867312,25.1489815 11.3154771,25.3694731 11.8502232,25.3068454 L31.3934706,23.0179971 C32.1712915,22.9268978 32.7576736,22.2678305 32.7576736,21.4846929 L32.7576736,16.9748508 L5.69415989,18.6418071 Z" id="Path" fill="#7A799C"></path>
                    <path d="M21.7263478,19.6223695 L23.0501071,19.6223695 L23.0501071,21.5328788 C23.0501071,21.8045299 22.8298903,22.0247467 22.5582392,22.0247467 L22.2182212,22.0247467 C21.9465701,22.0247467 21.7263478,21.8045299 21.7263478,21.5328788 L21.7263478,19.6223695 L21.7263478,19.6223695 Z" id="Path" fill="#47465A"></path>
                    <path d="M11.1636908,21.7226818 L69.295274,14.9513768 C69.6703018,14.9076926 69.9722577,14.6231563 70.0381229,14.2513823 C70.1039882,13.8796082 69.9181621,13.5086541 69.5809677,13.3387892 L59.1822246,8.10910488 C57.1340957,7.07906997 54.8343892,6.65540769 52.5536606,6.88796102 L0.908212967,12.1539668 C0.531413923,12.1933824 0.210286775,12.4446825 0.081448016,12.8009573 C-0.0473907432,13.157232 0.0387252391,13.5558025 0.30315981,13.8271058 L6.31729232,19.9974498 C7.57868191,21.2916026 9.36827854,21.9286673 11.1636908,21.7226818 Z" id="Path" fill="#47465A"></path>
                    <path d="M75.6907526,14.0336801 L75.0689348,13.6899622 C75.0689348,13.6899622 74.3976508,14.1841035 73.8507925,16.2658676 C73.3039341,18.3476318 74.8728283,16.2884515 74.8728283,16.2884515 L75.5592221,14.8666367 L75.6907526,14.0336801 Z" id="Path" fill="#47465A"></path>
                    <path d="M69.0384765,33.1050997 C69.0384765,33.1050997 68.401111,36.0958108 68.1069423,36.9292928 C67.9628025,37.3372075 67.2665938,37.7103104 66.4949034,37.9956539 C65.8106744,38.2505436 65.1023472,38.4353457 64.3808058,38.5472207 C63.5473283,38.6452773 52.8591993,36.9783211 47.6622186,35.8506749 C44.1611247,35.0912292 43.7085843,34.2199992 43.7860533,33.7326591 C43.8109827,33.5875743 43.8805701,33.4538867 43.9851104,33.3502411 C43.9851104,33.3502411 49.1330617,29.8692449 50.9471017,28.2022887 C52.7611416,26.5353325 56.3401944,27.8590918 60.262443,28.5454856 C64.1846916,29.2318794 69.0384765,33.1050997 69.0384765,33.1050997 Z" id="Path" fill="#47465A"></path>
                    <path d="M75.0689336,13.6899678 C75.0689336,13.6899678 77.471312,15.2588674 69.3816734,18.4947222 C69.3816734,18.4947222 64.9847229,20.9738535 65.5570957,31.186366 C65.5842272,31.6455922 65.7240518,32.0910666 65.9642145,32.4834271 C66.7988692,33.8562147 68.5874147,37.3313263 65.6065052,37.7627737 L65.6065052,38.5472196 C65.6065052,38.5472196 70.999598,35.8506738 71.5879352,33.5463521 C72.1762725,31.2420303 74.1373962,18.4456939 75.1179586,17.2690228 C76.098521,16.0923516 76.7358899,14.2292767 75.0689336,13.6899678 Z" id="Path" fill="#47465A"></path>
                    <path d="M66.4949034,37.9956539 C65.8106744,38.2505436 65.1023472,38.4353457 64.3808058,38.5472207 C63.5473283,38.6452773 52.8591993,36.9783211 47.6622186,35.8506749 C44.1611247,35.0912292 43.7085843,34.2199992 43.7860533,33.7326591 C46.08743,34.5195602 53.5603028,37.0170523 56.2421401,37.2234614 C59.4289676,37.4686018 65.5172749,38.150092 65.9786327,37.6867767 C66.1561113,37.508315 66.3380036,37.6965806 66.4949034,37.9956539 Z" id="Path" fill="#000000" opacity="0.1"></path>
                    <path d="M38.4939621,58.4036039 L43.1516328,37.1254026 C43.1516328,37.1254026 43.9851115,34.8701103 45.8972069,34.9681658 L47.6622197,35.8506805 C47.6622197,35.8506805 44.7205325,35.1642867 44.0831647,37.419579 C43.445797,39.6748714 39.376468,58.4036039 39.376468,58.4036039 L38.4939621,58.4036039 Z" id="Path" fill="#47465A"></path>
                    <polygon id="Path" fill="#47465A" points="49.6724216 48.6960352 51.5354367 35.703589 52.3689608 35.703589 50.4568432 48.6960352"></polygon>
                    <path d="M67.5186051,61.3943206 L65.7535923,41.0966784 C65.7535923,41.0966784 65.7535923,39.3806939 66.6360993,38.5472163 C67.5186062,37.7137388 70.367554,35.3361412 70.367554,35.3361412 C70.367554,35.3361412 71.0976568,35.1642767 71.685994,36.8312318 C72.2743312,38.4981869 76.3436647,55.1677458 76.3436647,55.1677458 L75.5592154,55.5109427 L70.5093196,36.2919273 L67.0283234,39.5768103 C67.0283234,39.5768103 66.3419307,40.8025131 66.6851264,41.9301593 C67.0283222,43.0578054 68.3030544,61.3943206 68.3030544,61.3943206 L67.5186051,61.3943206 Z" id="Path" fill="#47465A"></path>
                    <polygon id="Path" fill="#47465A" points="62.076524 38.0569645 66.4889922 39.3316357 67.4696023 38.4001281 64.9201491 38.0569645"></polygon>
                    <path d="M22.8494328,2.2715376 L23.5649024,13.003574 L39.2048695,11.4837026 L38.5825208,0.992672201 C38.5656819,0.708815677 38.4349869,0.443771134 38.2200511,0.257597379 C38.0051153,0.071423625 37.724135,-0.0201179795 37.44078,0.00371579438 L23.8138102,1.14990899 C23.2402257,1.19815474 22.8111439,1.69720243 22.8494328,2.2715376 Z" id="Path" fill="#7A799C"></path>
                    <polygon id="Path" fill="#7A799C" points="44.4509251 14.5724226 28.8599231 16.2732774 28.2715792 16.3374543 23.712025 13.3958457 23.712025 12.7583993 39.2048219 11.3631331"></polygon>
                    <polygon id="Path" fill="#000000" opacity="0.1" points="28.8599231 16.2732774 28.2715792 16.3374543 23.712025 13.3958457 23.712025 12.8251256"></polygon>
                    <polygon id="Path" fill="#9493B6" points="23.9081027 2.16832027 24.4474548 11.7287975 38.1753309 10.4541263 37.6849705 1.13871848"></polygon>
                    <polygon id="Path" fill="#000000" opacity="0.1" points="32.0958144 14.376345 33.7627518 15.504041 38.8126665 15.0136805 37.0966266 13.935087"></polygon>
                    <polygon id="Path" fill="#9493B6" points="25.2808681 13.0035795 27.3890634 14.5724226 40.8718701 13.2977515 38.4695029 11.7287975"></polygon>
                </g>
                <g id="Móvil" transform="translate(42.459200, 38.937600)" fill-rule="nonzero">
                    <path d="M0.315672508,0.712449035 L0.315672508,0.712449035 L3.31865341,0.0169629605 C3.61712425,-0.0521626188 3.92365361,0.0947528054 4.05672948,0.37071295 L7.13280145,6.74957991 C7.20071766,6.89041908 7.20292715,7.05407177 7.13883795,7.19669315 C7.07474876,7.33931453 6.95091189,7.44632628 6.80050496,7.48905847 L3.74864478,8.35612445 C3.41059836,8.45216703 3.05376136,8.28254991 2.91479713,7.95976748 L0.952028772,3.40072761 L0.892232387,3.43385253 L0.518662072,2.57010386 L0.580759625,2.53835879 L0.0328822538,1.26576656 C-0.014628898,1.15540795 -0.010480033,1.02961565 0.0441996219,0.922627482 C0.0988792768,0.815639314 0.198399267,0.73858942 0.315672508,0.712449035 L0.315672508,0.712449035 Z" id="Path" fill="#3F3D56" transform="translate(3.592685, 4.191436) scale(-1, 1) translate(-3.592685, -4.191436) "></path>
                    <path d="M2.95691868,0.253609574 L3.30745751,0.172424787 C3.51486833,0.124389327 3.72773158,0.227320238 3.81887709,0.419723851 L6.82132869,6.75778542 C6.85630982,6.83162791 6.85736605,6.9170505 6.82422142,6.99173535 C6.79107679,7.0664202 6.72702401,7.12294785 6.64879775,7.14654967 L3.6184038,8.06087307 C3.44140526,8.11427837 3.25252171,8.02628153 3.17954034,7.85641591 L0.3387974,1.24459327 C0.301576522,1.15796005 0.304682244,1.0592828 0.347277366,0.975161672 C0.389872487,0.891040541 0.467572515,0.830134466 0.559432077,0.808861718 L0.891971984,0.73184479 C0.958143437,0.716520799 1.02636482,0.747505992 1.05836506,0.807418182 L1.05836506,0.807418182 C1.08661471,0.860313813 1.14684698,0.887668429 1.20526615,0.874133636 L2.78395751,0.508511265 C2.89935346,0.481782317 2.97471652,0.370715928 2.95691868,0.253609574 Z" id="Path" fill="#A3C5F5" transform="translate(3.580646, 4.118564) scale(-1, 1) translate(-3.580646, -4.118564) "></path>
                </g>
            </g>
        </g>
    </g>
</svg>