<svg xmlns="http://www.w3.org/2000/svg" viewBox="0 0 772.33 621.41"><defs><style>.cls-1{fill:#f2f2f2;}.cls-2{fill:#3f3d56;}.cls-3{fill:#a0616a;}.cls-4{fill:#56cc7e;}.cls-5{fill:#2f2e41;}.cls-6{fill:#a3c5f5;}.cls-7{fill:#d0cde1;}.cls-8{fill:none;stroke:#3f3d56;stroke-width:0.5px;}.cls-9{fill:#ffb9b9;}.cls-10{opacity:0.15;isolation:isolate;}</style></defs><title>Recurso 1</title><g id="Capa_2" data-name="Capa 2"><g id="b1dd317e-8fb9-42d0-9880-4f9abd167789"><path id="Path-Copy-2" class="cls-1" d="M328.57,23.88C297.17,10.15,264-1.32,230.13.12c-49.79,2.12-97.59,34.34-121,81.64-19.86,40.09-22.31,87.07-30.87,131.55C67.73,268.11,47.53,320.2,26,371.13,14.38,398.49,2.15,426.44.25,456.43c-2.64,41.64,15.86,83.13,44.88,110.83s67.55,42.31,106.22,45.5c20.58,1.69,42.09.12,60.37-10.18,19.34-10.91,33.44-30.61,52.86-41.36,18-10,39-11.35,59.24-10.06a249.29,249.29,0,0,1,77.35,17.7c28.24,11.4,54.5,27.92,82.64,39.49s59.65,18,88.45,8.37c27.07-9.07,48.44-31.09,67.71-53.38a925.86,925.86,0,0,0,86.35-117.47c17.39-28,33.58-57.59,41.27-90.25,14.7-62.45-5.53-132.9-50.41-175.54-37.17-35.34-87.07-50.67-135.91-60-44.54-8.48-96-9-137-31.13C405.14,67.85,369.57,41.82,328.57,23.88Z"/><path id="Rectangle" class="cls-2" d="M179.38,35H463.07A6.91,6.91,0,0,1,470,42l-1.61,357a6.92,6.92,0,0,1-6.91,6.89H179.38a6.92,6.92,0,0,1-6.92-6.92V41.92A6.91,6.91,0,0,1,179.38,35Z"/><rect class="cls-1" x="190.62" y="76.07" width="260.92" height="303.49"/><path id="Path" class="cls-2" d="M149.07,385c7.93,14.71,24.77,21,24.77,21s4-17.53-4-32.24-24.76-21-24.76-21S141.14,370.33,149.07,385Z"/><rect class="cls-2" x="278.87" y="104.31" width="158.25" height="6.38"/><rect class="cls-2" x="278.87" y="118.34" width="158.25" height="6.38"/><rect class="cls-2" x="278.87" y="132.38" width="53.6" height="6.38"/><rect class="cls-2" x="241.79" y="182.58" width="158.25" height="6.38"/><rect class="cls-2" x="241.79" y="196.62" width="158.25" height="6.38"/><rect class="cls-2" x="241.79" y="210.35" width="158.25" height="6.38"/><rect class="cls-2" x="241.79" y="224.09" width="158.25" height="6.38"/><rect class="cls-2" x="241.79" y="237.82" width="158.25" height="6.38"/><rect class="cls-2" x="241.79" y="251.55" width="158.25" height="6.38"/><rect class="cls-2" x="241.79" y="265.28" width="158.25" height="6.38"/><rect class="cls-2" x="241.79" y="279.02" width="158.25" height="6.38"/><rect class="cls-2" x="242.06" y="322.42" width="158.25" height="6.38"/><rect class="cls-2" x="242.06" y="336.15" width="158.25" height="6.38"/><rect class="cls-2" x="242.06" y="349.89" width="158.25" height="6.38"/><path class="cls-3" d="M456.92,547.32s1.36,13.6,3.63,18.14c0,0-13.6,3.17-14.06.45s.46-13.15.46-13.15Z"/><path class="cls-3" d="M388.9,554.12s1.36,13.61,3.63,18.14c0,0-13.6,3.18-14.06.45s.91-17.23.91-17.23Z"/><path class="cls-3" d="M486.06,342.17S496.4,376.62,490,383s-21.65,28.05-21.65,28.05l-4.93-8.37s17.23-24.11,15.26-29.53S471.79,353,471.79,353,480.16,340.2,486.06,342.17Z"/><circle id="Oval" class="cls-3" cx="437.83" cy="280.65" r="19.69"/><path class="cls-3" d="M455.55,283.11s7.87,21.16,12.3,23.13,12.31,11.32,12.31,11.32,1,24.61-4.43,24.61-35.44-34.95-35.44-34.95,1.48-6.89-1.47-10.82S455.55,283.11,455.55,283.11Z"/><path class="cls-4" d="M462.93,380.06V386s8.86,15.26,9.35,42.82L476.71,478s23.13,37.41,19.69,59.06l.49,8.37-11.81,3.94-3.94-6.89s-3.94-.5-7.38-11.32L452.6,483.42l-12.8-38.88-7.87,50.69s3.44,46.75-5.42,48.23v7.38l-16.24.49v-6.89s-5.41,2-4.92-6.39,0-44.79,0-44.79l-3-62.5s-6.54-29.28-3-35.07l19.27-32.36Z"/><path class="cls-5" d="M457.83,564.55s4.53-1.81,5.44.46,7.26,14.51,0,15.41a40.35,40.35,0,0,1-11.79,0s-5.89-.9-8.16-.45-11.34-.91-10.43-7.71,6.8-5.89,6.8-5.89,5.9-3.63,5.9-5,2.26,2.27,2.26,2.27S449.67,566.82,457.83,564.55Z"/><path class="cls-5" d="M389.81,571.35s4.53-1.81,5.44.46,7.26,14.51,0,15.42a40.76,40.76,0,0,1-11.79,0s-5.89-.91-8.16-.46-11.34-.9-10.43-7.71,6.8-5.89,6.8-5.89,5.9-3.63,5.9-5,2.26,2.27,2.26,2.27S381.65,573.62,389.81,571.35Z"/><path class="cls-6" d="M470.31,332.82s16.74-3.83,0-25.05c0,0,13.29,3.88,14.77,14.22s2,23.13,2,23.13-8.37-2.46-12.8,8.86-10.83,17.22-8.86,29l-49.21-18.21s6.89-14.28,3.44-20.67,1-18.21,1-18.21,13.28-32,25.59-19.2S457.52,329.86,470.31,332.82Z"/><path class="cls-3" d="M441.28,330.85s-2,32.48-7.39,38.39-27.06,30.51-27.06,30.51l-1,5.91-4.92,3.44s-4.92-11.81.49-16.73l18.7-33.47,4.43-31.5Z"/><path class="cls-6" d="M426,305.26s11.47-6.64,14.6-.61,1.64,30.13,1.64,30.13l-20.67-2.46S423.07,305.75,426,305.26Z"/><path class="cls-5" d="M415.26,279.46c-3.64-4.36-.61-4.37-.61-4.37.25,1.57,1.87,3.51,3.5,5.13a42.9,42.9,0,0,0,3.67,3.2l-.34-1.2,3.2,2.11c1.06,9.66,6.52,8.3,6.52,8.3-4.5-2.82-3.26-7.51-2.63-9.86s4.83-1.85,5.08,5,4.9,8.58,4.9,8.58l.9,3.9.78,3.41,2.13-3.86,1-1.81a6.51,6.51,0,0,0,7.47-5.62,32.75,32.75,0,0,0,4.36-2.46c10.46-7,6.95-15.08,4.43-18.78a16.19,16.19,0,0,0-1.64-2.05l.44.08c20.06,3.76,9.89-7.83,9.89-7.83l5,2.45,9.44,1.17-7.63-6.89c5.46-.3,10.94,8.22,11.11,8.48-3.39-10.28-10-9.23-10-9.23l2-.58-3.5-1.59,4.06.56s-1.14-1-2.92-2.62-10.18-2.26-10.18-2.26c8.57-3.34,17,3.33,17,3.33-4.63-10.5-16-6.77-21.65-4.1l-2.76.32a23.55,23.55,0,0,0,.09-3.94c-.07-4.62-5.54,3.44-5.81,3.84,0-.06-.29-.38-4-1.86-4.35-1.74-2.49,7.8-2.44,8.06h0s0,.07-.32,0a78.16,78.16,0,0,1-9.32-2.65c-5.63-1.79-9.12.06-11.1,2a28.09,28.09,0,0,1-9.09,6.18c-1.09.46-2.08.83-2.72,1-2.39.69-3.65,2.35-6,7.79S415,279.37,415.26,279.46Z"/><path class="cls-7" d="M445.79,256.5c2.31,3.28,9,12.37,13.83,14.64a16.19,16.19,0,0,0-1.64-2.05l.44.08-12.31-12.68h0Z"/><line class="cls-8" x1="59.32" y1="581.21" x2="518.35" y2="581.21"/><polygon class="cls-9" points="125.12 552.25 120.65 566.46 134.46 567.67 133.24 552.25 125.12 552.25"/><polygon class="cls-9" points="192.11 563.21 192.11 582.7 207.94 582.7 203.48 563.21 192.11 563.21"/><path class="cls-4" d="M147.25,404.46l-7.05,67s-8.81,59-7,68.3-.44,10.57-.44,10.57h13.22s-.44-5.73,2.2-8.37,1.32-10.58,1.32-10.58l33.49-102.22,18.95,57.28s3.08,63,3.52,63.89,1.77,12.78,1.77,12.78h16.3s-2.2-7.05.88-9.25,5.73-.44,3.09-4.41-3.53-8.81-2.65-11,.88-11,.88-11-1.32-119-8.81-122.94S147.25,404.46,147.25,404.46Z"/><path class="cls-5" d="M196.4,572.37s-6.94-1-6.94-.7-8.33,22.91,0,22.57,39.91-4.86,37.83-13.19-12.5-5.91-12.5-5.91l-9.37-5.2Z"/><path class="cls-5" d="M128.05,565.18s6.94-1,6.94-.7,8.33,22.91,0,22.57-39.92-4.86-37.84-13.19,12.5-5.9,12.5-5.9l9.37-5.21Z"/><circle class="cls-9" cx="183.5" cy="261.24" r="17.34"/><path class="cls-9" d="M169.72,259.05s-3.08,30.84-7.05,33.05,30.41,4.4,30.41,4.4-8.38-28.2-5.73-30.84S169.72,259.05,169.72,259.05Z"/><path class="cls-6" d="M206.74,291.22s-12.34-11.9-26.44-9.7-24.24,4.85-24.24,4.85-21.59,11.46-22,20.71S142,351.14,142,351.14s4,56.84,4.41,56.84l74.47-.88-13.66-74Z"/><path class="cls-9" d="M203.85,397.25c-2.85.77-7.77-.3-12.91-2a160.55,160.55,0,0,1-19-8s-31.72-12.78-41-19.39-3.09-33.05-3.09-33.05l14.1,4.41-.88,16.3L175.89,378A78.27,78.27,0,0,1,192,381.26c5.87,1.93,11.56,4.93,13.62,9.54a8.89,8.89,0,0,1,.67,2.2C206.71,395.44,205.73,396.74,203.85,397.25Z"/><path class="cls-10" d="M205.62,390.8c-.62,2.28-1.21,4.45-1.77,6.45-2.85.77-7.77-.3-12.91-2l1.06-14C197.87,383.19,203.56,386.19,205.62,390.8Z"/><path class="cls-9" d="M199.24,326.47l-2.64,23.35-4.38,57.62s-24.26,29.19-10.6,30.07,21.15-28.64,21.15-28.64,13.66-46.71,13.22-56.41,0-26,0-26Z"/><path class="cls-5" d="M203.08,259.31a4.52,4.52,0,0,0,1.25-.75c.95-.92.79-2.48.38-3.73s-1-2.55-.72-3.84c.14-.6.46-1.14.56-1.75.22-1.45-.93-2.76-2.21-3.48s-2.74-1.06-4-1.89c-1.85-1.26-2.87-3.5-4.75-4.72s-4.17-1.24-6.36-1.24h-6.54c-3.42,0-7.18.13-9.73,2.41-.77.7-1.38,1.56-2.17,2.24-1.58,1.38-3.71,1.93-5.46,3.08a9.49,9.49,0,0,0-4.21,8c.06,2.9,1.48,5.72,1.11,8.6-.25,1.94-1.29,3.79-1,5.72.33,2.29,2.43,3.93,4.58,4.77s4.5,1.14,6.59,2.12c1.71.8,3.5,2.07,5.3,1.51,1.52-.47,2.36-2.08,2.91-3.58a29.45,29.45,0,0,0,1.4-5.41,9.09,9.09,0,0,1,1.17-4,4.59,4.59,0,0,1,4.1-1.77c3.53.31,5.52,6.33,8.77,4.91,1.61-.71,2.85-2.82,4.14-4A20.85,20.85,0,0,1,203.08,259.31Z"/><path class="cls-6" d="M139.32,303.11s-8.81,3.09-12.34,15.43-2.2,20.71-2.2,20.71l18.5,3.08Z"/><path class="cls-6" d="M197.92,290.34s15.87-3.53,18.07,11.45a239.74,239.74,0,0,1,2.2,30.41s-15-7.05-21.59,0Z"/><rect class="cls-4" x="233.14" y="104.97" width="33.13" height="33.13"/><rect x="247.5" y="110.24" width="4.41" height="4.41"/><rect x="247.5" y="128.42" width="4.41" height="4.41"/></g></g></svg>