<svg xmlns="http://www.w3.org/2000/svg" viewBox="0 0 917.87 614.93"><defs><style>.cls-1{fill:#f2f2f2;}.cls-2{fill:#a3c5f5;}.cls-3{fill:#3f3d56;}.cls-4{fill:#fff;}.cls-5{fill:#56cc7e;}</style></defs><title>Recurso 2</title><g id="Capa_2" data-name="Capa 2"><g id="b1dd317e-8fb9-42d0-9880-4f9abd167789"><path id="Oval-Copy-5" class="cls-1" d="M448,232.19c246.72,0,557.66,3.71,446.72,173.62S632.78,471.2,448,579.43C271.72,650,21.29,626.74,1.29,405.81S197.38,331.81,448,232.19Z"/><rect id="Rectangle" class="cls-2" x="135.61" y="22.4" width="696.58" height="386.99"/><rect class="cls-3" x="136.63" width="694.54" height="34.63"/><rect class="cls-4" x="188.57" y="88.6" width="126.28" height="89.62"/><rect class="cls-3" x="430.94" y="88.6" width="348.29" height="10.18"/><rect class="cls-3" x="430.94" y="129.33" width="348.29" height="10.18"/><rect class="cls-3" x="430.94" y="170.07" width="348.29" height="10.18"/><circle id="Oval" class="cls-5" cx="251.71" cy="134.43" r="40.74"/><circle class="cls-5" cx="798.87" cy="396" r="89.73"/><path id="Path" class="cls-2" d="M799.24,423l-44.9-44.91a7.8,7.8,0,0,1,11-11L798.5,400.2,904.2,279.67A7.8,7.8,0,1,1,915.93,290Z"/><path class="cls-5" d="M877.16,327.05c7.72,0,7.73-12,0-12s-7.73,12,0,12Z"/></g></g></svg>