<svg xmlns="http://www.w3.org/2000/svg" xmlns:xlink="http://www.w3.org/1999/xlink" viewBox="0 0 698.83 544.47"><defs><style>.cls-1{fill:#fff;fill-rule:evenodd;}.cls-2{fill:none;}.cls-3{fill:#f2f2f2;}.cls-4{fill:#56cc7e;}.cls-5{mask:url(#mask);}.cls-6{fill:#a3c5f5;}.cls-7{fill:#3f3d56;}.cls-8{clip-path:url(#clip-path);}</style><mask id="mask" x="241.8" y="0" width="220.54" height="483.6" maskUnits="userSpaceOnUse"><g id="mask-2"><path id="path-1" class="cls-1" d="M462.34,19.94V463.67a20,20,0,0,1-20,19.93H261.78a19.94,19.94,0,0,1-20-19.93V19.94A20,20,0,0,1,261.78,0h27V3.46a16.44,16.44,0,0,0,16.46,16.42H397.1A16.44,16.44,0,0,0,413.56,3.46V0h28.8a20,20,0,0,1,20,19.94Z"/></g></mask><clipPath id="clip-path"><path class="cls-2" d="M294,98.58h-5.27v40.17h-2.29L271.34,98.58H259.77v45.21H265V103.62h2.86L283,143.79h11Zm45.21,0H333.4V131q0,5-2.52,7.3c-1.68,1.54-4.38,2.3-8.09,2.3s-6.41-.75-8.09-2.27-2.52-4-2.52-7.33V98.58h-5.83v30.84q0,7.47,4.5,11.94t11.94,4.48q7.44,0,11.94-4.48t4.5-11.94Zm9.59,13.7v7.53h7.53v-7.53Zm0,26v7.53h7.53v-7.53Zm52.74-39.73h-5.27v40.17H394L378.88,98.58H367.31v45.21h5.21V103.62h2.86l15.12,40.17h11.06Zm40.79,29q-.12,6.41-3.17,9.76a10.55,10.55,0,0,1-8.23,3.37q-5.93,0-9-3.69t-3.11-10.92v-7.62q0-7.23,3.11-11t9-3.71a10.58,10.58,0,0,1,8.23,3.36q3,3.36,3.17,9.77h6.47a22.44,22.44,0,0,0-6.1-13.13A15.93,15.93,0,0,0,431,98.58q-7.89,0-13.16,6.82t-5.27,16.81q0,10,5.27,16.81T431,145.84a16,16,0,0,0,11.77-5.18,22.47,22.47,0,0,0,6.1-13.13Z"/></clipPath></defs><title>Recurso 3</title><g id="Capa_2" data-name="Capa 2"><g id="b1dd317e-8fb9-42d0-9880-4f9abd167789"><g id="mask-2-2" data-name="mask-2"><path id="path-1-2" data-name="path-1" class="cls-1" d="M462.34,19.94V463.67a20,20,0,0,1-20,19.93H261.78a19.94,19.94,0,0,1-20-19.93V19.94A20,20,0,0,1,261.78,0h27V3.46a16.44,16.44,0,0,0,16.46,16.42H397.1A16.44,16.44,0,0,0,413.56,3.46V0h28.8a20,20,0,0,1,20,19.94Z"/></g><g id="Page-1"><g id="Landing-2.0---verde-Copy-5"><g id="Ilustración-7"><path id="Path" class="cls-3" d="M22.76,248.77c-18,17.8-22.5,40.36-22.75,62C-.17,326,2.3,342.55,17.34,353.8,37.15,368.6,75.17,371.51,85,390.43c8.7,16.8-11.55,33.71-31,45.57S12.2,462.38,15.84,480c2.3,11.27,14.93,20.12,27.52,27.56,24,14.15,50.87,26.54,81.21,32.57,55.06,10.92,114.52-.39,166.11-17.5,31.76-10.54,68.63-23.47,100.16-12.63,8.33,2.86,15.4,7.18,23.07,10.76C436.23,531.14,463.49,535,490,538.19q6.86.84,13.78,1.63c34.66,3.89,70.38,6.09,103.44-1.48,37.47-8.58,69.85-33.68,64.11-60.45-5.41-25.21-39.83-41.65-67.27-58.87-9.68-6.08-19.53-14.13-17.12-23,1.92-7,10.92-11.89,19-16.43,42.27-24,73.33-57.08,87.62-93.38,6.74-17.12,9.18-36.86-5.87-51.3-12.14-11.65-32.95-17.25-52.74-21.85-36.72-8.55-74.36-15.77-113-17.72s-78.52,1.77-112.81,14.1c-16.45,5.92-31.35,13.71-47.95,19.41-47.15,16.18-102.7,14-155.28,11.45-18.78-.91-38.42-2.53-54.73-9.48-14-6-22.09-10.28-39.49-10.95C77.58,218.59,42.29,229.39,22.76,248.77Z"/><path class="cls-4" d="M462.34,19.94V463.67a20,20,0,0,1-20,19.93H261.78a19.94,19.94,0,0,1-20-19.93V19.94A20,20,0,0,1,261.78,0h27V3.46a16.44,16.44,0,0,0,16.46,16.42H397.1A16.44,16.44,0,0,0,413.56,3.46V0h28.8a20,20,0,0,1,20,19.94Z"/><g class="cls-5"><g id="Group-8"><circle id="Oval" class="cls-6" cx="345.69" cy="325.1" r="42.78"/><path class="cls-7" d="M345.87,338l-21.41-21.41a3.72,3.72,0,0,1,5.26-5.26l15.8,15.79,50.39-57.46a3.72,3.72,0,1,1,5.59,4.9Z"/></g></g></g></g><g class="cls-8"><rect x="256.35" y="95.16" width="195.9" height="54.11"/></g></g></g></g></svg>