<?xml version="1.0" encoding="UTF-8"?>
<svg width="158px" height="96px" viewBox="0 0 158 96" version="1.1" xmlns="http://www.w3.org/2000/svg" xmlns:xlink="http://www.w3.org/1999/xlink">
    <!-- Generator: Sketch 59.1 (86144) - https://sketch.com -->
    <title>Ilustración 4</title>
    <desc>Created with Sketch.</desc>
    <g id="Page-1" stroke="none" stroke-width="1" fill="none" fill-rule="evenodd">
        <g id="Landing-2.0---verde-Copy-5" transform="translate(-949.000000, -1792.000000)" fill-rule="nonzero">
            <g id="Ilustración-4" transform="translate(949.000000, 1792.000000)">
                <g id="Group-3" transform="translate(17.000000, 0.000000)">
                    <path d="M124.578815,28.4995066 C123.712513,27.9698602 122.73558,28.7032226 122.411935,29.5165482 C122.004622,30.5401275 122.68439,31.6283671 123.228905,32.4567432 C123.847728,33.398166 124.412657,34.3782834 124.634168,35.4950649 C124.825421,36.4592966 124.713042,37.5144834 124.180315,38.3573194 C123.113437,40.0452506 120.751348,40.05362 118.978246,40.0328022 C118.115876,40.0226773 117.162487,39.9635151 116.419677,39.4792359 C115.705777,39.0144053 115.421964,38.1117224 115.74225,37.3246416 C116.054596,36.5204192 116.906838,36.1731868 117.726855,36.2841252 C118.633099,36.4067288 119.380795,36.974132 119.848259,37.7392873 C120.387346,38.6216783 120.594547,39.6700323 120.718693,40.6825471 C120.781164,41.192049 120.847937,41.7735461 120.587949,42.2424369 C120.390249,42.5989923 120.033013,42.8310434 119.657069,42.9705404 C119.204092,43.1246886 118.733089,43.2202309 118.25564,43.2548185 C117.654808,43.3134013 117.051329,43.3409326 116.447632,43.3373017 C115.244449,43.3206933 114.043198,43.2357269 112.849743,43.0828171 C110.439461,42.7990438 108.029906,42.3817113 105.594614,42.4252755 C104.998173,42.4332889 104.402679,42.4752275 103.811046,42.5508863 C103.269053,42.6227055 102.710239,42.7475069 102.26123,43.0756164 C101.458274,43.6623706 101.167461,44.6331259 100.955055,45.5573779 C100.719156,46.5838609 100.46857,47.5971783 99.9357918,48.5183673 C99.4244431,49.4025017 98.6671713,50.1774783 97.6992962,50.5559709 C97.245922,50.737599 96.75849,50.8195988 96.2703407,50.7963615 C95.9093651,50.7774156 95.9104081,51.3362371 96.2703407,51.3551281 C97.3711341,51.4129017 98.4316096,50.9517601 99.2526121,50.2424377 C100.112309,49.4996843 100.675712,48.4732656 101.043757,47.4140249 C101.213127,46.9008262 101.353308,46.3785326 101.463634,45.8496286 C101.567845,45.3868973 101.672537,44.912525 101.865591,44.4768548 C102.049964,44.0607749 102.316069,43.6796812 102.71611,43.445532 C103.195013,43.1652174 103.774457,43.103741 104.317196,43.0532239 C106.813543,42.8208701 109.311217,43.1920513 111.78245,43.5093096 C113.022587,43.6685199 114.265868,43.8168714 115.515733,43.872925 C116.707351,43.9263664 117.940691,43.9220481 119.116141,43.6966277 C120.089311,43.5099997 121.080018,43.0042582 121.281081,41.9476773 C121.390135,41.374598 121.300991,40.7879127 121.217576,40.2174466 C121.144989,39.6782577 121.025813,39.1463079 120.861373,38.6275137 C120.535576,37.6392495 119.966771,36.691696 119.041056,36.1597121 C118.221421,35.6886887 117.1793,35.5338312 116.304898,35.94746 C115.405155,36.3730762 114.942342,37.3902938 115.075761,38.3514412 C115.21257,39.3369963 115.983261,40.0136458 116.895209,40.3151069 C117.813927,40.6188067 118.820082,40.6057986 119.776653,40.5865156 C120.790348,40.5660806 121.846274,40.4968401 122.798666,40.1220484 C123.795338,39.7298315 124.571978,39.0189334 124.975202,38.0218592 C125.390644,36.9945773 125.352633,35.8332118 125.034504,34.7858561 C124.855639,34.2154427 124.615526,33.6658872 124.318326,33.1467146 C124.036164,32.6440566 123.698936,32.1768291 123.400505,31.6842727 C123.127241,31.233255 122.8749,30.7368701 122.857202,30.1996682 C122.850343,29.7790906 123.039203,29.3789851 123.368811,29.1158074 C123.649413,28.8846261 123.989852,28.795095 124.295525,28.9819828 C124.604171,29.1706848 124.886437,28.6875799 124.578815,28.4995047 L124.578815,28.4995066 Z" id="Path" fill="#3F3D56"></path>
                    <g id="undraw_dashboard_nklg">
                        <ellipse id="Oval" fill="#56CC7E" opacity="0.1" cx="49.303296" cy="83.19168" rx="33.405696" ry="1.490688"></ellipse>
                        <path d="M69.130368,80.569728 L69.130368,81.470592 L42.490368,81.470592 L42.490368,80.739072 C45.812887,79.5081195 48.0659194,76.3959476 48.1978434,72.8551889 C48.3297673,69.3144301 46.3145709,66.0432297 43.092864,64.568448 L68.949504,64.568448 C65.8031731,66.0090336 63.8005467,69.1676425 63.839658,72.6278672 C63.8787692,76.088092 65.9522789,79.200628 69.130368,80.569728 L69.130368,80.569728 Z" id="Path" fill="#C8CAD7"></path>
                        <path d="M68.949504,64.568448 C66.5428076,65.673436 64.7644839,67.8070009 64.111104,70.373376 L47.932416,70.373376 C47.2787327,67.8071559 45.5005054,65.6737065 43.094016,64.568448 L68.949504,64.568448 Z" id="Path" fill="#000000" opacity="0.1"></path>
                        <path d="M11.9808,59.97888 L11.9808,65.03616 C11.9808,67.828608 14.024448,70.092288 16.546176,70.092288 L94.93056,70.092288 C97.452288,70.092288 99.495936,67.828608 99.495936,65.03616 L99.495936,59.97888 L11.9808,59.97888 Z" id="Path" fill="#C8CAD7"></path>
                        <path d="M69.130368,80.569728 L69.130368,81.470592 L42.490368,81.470592 L42.490368,80.739072 C43.2206922,80.4673056 43.911466,80.0992545 44.544384,79.644672 L67.496832,79.644672 C68.0068029,80.0103868 68.5544301,80.3205029 69.130368,80.569728 L69.130368,80.569728 Z" id="Path" fill="#000000" opacity="0.1"></path>
                        <rect id="Rectangle" fill="#C8CAD7" x="33.686784" y="79.92576" width="44.247168" height="2.669184" rx="1.0944"></rect>
                        <path d="M99.495936,4.564224 C99.4927572,2.04527257 97.4495134,0.00512221599 94.93056,0.00575761939 L16.549632,0.00575761939 C14.0293295,0.00321351839 11.9839793,2.04392224 11.9808,4.564224 L11.9808,60.962688 L99.495936,60.962688 L99.495936,4.564224 Z" id="Path" fill="#474157"></path>
                        <path d="M97.1136003,6.60096 L97.1136003,55.062144 C97.1136003,55.6583256 96.877209,56.2301769 96.455645,56.651741 C96.0340809,57.073305 95.4622296,57.3096963 94.866048,57.3096963 L16.619904,57.3096963 C16.0237224,57.3096963 15.4518711,57.073305 15.030307,56.651741 C14.608743,56.2301769 14.3723517,55.6583256 14.3723517,55.062144 L14.3723517,6.60096 C14.3723517,5.35967131 15.3786153,4.35340061 16.619904,4.35340061 L94.860288,4.35340061 C95.4573732,4.35187779 96.0305277,4.58799707 96.4532721,5.0096608 C96.8760165,5.43132453 97.1136003,6.00387282 97.1136003,6.60096 Z" id="Path" fill="#FFFFFF"></path>
                        <circle id="Oval" fill="#FFFFFF" cx="55.73952" cy="2.176128" r="1.05408"></circle>
                        <circle id="Oval" fill="#FFFFFF" cx="55.73952" cy="65.246976" r="2.598912"></circle>
                        <path d="M31.856256,5.47776 L31.856256,57.3096963 L16.619904,57.3096963 C16.0237224,57.3096963 15.4518711,57.073305 15.030307,56.651741 C14.608743,56.2301769 14.3720462,55.6583256 14.3723517,55.062144 L14.3723517,6.60096 L14.454144,6.29568 L14.673024,5.47776 L31.856256,5.47776 Z" id="Path" fill="#56CC7E"></path>
                        <polygon id="Path" fill="#4C4C78" points="33.8112 6.29568 33.8112 10.96128 14.372352 10.96128 14.372352 6.60096 14.454144 6.29568"></polygon>
                        <path d="M97.1136,6.60096 L14.372352,6.60096 C14.372352,6.00497803 14.6091837,5.43342275 15.0307146,5.01210789 C15.4522455,4.59079304 16.0239221,4.35425437 16.619904,4.35454935 L94.860288,4.35454935 C95.457267,4.35272313 96.030425,4.58858559 96.4532028,5.01006656 C96.8759806,5.43154754 97.1136,6.00397816 97.1136,6.60096 Z" id="Path" fill="#C8CAD7"></path>
                        <circle id="Oval" fill="#EDEDF4" cx="16.619904" cy="5.47776" r="1"></circle>
                        <circle id="Oval" fill="#EDEDF4" cx="18.30528" cy="5.47776" r="1"></circle>
                        <circle id="Oval" fill="#EDEDF4" cx="19.990656" cy="5.47776" r="1"></circle>
                        <rect id="Rectangle" fill="#A3C5F5" x="17.277696" y="8.349696" width="11.673216" height="1.074816"></rect>
                        <rect id="Rectangle" fill="#FFFFFF" opacity="0.5" x="17.277696" y="13.591296" width="11.673216" height="1.074816"></rect>
                        <rect id="Rectangle" fill="#FFFFFF" opacity="0.5" x="17.277696" y="17.29728" width="11.673216" height="1.074816"></rect>
                        <rect id="Rectangle" fill="#FFFFFF" opacity="0.5" x="17.277696" y="21.003264" width="11.673216" height="1.074816"></rect>
                        <rect id="Rectangle" fill="#FFFFFF" opacity="0.5" x="17.277696" y="24.708096" width="11.673216" height="1.074816"></rect>
                        <rect id="Rectangle" fill="#FFFFFF" opacity="0.5" x="17.277696" y="28.41408" width="11.673216" height="1.074816"></rect>
                        <rect id="Rectangle" fill="#FFFFFF" opacity="0.5" x="17.277696" y="32.120064" width="11.673216" height="1.074816"></rect>
                        <rect id="Rectangle" fill="#FFFFFF" opacity="0.5" x="17.277696" y="35.824896" width="11.673216" height="1.074816"></rect>
                        <rect id="Rectangle" fill="#A3C5F5" opacity="0.5" x="41.413248" y="12.302208" width="51.725952" height="1"></rect>
                        <rect id="Rectangle" fill="#A3C5F5" opacity="0.5" x="41.413248" y="16.314624" width="51.725952" height="1"></rect>
                        <rect id="Rectangle" fill="#A3C5F5" opacity="0.5" x="41.413248" y="20.328192" width="51.725952" height="1"></rect>
                        <rect id="Rectangle" fill="#A3C5F5" opacity="0.5" x="41.413248" y="24.340608" width="51.725952" height="1"></rect>
                        <rect id="Rectangle" fill="#DCE0ED" opacity="0.5" x="41.413248" y="28.353024" width="51.725952" height="1"></rect>
                        <polygon id="Path" fill="#56CC7E" opacity="0.5" points="93.140352 28.524672 41.349888 28.524672 41.349888 20.633472 46.099584 22.974336 51.015168 23.640192 55.328256 22.339584 60.53184 18.304128 63.149184 16.792704 65.062656 16.424064 66.893184 16.521984 69.904512 18.009216 73.996416 20.616192 77.208192 21.02976 79.755264 20.151936 85.152384 15.73056 87.907968 14.747904 90.791424 15.193728 93.140352 16.549632"></polygon>
                        <path d="M50.37696,23.642496 C45.713664,23.642496 41.40288,20.790144 41.349888,20.75328 L41.47776,20.562048 C41.544576,20.606976 48.177792,24.996096 53.814528,22.796928 C55.872,21.996288 57.332736,20.748672 58.752,19.54368 C60.230016,18.284544 61.62624,17.094528 63.528192,16.578432 C65.716992,15.987456 68.095872,16.523136 69.907968,18.01152 C71.456256,19.28448 74.541312,21.32928 77.80032,20.717568 C79.461504,20.406528 80.862336,19.19232 82.34496,17.90784 C85.183488,15.44256 88.128,12.897792 93.207168,16.551936 L93.072384,16.73856 C88.136064,13.191552 85.266432,15.677568 82.492416,18.081792 C80.9856,19.38816 79.561728,20.616192 77.839488,20.944512 C74.487168,21.572352 71.3376,19.488384 69.758208,18.19008 C68.003712,16.747776 65.696256,16.23168 63.585792,16.80192 C61.732224,17.304192 60.360192,18.476928 58.898304,19.718784 C57.468672,20.936448 55.989504,22.196736 53.898624,23.012352 C52.7741919,23.439772 51.5798377,23.6534821 50.37696,23.642496 L50.37696,23.642496 Z" id="Path" fill="#56CC7E"></path>
                        <circle id="Oval" fill="#56CC7E" cx="66.30336" cy="16.401024" r="1.282176"></circle>
                        <path d="M32.784768,83.32416 C32.444928,83.77344 30.443904,83.58336 30.102912,83.43936 C29.8944,83.35296 29.910528,82.962432 29.966976,82.559232 C30.181248,82.659456 30.542976,82.743552 31.15584,82.687104 C31.2982426,82.6732928 31.4413874,82.6686752 31.584384,82.67328 C32.0176196,82.6935991 32.4517262,82.6851324 32.88384,82.647936 C32.9807834,82.8740167 32.9424903,83.1353898 32.784768,83.32416 L32.784768,83.32416 Z" id="Path" fill="#000000" opacity="0.1"></path>
                        <path d="M24.9696,82.165248 C24.9373605,82.4447276 24.719633,82.6667243 24.440832,82.704384 C23.7024,82.819584 21.920256,83.096064 21.470976,83.310336 C20.894976,83.58336 18.63936,83.392128 18.52992,83.120256 C18.4989201,83.0099522 18.5130093,82.8918514 18.569088,82.791936 C18.6467245,82.6263072 18.7744778,82.4892848 18.934272,82.400256 C19.302912,82.64448 20.120832,82.884096 21.920256,82.603008 C23.636736,82.334592 24.48576,82.071936 24.90048,81.893376 L24.90048,81.893376 C24.9592724,81.9709553 24.9842014,82.0690093 24.9696,82.165248 L24.9696,82.165248 Z" id="Path" fill="#000000" opacity="0.1"></path>
                        <path d="M21.6576,80.463744 C21.6576,80.463744 21.942144,80.963712 22.974336,80.522496" id="Path" fill="#000000" opacity="0.1"></path>
                        <path d="M32.962176,68.197248 C32.962176,68.197248 32.333184,68.59008 32.312448,68.81472 C32.291712,69.03936 32.637312,68.651136 32.637312,68.651136 L32.962176,68.197248 Z" id="Path" fill="#000000" opacity="0.1"></path>
                        <path d="M33.209856,71.208576 C32.9915763,71.3908276 32.7197488,71.4968079 32.435712,71.5104 C31.965696,71.531136 32.004864,72.144 32.312448,71.95968 C32.620032,71.77536 33.209856,71.208576 33.209856,71.208576 Z" id="Path" fill="#000000" opacity="0.1"></path>
                        <path d="M33.329664,71.601408 C33.329664,71.601408 33.02784,73.08288 32.782464,72.797184" id="Path" fill="#000000" opacity="0.1"></path>
                        <g id="Group" opacity="0.5" transform="translate(45.964800, 37.440000)" fill="#A3C5F5">
                            <rect id="Rectangle" x="0.019584" y="0.07488" width="7.6032" height="1.6128"></rect>
                            <rect id="Rectangle" x="17.478144" y="0.07488" width="7.6032" height="1.6128"></rect>
                            <rect id="Rectangle" x="34.936704" y="0.07488" width="7.6032" height="1.6128"></rect>
                        </g>
                        <ellipse id="Oval" fill="#56CC7E" opacity="0.1" cx="101.460096" cy="76.987008" rx="3.102336" ry="1"></ellipse>
                        <ellipse id="Oval" fill="#56CC7E" opacity="0.1" cx="4.978944" cy="83.605248" rx="3.102336" ry="1"></ellipse>
                        <ellipse id="Oval" fill="#56CC7E" cx="94.670208" cy="82.60416" rx="4.632192" ry="1"></ellipse>
                        <path d="M96.584832,81.324288 C96.7963246,81.1520054 96.9502437,80.9193184 97.026048,80.65728 C97.083648,80.39232 96.970752,80.07552 96.718464,79.978752 C96.435072,79.870464 96.132096,80.066304 95.901696,80.2656 C95.671296,80.464896 95.409792,80.689536 95.10912,80.648064 C95.4230728,80.3628566 95.5646995,79.9340423 95.482368,79.517952 C95.4694842,79.4331286 95.4336287,79.3534497 95.378688,79.287552 C95.220864,79.11936 94.93632,79.190784 94.747392,79.323264 C94.148352,79.744896 93.981312,80.558208 93.977856,81.29088 C93.917952,81.027072 93.96864,80.751744 93.967488,80.48448 C93.966336,80.217216 93.891456,79.90848 93.66336,79.766784 C93.5218076,79.6911848 93.3629683,79.6538576 93.20256,79.658496 C92.932992,79.648128 92.63232,79.674624 92.449152,79.871616 C92.218752,80.116992 92.279808,80.527104 92.477952,80.793216 C92.676096,81.059328 92.980224,81.230976 93.257856,81.4176 C93.4809797,81.5508431 93.671484,81.7322946 93.815424,81.948672 C93.8318253,81.9792126 93.8453245,82.0112249 93.855744,82.044288 L95.544576,82.044288 C95.9219681,81.8518915 96.2718411,81.6097313 96.584832,81.324288 Z" id="Path" fill="#56CC7E"></path>
                        <path d="M5.12064,75.829248 C5.12064,75.829248 5.75424,76.657536 4.829184,77.902848 C3.904128,79.14816 3.141504,80.206848 3.446784,80.986752 C3.446784,80.986752 4.843008,78.665472 5.981184,78.633216 C7.11936,78.60096 6.37056,77.225472 5.12064,75.829248 Z" id="Path" fill="#56CC7E"></path>
                        <path d="M5.12064,75.829248 C5.17605905,75.9094787 5.21988284,75.9971263 5.250816,76.0896 C6.35904,77.39136 6.948864,78.60672 5.883264,78.636672 C4.891392,78.665472 3.701376,80.439552 3.41568,80.88768 C3.42507664,80.9223985 3.43622695,80.9566184 3.449088,80.990208 C3.449088,80.990208 4.845312,78.668928 5.983488,78.636672 C7.121664,78.604416 6.37056,77.225472 5.12064,75.829248 Z" id="Path" fill="#000000" opacity="0.1"></path>
                        <path d="M6.296832,76.88448 C6.296832,77.175936 6.264576,77.412096 6.224256,77.412096 C6.183936,77.412096 6.15168,77.181696 6.15168,76.88448 C6.15168,76.587264 6.192,76.730112 6.23232,76.730112 C6.27264,76.730112 6.296832,76.593024 6.296832,76.88448 Z" id="Path" fill="#FFD037"></path>
                        <path d="M6.701184,77.232384 C6.44544,77.371776 6.221952,77.455872 6.20352,77.42016 C6.185088,77.384448 6.375168,77.242752 6.630912,77.10336 C6.886656,76.963968 6.786432,77.065344 6.804864,77.10336 C6.823296,77.141376 6.956928,77.092992 6.701184,77.232384 Z" id="Path" fill="#FFD037"></path>
                        <path d="M1.778688,75.829248 C1.778688,75.829248 1.145088,76.657536 2.070144,77.902848 C2.9952,79.14816 3.757824,80.206848 3.452544,80.986752 C3.452544,80.986752 2.057472,78.665472 0.918144,78.633216 C-0.221184,78.60096 0.528768,77.225472 1.778688,75.829248 Z" id="Path" fill="#56CC7E"></path>
                        <path d="M1.778688,75.829248 C1.72326895,75.9094787 1.67944516,75.9971263 1.648512,76.0896 C0.540288,77.39136 -0.049536,78.60672 1.016064,78.636672 C2.007936,78.665472 3.197952,80.439552 3.483648,80.88768 C3.47438432,80.9225755 3.46283949,80.9568252 3.449088,80.990208 C3.449088,80.990208 2.054016,78.668928 0.914688,78.636672 C-0.22464,78.604416 0.528768,77.225472 1.778688,75.829248 Z" id="Path" fill="#000000" opacity="0.1"></path>
                        <path d="M0.601344,76.88448 C0.601344,77.175936 0.634752,77.412096 0.675072,77.412096 C0.715392,77.412096 0.747648,77.181696 0.747648,76.88448 C0.747648,76.587264 0.707328,76.730112 0.667008,76.730112 C0.626688,76.730112 0.601344,76.593024 0.601344,76.88448 Z" id="Path" fill="#FFD037"></path>
                        <path d="M0.198144,77.232384 C0.453888,77.371776 0.676224,77.455872 0.695808,77.42016 C0.715392,77.384448 0.52416,77.242752 0.268416,77.10336 C0.012672,76.963968 0.112896,77.065344 0.093312,77.10336 C0.073728,77.141376 -0.0576,77.092992 0.198144,77.232384 Z" id="Path" fill="#FFD037"></path>
                        <path d="M0.8064,80.88192 C0.8064,80.88192 2.575872,80.826624 3.1104,80.447616 C3.644928,80.068608 5.832576,79.613568 5.965056,80.222976 C6.097536,80.832384 8.623872,83.251584 6.626304,83.267712 C4.628736,83.28384 1.984896,82.956672 1.452672,82.63296 C0.920448,82.309248 0.8064,80.88192 0.8064,80.88192 Z" id="Path" fill="#A8A8A8"></path>
                        <path d="M6.657408,83.055744 C4.65984,83.071872 2.014848,82.744704 1.482624,82.420992 C1.078272,82.173312 0.91584,81.287424 0.862848,80.879616 L0.802944,80.879616 C0.802944,80.879616 0.918144,82.305792 1.448064,82.630656 C1.977984,82.95552 4.624128,83.281536 6.621696,83.265408 C7.197696,83.265408 7.396992,83.055744 7.386624,82.751616 C7.305984,82.93824 7.085952,83.052288 6.657408,83.055744 Z" id="Path" fill="#000000" opacity="0.2"></path>
                        <path d="M45.4464,48.777984 C45.4464,46.423296 47.362176,44.614656 49.718016,44.614656 L49.751424,44.614656 L49.751424,43.543296 L49.718016,43.543296 C46.7712,43.543296 44.37504,45.83232 44.37504,48.777984 C44.3748684,50.3198505 45.042507,51.7862183 46.205568,52.798464 L46.964736,52.039296 C46.0021907,51.2294881 45.446491,50.035872 45.4464,48.777984 L45.4464,48.777984 Z" id="Path" fill="#56CC7E"></path>
                        <path d="M49.85856,43.544448 L49.85856,44.615808 C51.7439001,44.6283907 53.3978909,45.8758431 53.9281485,47.6851227 C54.4584061,49.4944023 53.7394366,51.437314 52.1591483,52.4655915 C50.57886,53.493869 48.5112534,53.364154 47.071872,52.146432 L46.3104,52.9056 C48.0940121,54.4650951 50.6918528,54.6630926 52.6912076,53.3919209 C54.6905624,52.1207491 55.6134488,49.684305 54.9579981,47.407535 C54.3025474,45.130765 52.2254572,43.5579728 49.856256,43.544448 L49.85856,43.544448 Z" id="Path" fill="#56CC7E" opacity="0.5"></path>
                        <path d="M84.87936,44.560512 C87.234048,44.560512 89.042688,46.476288 89.042688,48.832128 C89.042688,48.842496 89.042688,48.854016 89.042688,48.865536 L90.114048,48.865536 C90.114048,48.854016 90.114048,48.842496 90.114048,48.832128 C90.114048,45.886464 87.825024,43.4891517 84.87936,43.4891517 C83.3374277,43.4886767 81.8709398,44.1563699 80.85888,45.31968 L81.618048,46.078848 C82.4278559,45.1163027 83.621472,44.560603 84.87936,44.560512 Z" id="Path" fill="#56CC7E" opacity="0.5"></path>
                        <path d="M90.112896,48.972672 L89.041536,48.972672 C89.0289533,50.8580121 87.7815009,52.5120029 85.9722213,53.0422605 C84.1629417,53.5725181 82.22003,52.8535486 81.1917525,51.2732603 C80.163475,49.692972 80.29319,47.6253654 81.510912,46.185984 L80.7552,45.426816 C79.1957049,47.2104281 78.9977074,49.8082688 80.2688791,51.8076236 C81.5400509,53.8069784 83.976495,54.7298648 86.253265,54.0744141 C88.530035,53.4189634 90.1028272,51.3418732 90.116352,48.972672 L90.112896,48.972672 Z" id="Path" fill="#56CC7E"></path>
                        <path d="M69.3504,43.857792 L69.13728,44.924544 C70.705152,45.556992 71.707392,47.09376 71.707392,48.88512 C71.7080381,51.0176381 70.1354009,52.823766 68.023065,53.1164619 C65.9107292,53.4091579 63.9062413,52.0986945 63.3270114,50.0463479 C62.7477815,47.9940013 63.7713753,45.8289282 65.725056,44.97408 L65.250432,44.01216 C62.8255544,45.1037343 61.5731723,47.812981 62.3126777,50.3673297 C63.0521831,52.9216785 65.5582497,54.5428227 68.1912413,54.1701014 C70.8242329,53.7973802 72.7818804,51.5443612 72.78336,48.88512 C72.78336,46.573056 71.414784,44.600832 69.3504,43.857792 Z" id="Path" fill="#56CC7E" opacity="0.5"></path>
                        <path d="M67.575168,44.552448 C68.0868399,44.5522682 68.5930777,44.6573587 69.0624,44.861184 L69.27552,43.795584 C68.7329908,43.5867539 68.1565001,43.4801266 67.575168,43.4810816 C66.8204016,43.4810633 66.0742729,43.6416773 65.386368,43.952256 L65.8656,44.911872 C66.4042091,44.674322 66.9865005,44.5518996 67.575168,44.552448 Z" id="Path" fill="#56CC7E"></path>
                    </g>
                    <g id="Group-2" transform="translate(113.760000, 8.160000)">
                        <ellipse id="Oval" fill="#56CC7E" opacity="0.1" cx="15.4581811" cy="25.0870292" rx="11.2055501" ry="1.51584768"></ellipse>
                        <rect id="Rectangle" fill="#3A3768" x="21.330985" y="6.9805383" width="1" height="2.69180928" rx="0.08441856"></rect>
                        <rect id="Rectangle" fill="#3A3768" x="10.5807053" y="1.9430727" width="10.9264896" height="22.206505" rx="1.43732736"></rect>
                        <path d="M19.965911,2.5199943 L18.712535,2.5199943 L18.712535,2.67076806 C18.7125351,2.86030906 18.637215,3.04208157 18.5031547,3.17607272 C18.3690944,3.31006387 18.1872831,3.38529018 17.9977421,3.38519238 L14.0116378,3.38519238 C13.8220968,3.38529018 13.6402854,3.31006387 13.5062252,3.17607272 C13.3721649,3.04208157 13.2968448,2.86030906 13.2968448,2.67076806 L13.2968448,2.5199943 L12.1234637,2.5199943 C11.6442028,2.5199943 11.2556851,2.90851199 11.2556851,3.38777286 L11.2556851,22.7034029 C11.2556851,22.9335521 11.3471115,23.154275 11.5098516,23.317015 C11.6725916,23.4797551 11.8933145,23.5711815 12.1234637,23.5711815 L19.965911,23.5711815 C20.4451719,23.5711815 20.8336909,23.1826638 20.8336909,22.7034029 L20.8336909,3.38924742 C20.8340811,3.15884285 20.7428276,2.93774098 20.5800451,2.77468187 C20.4172626,2.61162276 20.1963159,2.5199943 19.965911,2.5199943 Z" id="Path" fill="#56CC7E"></path>
                        <rect id="Rectangle" fill="#E6E8EC" x="14.9900083" y="2.60625606" width="1.52580096" height="1" rx="0.14266368"></rect>
                        <circle id="Oval" fill="#E6E8EC" cx="16.9224192" cy="2.76108486" r="1"></circle>
                        <path d="M22.1062349,0.00181445769 C22.1062349,0.00181445769 20.7054029,-0.0826041023 20.869079,0.900190138 C20.869079,0.900190138 20.8362701,1.07381958 20.9936794,1.15270854 C20.9936794,1.15270854 20.9962598,1.07898054 21.1378176,1.1044167 C21.1880977,1.11287873 21.2392034,1.11535358 21.2900659,1.1117895 C21.3588281,1.10724364 21.4242119,1.08031328 21.4762291,1.03511238 L21.4762291,1.03511238 C21.4762291,1.03511238 21.8706739,0.872173498 22.0240282,0.227790778 C22.0240282,0.227790778 22.1372006,0.0873389377 22.132777,0.0512122177 L21.8961101,0.152219578 C21.8961101,0.152219578 21.9768422,0.322899898 21.9134362,0.464826298 C21.9134362,0.464826298 21.9056947,0.158486458 21.860352,0.165490618 C21.851136,0.165490618 21.7372262,0.224841658 21.7372262,0.224841658 C21.7372262,0.224841658 21.8765722,0.522334138 21.7715098,0.738357178 C21.7715098,0.738357178 21.8113229,0.371929018 21.6937267,0.246222778 L21.5271014,0.345018298 C21.5271014,0.345018298 21.6896717,0.652095418 21.5794483,0.902770618 C21.5794483,0.902770618 21.6078336,0.518279098 21.4920806,0.368611258 L21.3413069,0.486576058 C21.3413069,0.486576058 21.4939238,0.789229498 21.4010266,0.997142458 C21.4010266,0.997142458 21.3884928,0.549613498 21.3084979,0.515698618 C21.3084979,0.515698618 21.1765248,0.632188858 21.1562496,0.680112058 C21.1562496,0.680112058 21.2609434,0.901296058 21.1960627,1.0159431 C21.1960627,1.0159431 21.1562496,0.717713338 21.1223347,0.716238778 C21.1223347,0.716238778 20.9907302,0.913829818 20.9770906,1.04801478 C20.9836767,0.922901917 21.0228145,0.801676576 21.0906317,0.696332218 C21.0146873,0.710717523 20.9446006,0.746978126 20.8889856,0.800657338 C20.8889856,0.800657338 20.9096294,0.660942778 21.123072,0.648777658 C21.123072,0.648777658 21.233664,0.498741178 21.2609434,0.489525178 C21.2609434,0.489525178 21.0486067,0.471830458 20.9199514,0.528969658 C20.9199514,0.528969658 21.0331238,0.397365178 21.2996506,0.457084858 L21.4471066,0.335433658 C21.4471066,0.335433658 21.1673088,0.298569658 21.0489754,0.339488698 C21.0489754,0.339488698 21.1853722,0.222998458 21.4872883,0.307785658 L21.6494899,0.210833338 C21.6494899,0.210833338 21.4109798,0.159592378 21.2690534,0.178024378 C21.2690534,0.178024378 21.4190899,0.0972922177 21.6970445,0.184659898 L21.8131661,0.132681658 C21.8131661,0.132681658 21.6384307,0.0983981377 21.5871898,0.0928685377 C21.5359488,0.0873389377 21.5333683,0.0733306177 21.5333683,0.0733306177 C21.6440331,0.0549211611 21.7576379,0.0676857509 21.8614579,0.110194618 C21.8614579,0.110194618 22.1106586,0.0172973377 22.1062349,0.00181445769 Z" id="Path" fill="#56CC7E"></path>
                        <ellipse id="Oval" fill="#56CC7E" opacity="0.1" cx="0.99274752" cy="26.1815213" rx="1" ry="1"></ellipse>
                        <ellipse id="Oval" fill="#56CC7E" opacity="0.1" cx="4.8328704" cy="27.0813716" rx="1" ry="1"></ellipse>
                        <path d="M4.88411136,22.9592391 C4.88411136,22.9592391 5.08686336,23.2242913 4.79084544,23.6227911 C4.49482752,24.0212909 4.25078784,24.3600711 4.34847744,24.6096404 C4.34847744,24.6096404 4.79526912,23.8668308 5.15948544,23.8565089 C5.52370176,23.8461869 5.28408576,23.4060308 4.88411136,22.9592391 Z" id="Path" fill="#56CC7E"></path>
                        <path d="M3.81468672,22.9592391 C3.81468672,22.9592391 3.61193472,23.2242913 3.90795264,23.6227911 C4.20397056,24.0212909 4.44801024,24.3600711 4.35032064,24.6096404 C4.35032064,24.6096404 3.9038976,23.8668308 3.53931264,23.8565089 C3.17472768,23.8461869 3.41397504,23.4060308 3.81468672,22.9592391 Z" id="Path" fill="#56CC7E"></path>
                        <path d="M3.50244864,24.5760941 C3.50244864,24.5760941 4.06867968,24.5583994 4.23972864,24.4371169 C4.4107776,24.3158343 5.11082496,24.1702215 5.15284992,24.3652321 C5.19487488,24.5602426 6.00403968,25.3343866 5.36481792,25.3395476 C4.72559616,25.3447085 3.87919872,25.2400148 3.70888704,25.1364269 C3.53857536,25.0328391 3.50244864,24.5760941 3.50244864,24.5760941 Z" id="Path" fill="#A8A8A8"></path>
                        <circle id="Oval" fill="#FFFFFF" cx="16.1106739" cy="13.3189345" r="2.06696448"></circle>
                        <path d="M18.8264448,13.0465095 C18.8264448,14.1638721 18.1533618,15.171212 17.1210534,15.5988082 C16.0887449,16.0264043 14.9005065,15.790049 14.1104118,14.9999543 C13.3203171,14.2098596 13.0839618,13.0216212 13.511558,11.9893128 C13.9391541,10.9570043 14.946494,10.2839213 16.0638566,10.2839213 C17.589592,10.2839213 18.8264448,11.5207742 18.8264448,13.0465095 Z M15.7446144,14.5089044 L17.7938842,12.4596346 C17.8273811,12.4262293 17.8462073,12.3808669 17.8462073,12.3335597 C17.8462073,12.2862526 17.8273811,12.2408902 17.7938842,12.2074849 L17.5417344,11.9571783 C17.5083921,11.9237036 17.4630907,11.9048866 17.4158438,11.9048866 C17.368597,11.9048866 17.3232956,11.9237036 17.2899533,11.9571783 L15.6185395,13.6285921 L14.8381286,12.846338 C14.7683872,12.7769801 14.6557203,12.7769801 14.5859789,12.846338 L14.3338291,13.0999623 C14.2644712,13.1697037 14.2644712,13.2823707 14.3338291,13.3521121 L15.4924646,14.5103789 C15.52587,14.5438759 15.5712324,14.562702 15.6185395,14.562702 C15.6658466,14.562702 15.7112091,14.5438759 15.7446144,14.5103789 L15.7446144,14.5089044 Z" id="Shape" fill="#3ACC6C"></path>
                    </g>
                </g>
                <ellipse id="Oval-Copy-4" fill="#56CC7E" opacity="0.1" cx="74" cy="83.5" rx="74" ry="12.5"></ellipse>
            </g>
        </g>
    </g>
</svg>