<svg xmlns="http://www.w3.org/2000/svg" viewBox="0 0 963.51 646.46"><defs><style>.cls-1{fill:#f2f2f2;}.cls-2{fill:#2f2e41;}.cls-3{fill:#a0616a;}.cls-4{fill:#a3c5f5;}.cls-5{fill:#3f3d56;}.cls-6{fill:#56cc7e;}.cls-7{opacity:0.1;isolation:isolate;}</style></defs><title>Recurso 6</title><g id="Capa_2" data-name="Capa 2"><g id="b1dd317e-8fb9-42d0-9880-4f9abd167789"><circle class="cls-1" cx="336.75" cy="458.5" r="145"/><circle class="cls-1" cx="702.7" cy="260.47" r="145"/><rect class="cls-2" y="640.36" width="963.51" height="2.24"/><path class="cls-3" d="M779,201.73l-20-21s-22-33-38-24,23,30,23,30l20,33Z"/><path class="cls-2" d="M842,608.73s15,29,4,31-65,5-66,2-9-13-3-17,30-7,30-7l8-8Z"/><path class="cls-2" d="M850,325.73s32,40,6,81l-6,69s11,95-3,127l-2,11H810l9-84s-1-10-4-12-52-110-52-110,8-15,5-18,3-63,6-65S850,325.73,850,325.73Z"/><polygon class="cls-3" points="793.01 599.73 789.01 622.73 828.01 620.73 823.01 595.73 793.01 599.73"/><circle class="cls-3" cx="800.01" cy="161.73" r="30"/><path class="cls-3" d="M827,166.73l3,36-32,15s5.5-33.5,1.5-42.5Z"/><path class="cls-4" d="M794,215.73l3-12,41-15s4,0,3,7-1,6-1,6,14,6,15,16,17,13,16,28-6,23-6,23,5,12-3,19c0,0-8,14-4,24s9,27-2,24-87-8-87-8-11-41,1-56c0,0,0-9,9-27S794,215.73,794,215.73Z"/><path class="cls-3" d="M847,328.73s-13,55-29,61c0,0-3,40-20,38s0-38,0-38l19-69Z"/><path class="cls-4" d="M796,218.73s-15-24-19-20-24,16-23,24,10,8,10,8l21,16Z"/><path class="cls-2" d="M775,397.73l-12,8.62-8,85.38s29,116,37,117,41,1,40-2-6-15-6-18-10.43-27-10.43-27l-13.57-56,3-44Z"/><path class="cls-2" d="M790,614.73s42-13,44-10,15.34,33.23-3.33,36.62-85.67,9.38-85.67.38,2-15,8-15,33-13,35-16S790,614.73,790,614.73Z"/><path class="cls-4" d="M823.24,228.47a21.32,21.32,0,0,1,26,1.32c6.89,5.86,14.3,14.25,13.76,22.94-1,16-7,82-15,83s-37-7-37-12,7-11,7-11l-8.5-51a33.7,33.7,0,0,1,13.28-32.94Z"/><path class="cls-5" d="M711.75,0H471.13a51.16,51.16,0,0,0-49.9,39.9L299.66,579.17a41.33,41.33,0,0,0,31.23,49.42,41.92,41.92,0,0,0,7.06,1L585.3,641.74a54.62,54.62,0,0,0,56.43-44.83l69-381.27,5.13,1.47L729,144.84l-5.28-1.32L743,37.1A31.5,31.5,0,0,0,717.61.5,31.13,31.13,0,0,0,711.75,0Z"/><path class="cls-6" d="M502.81,11.63H474.72a35.33,35.33,0,0,0-34.53,27.81L323.49,574.31a21.86,21.86,0,0,0,20,26.52L590,617a28.36,28.36,0,0,0,29.77-23.28L719.36,40.88a24.83,24.83,0,0,0-24.45-29.25H668.26a11.72,11.72,0,0,0-11.32,8.67h0a10.35,10.35,0,0,1-10,7.66H520.45a17.69,17.69,0,0,1-17.64-16.33Z"/><rect class="cls-2" x="414.21" y="190.72" width="257.64" height="1.26"/><polygon class="cls-2" points="629.97 330.11 624.17 322.38 625.18 321.63 630.19 328.31 649.49 312.51 650.29 313.49 629.97 330.11"/><rect class="cls-2" x="518.83" y="200.11" width="1.26" height="267.12" transform="translate(174.86 845.95) rotate(-88.79)"/><rect class="cls-2" x="513.18" y="234.98" width="1.26" height="272.16" transform="translate(130.98 876.16) rotate(-88.68)"/><path class="cls-7" d="M544.6,474.43a59.7,59.7,0,0,1-119.4,0c0-.74,0-1.49.05-2.23a59.7,59.7,0,0,1,119.35,2.23Z"/><path class="cls-7" d="M538.94,497.68c0,.75,0,1.49,0,2.23a59.71,59.71,0,0,1-113.7-25.48c0-.74,0-1.49.05-2.23a59.7,59.7,0,0,1,113.69,25.48Z"/><polygon class="cls-1" points="472.82 490.86 451.6 462.56 456.62 458.79 473.91 481.84 541.98 426.15 545.96 431.02 472.82 490.86"/></g></g></svg>