<svg xmlns="http://www.w3.org/2000/svg" xmlns:xlink="http://www.w3.org/1999/xlink" viewBox="0 0 775.22 563.48"><defs><style>.cls-1{fill:none;}.cls-2{fill:#f2f2f2;}.cls-3{fill:#a3c5f5;}.cls-4{fill:#3f3d56;}.cls-5{fill:#56cc7e;}.cls-6{fill:#ffb8b8;}.cls-7{opacity:0.1;isolation:isolate;}.cls-8{fill:#d0cde1;}.cls-9{fill:#2f2e41;}.cls-10{clip-path:url(#clip-path);}</style><clipPath id="clip-path"><path class="cls-1" d="M438,224.34h-5.27v40.17h-2.29l-15.12-40.17H403.79v45.2H409V229.37h2.86L427,269.54H438Zm45.21,0h-5.83v32.39c0,3.34-.84,5.77-2.52,7.31s-4.38,2.3-8.09,2.3-6.41-.76-8.09-2.27-2.52-4-2.52-7.34V224.34h-5.83v30.83q0,7.47,4.5,12t11.94,4.48q7.44,0,11.94-4.48t4.5-12Zm9.59,13.7v7.53h7.53V238Zm0,26v7.53h7.53v-7.53Zm52.74-39.73h-5.27v40.17H538L522.9,224.34H511.33v45.2h5.21V229.37h2.86l15.12,40.17h11.06Zm40.79,28.94q-.12,6.41-3.17,9.77a10.58,10.58,0,0,1-8.23,3.36q-5.93,0-9-3.68t-3.11-10.92v-7.62q0-7.23,3.11-10.95t9-3.72a10.59,10.59,0,0,1,8.23,3.37q3,3.36,3.17,9.76h6.47a22.47,22.47,0,0,0-6.1-13.13A16,16,0,0,0,575,224.34q-7.89,0-13.16,6.82T556.54,248q0,10,5.27,16.81T575,271.6a15.93,15.93,0,0,0,11.77-5.19,22.44,22.44,0,0,0,6.1-13.13Z"/></clipPath></defs><title>Recurso 4</title><g id="Capa_2" data-name="Capa 2"><g id="b1dd317e-8fb9-42d0-9880-4f9abd167789"><g id="Page-1"><g id="Landing-2.0---verde-Copy-5"><g id="Ilustración-8"><path id="Path-Copy-3" class="cls-2" d="M329.8,135.72c-31.51-9.83-64.81-18-98.81-17-50,1.51-98,24.57-121.45,58.44-19.94,28.69-22.4,62.33-31,94.17-10.56,39.23-30.84,76.52-52.49,113C14.43,403.9,2.16,423.91.25,445.37c-2.65,29.81,15.92,59.52,45.05,79.34S113.1,555,151.92,557.29c20.66,1.21,42.24.08,60.59-7.29,19.41-7.81,33.56-21.91,53.06-29.61,18.06-7.13,39.19-8.13,59.47-7.2a336.91,336.91,0,0,1,77.64,12.67c28.34,8.16,54.7,20,82.94,28.27s59.88,12.9,88.78,6c27.17-6.49,48.62-22.25,68-38.21A733.83,733.83,0,0,0,729,437.82c17.46-20.07,33.7-41.23,41.42-64.61,14.76-44.71-5.55-95.14-50.59-125.67-37.32-25.29-87.4-36.27-136.42-42.93-44.71-6.08-96.4-6.46-137.55-22.29C406.66,167.2,371,148.57,329.8,135.72Z"/><g id="Group-10"><rect id="Rectangle" class="cls-3" x="306.22" width="264.84" height="306.22"/><rect class="cls-4" x="383.47" y="22.07" width="160.01" height="5.52"/><rect class="cls-4" x="383.47" y="38.62" width="160.01" height="5.52"/><rect class="cls-4" x="383.47" y="52.42" width="55.18" height="5.52"/><rect class="cls-4" x="325.54" y="88.28" width="217.94" height="5.52"/><rect class="cls-4" x="325.54" y="102.07" width="217.94" height="5.52"/><rect class="cls-4" x="325.54" y="115.87" width="217.94" height="5.52"/><rect class="cls-4" x="325.54" y="129.66" width="217.94" height="5.52"/><rect class="cls-4" x="325.54" y="143.46" width="217.94" height="5.52"/><rect class="cls-4" x="325.54" y="157.25" width="217.94" height="5.52"/><rect class="cls-4" x="325.54" y="171.04" width="217.94" height="5.52"/><rect class="cls-4" x="325.54" y="184.84" width="217.94" height="5.52"/><rect class="cls-4" x="325.54" y="201.39" width="217.94" height="5.52"/><path id="Path" class="cls-5" d="M361.4,40a18.07,18.07,0,0,1-9.11,15.62c-.52.29-1.06.56-1.61.8a17.77,17.77,0,0,1-5.74,1.45,12,12,0,0,1-1.47.06,17,17,0,0,1-2.94-.24c-.34,0-.68-.12-1-.19A16.84,16.84,0,0,1,337.8,57a18,18,0,0,1-6.3-3.66A16.69,16.69,0,0,1,330.17,52,17.93,17.93,0,1,1,361.4,40Z"/><path class="cls-6" d="M347.61,39s-1.46,5.24-.56,6.05-3,7.39-3,7.39l-4.7-1.62,2.57-5.5s.34-5.51.34-6.32S347.61,39,347.61,39Z"/><path class="cls-7" d="M347.61,39s-1.46,5.24-.56,6.05-3,7.39-3,7.39l-4.7-1.62,2.57-5.5s.34-5.51.34-6.32S347.61,39,347.61,39Z"/><circle id="Oval" class="cls-6" cx="343.47" cy="37.24" r="4.14"/><path class="cls-8" d="M341.33,57.51c-.68-.13-1.34-.29-2-.47l1-6,.32-1.85,1.65.52.76.24a2,2,0,0,0,1.38,0c1.6-.62,2.54-3,2.54-3s.07.67.15,1.81c.15,2,.37,5.42.44,9.17-.57,0-1.14.06-1.71,0a22.67,22.67,0,0,1-3.4-.23C342.1,57.65,341.71,57.58,341.33,57.51Z"/><path class="cls-8" d="M342.09,46.56l-.33,3.57-.15,1.73-.56,6.07a12.05,12.05,0,0,1-1.4-.46,14.29,14.29,0,0,1-5.13-3.58l-.71-3a4.93,4.93,0,0,1,.05-.54h0a3.55,3.55,0,0,1,.09-.47h0a3.62,3.62,0,0,1,.71-1.52c.85-1,6.47-4.2,6.47-4.2l.11.27Z"/><path class="cls-9" d="M344.82,30.36a5.75,5.75,0,0,1,3.09.48,4.27,4.27,0,0,1,1.06,1c.87,1,1.63,2.31,1.3,3.57l-.37-.13a2.24,2.24,0,0,0,.23,1c-.05-.15-.23.09-.18.23l.42,1.26a1.35,1.35,0,0,0-1,.12,1.16,1.16,0,0,0-.59.78c-.05-1.46-.21-3.14-1.49-4a5.52,5.52,0,0,0-2.25-.68,4.82,4.82,0,0,0-2.17,0,1.45,1.45,0,0,0-1.13,1.55.77.77,0,0,0-.84.38,2,2,0,0,0-.17.92c-.34.22-.73-.22-.87-.59a5,5,0,0,1-.44-2.66,2.14,2.14,0,0,1,1.94-1.76.61.61,0,0,1-.17-.44l.81-.07a.89.89,0,0,1-.54-.26C341.75,31.35,344.3,30.38,344.82,30.36Z"/><path class="cls-8" d="M355.88,49.84c-.13.9-.85,3.47-1.58,5.94-.54.27-1.1.52-1.67.75a20.42,20.42,0,0,1-6,1.35c-.51,0-1,.06-1.53,0a19.47,19.47,0,0,1-3.05-.22c.38-1.3.88-3.45,1.36-5.56.14-.63.28-1.27.42-1.87.52-2.38.92-4.32.92-4.32a11.57,11.57,0,0,1,2.58-1.75.85.85,0,0,1,.42-.07c.79.12,1.87,1.82,1.87,1.82s4.86,1.45,6,3.1a1.16,1.16,0,0,1,.23.78Z"/><path class="cls-8" d="M333.81,49.66l-.19,5.52A13.79,13.79,0,0,1,332,53.55a13.33,13.33,0,0,1-1-1.25c.16-.93.3-1.71.38-2.18h0c0-.26.07-.42.08-.46h2.3Z"/><path class="cls-8" d="M355.88,52.83a21.83,21.83,0,0,1-2.95,1.58c-.63.28-1.28.54-1.94.77l-.62-2.86L351,46.9l3.51.69.26,0Z"/></g><g id="Group-9"><path class="cls-5" d="M292.4,157.1l-69.24-53.82a7.9,7.9,0,0,0-6.85-4H179a7.9,7.9,0,0,0-7.91,7.9V437a25.64,25.64,0,0,0,25.64,25.64H580.25A25.64,25.64,0,0,0,605.89,437V180.4a23.3,23.3,0,0,0-23.3-23.3Z"/><g class="cls-10"><rect x="400.37" y="220.91" width="195.9" height="54.11"/></g></g></g></g></g></g></g></svg>