<svg xmlns="http://www.w3.org/2000/svg" viewBox="0 0 881.59 617.11"><defs><style>.cls-1{fill:#f2f2f2;}.cls-2{fill:#aaabb0;}.cls-3{fill:#33323d;}.cls-4{fill:#444053;}.cls-5{fill:#7ca5d6;}.cls-6{fill:#ffb9b9;}.cls-7{fill:#504f60;}.cls-8{opacity:0.1;isolation:isolate;}.cls-9{fill:#a3c5f5;}.cls-10{fill:#ffe633;}.cls-11{fill:#fff;}.cls-12{fill:#56cc7e;}.cls-13{fill:#ae6e79;}.cls-14{fill:#464a5f;}.cls-15{fill:#9c9ca1;}.cls-16{fill:#939498;}</style></defs><title>Recurso 5</title><g id="Capa_2" data-name="Capa 2"><g id="b1dd317e-8fb9-42d0-9880-4f9abd167789"><path id="Path" class="cls-1" d="M375.05,23.71c-35.83-13.63-73.7-25-112.36-23.59-56.84,2.1-111.4,34.1-138.12,81.08C101.9,121,99.1,167.66,89.33,211.83c-12,54.42-35.08,106.15-59.7,156.73C16.41,395.73,2.46,423.49.28,453.27c-3,41.36,18.11,82.56,51.23,110.07s77.11,42,121.25,45.18c23.5,1.68,48.05.12,68.91-10.11,22.08-10.83,38.17-30.4,60.34-41.07,20.54-9.89,44.57-11.28,67.63-10a320.8,320.8,0,0,1,88.29,17.57c32.23,11.33,62.21,27.74,94.33,39.22s68.09,17.9,101,8.32c30.9-9,55.29-30.88,77.29-53a939.58,939.58,0,0,0,98.57-116.65c19.85-27.83,38.32-57.19,47.1-89.63,16.78-62-6.31-132-57.53-174.33-42.44-35.09-99.39-50.32-155.14-59.56-50.84-8.43-109.63-9-156.42-30.91C462.46,67.38,421.85,41.53,375.05,23.71Z"/><polygon class="cls-2" points="514.26 501.78 514.26 531.89 523.08 531.89 521.37 499.57 514.26 501.78"/><polygon class="cls-2" points="387.9 495.9 387.9 526.02 396.72 526.02 395.01 493.69 387.9 495.9"/><path id="Rectangle" class="cls-2" d="M529,449.61h0a5.87,5.87,0,0,1,5.87,5.88v41.14a5.87,5.87,0,0,1-5.87,5.88h0a5.88,5.88,0,0,1-5.88-5.88V455.49A5.88,5.88,0,0,1,529,449.61Z"/><path class="cls-2" d="M390.84,437.86h0a5.88,5.88,0,0,1,5.88,5.87v52.9a5.88,5.88,0,0,1-5.88,5.88h0a5.88,5.88,0,0,1-5.88-5.88v-52.9A5.87,5.87,0,0,1,390.84,437.86Z"/><path class="cls-2" d="M549.53,134.31s10.68-4.66,12.28,0,2.41,44.95,2.41,44.95H554.06Z"/><path class="cls-2" d="M429,134.31s-10.69-4.66-12.29,0-2.4,44.95-2.4,44.95H424.5Z"/><polygon class="cls-2" points="430.35 94.88 429.04 129.3 434.92 129.3 434.92 94.04 430.35 94.88"/><path class="cls-3" d="M423.16,179.26l2.19-47.87s-.82-10.61,25.15-7.34,102,9.79,102,9.79v45.42Z"/><path class="cls-3" d="M529,428.29l-4,73.58s-59.25,33.37-131.14,1.64l6.46-77.41Z"/><polygon class="cls-4" points="470.18 141.38 471.53 188.07 555.4 188.07 550.53 126.36 470.18 141.38"/><rect class="cls-5" x="399.65" y="399.65" width="79.34" height="99.91"/><path class="cls-6" d="M449.64,439.25S462,429.61,464,432.53s-7.33,15.49-11.15,14S449.64,439.25,449.64,439.25Z"/><rect class="cls-7" x="246.85" y="176.32" width="520.14" height="261.54"/><path class="cls-3" d="M425,92.7s-4-37.39,0-41.92,71.72-47.54,134.3,2.93c0,0,5.91.27,4.84,13.62a159.18,159.18,0,0,0,.13,25.37S429.52,102.32,425,92.7Z"/><path class="cls-8" d="M425,92.7s-4-37.39,0-41.92,71.72-47.54,134.3,2.93c0,0,5.91.27,4.84,13.62a159.18,159.18,0,0,0,.13,25.37S429.52,102.32,425,92.7Z"/><path class="cls-3" d="M425,95.64s-4-37.39,0-41.92,71.72-47.54,134.3,2.93c0,0,5.91.27,4.84,13.62a159.18,159.18,0,0,0,.13,25.37S429.52,105.25,425,95.64Z"/><path class="cls-9" d="M569.75,79.34s4.39,16.49,3,19.23S571.65,109,571.65,109s.3,4.95-1.9,5.49-4.12.83-2.34,2.48,0,4.12,0,4.12-1,3.85,0,6.32-5.63,3.5-5.07,6.59,2.4,11.81,0,12.09.82,11-1.35,11-3.7,19.23-3.7,19.23-15.24-12.91-25.4-9.34c0,0,.83-10.71,4.12-14.56s2.3-13.73,2.3-13.73l16.34-49.18Z"/><path class="cls-6" d="M488.69,305.13C485,309.07,481,288,481,288s-10.53,14-17.37,4.67c-4.73-6.46-1-24.78,1.71-35.41,1.21-4.73,2.24-7.94,2.24-7.94L483,246.85s.06,3.22.4,7.14c.46,5.3,1.46,11.87,3.59,13.45C490.69,270.16,492.39,301.15,488.69,305.13Z"/><path class="cls-8" d="M478.89,60.37S453.26,60.11,447,73.46s-6.54,17.91-9,20,26.71,13.36,26.71,13.36l1.37,46a15.78,15.78,0,0,1,15-3.11c9.27,2.57,21,0,21,0s-.54-1,7.09,0S541,138.12,541,138.12s.4-20.1-.14-24.38S558.2,78,558.2,78s13.9-13.09-.54-17.64c0,0-5.11-7.55-18.26-7.47S478.89,60.37,478.89,60.37Z"/><path class="cls-9" d="M481.14,60.37s-25.2-.26-31.36,13.09-6.43,17.91-8.84,20,26.26,13.36,26.26,13.36l1.34,46a15.36,15.36,0,0,1,14.74-3.11c9.11,2.57,20.64,0,20.64,0s-.54-1,7,0,31.35-11.58,31.35-11.58,9.38-15.23,8.85-19.5S569.84,82,569.84,82s2.95-17.09-11.25-21.64c0,0-5-7.55-18-7.47S481.14,60.37,481.14,60.37Z"/><path class="cls-8" d="M481.94,252.87c-5.75-1.49-14.77,1.8-17.64,2.79,1.19-4,2.2-6.72,2.2-6.72l15.05-2.09S481.58,249.58,481.94,252.87Z"/><path class="cls-9" d="M446.38,94h-7.8s-1.62,16.4,0,21.24,2.42,4.14,1.88,7.72,3.77,9.07,3.77,9.07.53,13.52,3.23,18.55-3,27.6-3,27.6a32.54,32.54,0,0,0,6.73,10.49c4.58,4.57,7,21.51,5.66,28s3.77,8.87,3.77,8.87,2.15,30.12,3,30.12,16.42-8.06,21.27-1.08l-3.78-27.69.28-53.51s-5.12-6.72-2.42-12.63-2.16-19.9-2.16-19.9l-7-31.19Z"/><path class="cls-3" d="M398.92,521.26s-11.35-2.52-11.61,0-13.51,28.19,3,35.73,60.49,23.73,132.06,2.79c0,0,4.59,1.68,3.51-8.65s-1.08-21.78-1.08-21.78-10.8-3.07-18.91-2S427.27,543.32,398.92,521.26Z"/><path class="cls-8" d="M398.92,521.26s-11.35-2.52-11.61,0-13.51,28.19,3,35.73,60.49,23.73,132.06,2.79c0,0,4.59,1.68,3.51-8.65s-1.08-21.78-1.08-21.78-10.8-3.07-18.91-2S427.27,543.32,398.92,521.26Z"/><path class="cls-3" d="M398.92,518.32s-11.35-2.52-11.61,0-13.51,28.2,3,35.73,60.49,23.73,132.06,2.79c0,0,4.59,1.68,3.51-8.65s-1.08-21.77-1.08-21.77-10.8-3.08-18.91-2S427.27,540.38,398.92,518.32Z"/><path class="cls-10" d="M463.92,101.57c-.7,4.05-2.28,8-2.53,12.05s1.31,8.77,5,10.38a17.08,17.08,0,0,1,3,1.24c1.43,1,2,2.85,2.32,4.59a25.08,25.08,0,0,1,.28,6.81c-.2,2.29-.68,4.75.43,6.75,1.94,3.54,7,3,10.87,2L482,155.88a2.7,2.7,0,0,0,.42,2.33,2.54,2.54,0,0,0,2,.43c3.35-.21,6.8-.69,9.67-2.49s5-5.14,4.47-8.52c-.64-3.91-4.61-7-4.07-10.95.41-3,3.34-5,5.26-7.31,3.47-4.27,3.66-10.77.93-15.61a17.38,17.38,0,0,0-13.41-8.39c-3-.31-6.12.06-9-1a6.86,6.86,0,0,1-4.15-4.46"/><path class="cls-9" d="M370.27,465l2.84-6.42s15.33-14.82,18.85-15.86,17.91-5.57,20.08-5.57,41.78-2.25,41.78-2.25l4.61,11.27-49.71,11.32L392,470.18Z"/><path class="cls-6" d="M490.75,297.51l-2.56,19.56-1,7.53-11.5,1.59s-1.25-2.65-3-6.71c-5.34-12.33-15.39-37.76-9.56-42.15,7.75-5.85,9.64,13.54,9.64,13.54l8.83-4.25Z"/><rect class="cls-11" x="429.04" y="335" width="58.77" height="88.16"/><rect class="cls-8" x="429.04" y="335" width="58.77" height="88.16"/><polygon class="cls-11" points="456 331.73 514.17 340.34 501.18 428.28 443.01 419.67 456 331.73"/><polygon class="cls-12" points="461.48 340.12 491.42 344.55 484.73 389.81 454.79 385.38 461.48 340.12"/><polygon class="cls-12" points="451.58 398.26 487.86 403.63 486.4 413.45 450.13 408.09 451.58 398.26"/><circle id="Oval" class="cls-8" cx="503.98" cy="77.87" r="33.79"/><circle class="cls-6" cx="503.98" cy="77.87" r="33.79"/><path class="cls-10" d="M474.87,101.31a3.83,3.83,0,0,1,.24-2.62c1.29-2.68,5-2.92,8-2.78,7,.33,14.75.37,20.25-4,2.28-1.82,4.83-6.38,8.15-5.52,3,.77,4.18,4.75,7.25,5.64,2.22.64,4.53-.38,6.8-.81,3.26-.64,6.6-.11,9.91-.08s6.9-.6,9.16-3c3-3.25,2.55-8.31,2.28-12.76a68,68,0,0,1,1.16-17.14c1.11-5.61,2.81-11.89-.3-16.69-3-4.59-9.11-5.84-13.31-9.35-3.92-3.25-6-8.44-10.15-11.45-5.22-3.79-12.32-3.25-18.74-2.59l-13.94,1.48c-3.59.38-7.33.81-10.29,2.94-5.34,3.84-6.07,11.83-11.13,16-2.24,1.86-5.12,2.79-7.69,4.18s-5,3.6-5.34,6.49c-.24,2.43,1.08,4.68,1.72,7,1.53,5.6-.85,11.35-2.38,17s-1.81,12.48,2.61,16.22c.9.76,1.94,1.34,2.81,2.14,3,2.71,3.4,7.3,2.71,11.25"/><circle class="cls-4" cx="506.92" cy="116.08" r="2.94"/><circle class="cls-4" cx="506.92" cy="124.89" r="2.94"/><path class="cls-13" d="M486.19,305c.8-1.05,1.32-3.74,1.62-7.3L479,285.05S482.73,309.65,486.19,305Z"/><path class="cls-8" d="M498.12,503.89s-15.85,24.56-65.37,21.93c-46.64-2.44-69.41-25.44-68.32-33.57s-3-27.88,7-33.57c5.8-3.29,13.42-1.34,18.8.89a10.61,10.61,0,0,0,11.16-2c4.92-4.44,14.09-9.44,28.57-5.5a10.31,10.31,0,0,0,5.67-.11c6-1.84,20.38-5,30.79,2.06a10.51,10.51,0,0,0,11.28.43l.14-.09c4.86-3,27.55,25.18,27.55,25.18S506.49,501.19,498.12,503.89Z"/><path class="cls-9" d="M498.12,503.89s-15.85,24.56-65.37,21.93c-46.64-2.44-69.41-25.44-68.32-33.57s-3-27.88,7-33.57c5.8-3.29,13.42-1.34,18.8.89a10.61,10.61,0,0,0,11.16-2c4.92-4.44,14.09-9.44,28.57-5.5a10.31,10.31,0,0,0,5.67-.11c6-1.84,20.38-5,30.79,2.06a10.51,10.51,0,0,0,11.28.43l.14-.09c4.86-3,27.55,25.18,27.55,25.18S506.49,501.19,498.12,503.89Z"/><circle class="cls-8" cx="431.98" cy="481.94" r="32.33"/><circle class="cls-6" cx="431.98" cy="481.94" r="32.33"/><path class="cls-3" d="M423.26,453.32c-3.38.91-6.7,2.67-8.35,5.55-1,1.73-1.34,3.82-2.78,5.26-2,2.06-5.47,2.1-8.23,3.25s-4.57,5.21-1.87,6.49c-2.81.15-4.89,2.75-5.24,5.34s.63,5.17,1.57,7.64c3.09,8,6.41,16.32,13.21,22,11.08,9.27,27.79,8.84,42.68,7.86a6.92,6.92,0,0,0,3.5-.82c1.61-1.07,1.81-3.12,2.08-4.92,1.12-7.7,5.28-14.68,8-22s3.83-16-.74-22.47C460.35,456.83,434.59,450.23,423.26,453.32Z"/><path class="cls-8" d="M487.81,317.78l-.93,6.94L476,326.19s-1.18-2.44-2.85-6.19l14.52-2.63Z"/><path class="cls-9" d="M498.4,487.81l7-7.91L504,436.27a66.71,66.71,0,0,0,1.41-9.54c.28-4.64-3.52-15-3.52-15a31.94,31.94,0,0,1,2.39-6c1.69-3.28-2.38-10.64-2.38-10.64s-6.05-19.08-3.52-28.63-.62-15-.62-15-2.47-10.63-2.19-15S490,328,490,328l-4.49-10.64-18,3.28v36.81s1.12,35.18,0,42,2.25,13.36,2.25,13.36-2,10.09-.28,13.91,5.06,13.09,5.06,13.09a20.67,20.67,0,0,0,.56,9.94c1.69,4.78,0,7.51,0,7.51Z"/><path d="M547.57,56.21a66.74,66.74,0,0,0-1.22,14.17,67.46,67.46,0,0,1,1.25-11.77c.72-3.54,1.63-7.36,1.43-10.89a66.07,66.07,0,0,1-1.46,8.49Z"/><path d="M461.89,89.13c-.86-.79-1.9-1.35-2.79-2.11a10.86,10.86,0,0,1-3.56-8c-.24,4,.59,7.85,3.56,10.37.89.76,1.93,1.33,2.79,2.12a9.64,9.64,0,0,1,2.94,6.66C465.06,94.84,464.37,91.35,461.89,89.13Z"/><path d="M459.31,59.35a14.9,14.9,0,0,0-.44-5c-.47-1.7-1.31-3.37-1.62-5.09,0,.19-.07.38-.09.58-.24,2.39,1.08,4.6,1.71,6.91a13.53,13.53,0,0,1,.44,2.62Z"/><path d="M544.14,85.62c-2.24,2.39-5.82,3-9.11,2.95s-6.62-.55-9.86.09c-2.25.45-4.54,1.45-6.76.8-3-.87-4.28-4.79-7.2-5.54-3.34-.86-5.87,3.63-8.11,5.41-5.47,4.31-13.15,4.27-20.15,4-3-.13-6.64.1-7.92,2.74a3.66,3.66,0,0,0-.24,2.58l-9.91,1.53a17.78,17.78,0,0,1-.26,2.4l10.17-1.6a3.66,3.66,0,0,1,.24-2.58c1.28-2.64,5-2.88,7.92-2.74,7,.32,14.68.36,20.15-4,2.27-1.79,4.81-6.28,8.11-5.41,2.92.75,4.15,4.67,7.2,5.54,2.22.62,4.51-.38,6.76-.8,3.25-.64,6.57-.11,9.86-.09s6.87-.59,9.11-3,2.57-5.9,2.43-9.34C546.48,81.27,545.92,83.74,544.14,85.62Z"/><path d="M404.61,469.31c2.71-1.12,6.1-1.16,8.13-3.18,1.42-1.41,1.76-3.45,2.74-5.14,1.6-2.83,4.91-4.54,8.25-5.44,11.18-3,36.67,3.43,43.31,12.78a17.27,17.27,0,0,1,3,9.6,17.84,17.84,0,0,0-3-11.18c-6.64-9.35-32.11-15.8-43.31-12.78-3.34.9-6.63,2.61-8.25,5.43-1,1.7-1.33,3.74-2.75,5.15-2,2-5.41,2.05-8.13,3.18-2.06.85-3.6,3.36-3,5a5.45,5.45,0,0,1,3-3.46Z"/><path d="M397.58,480.85c.33-2.54,2.39-5.08,5.18-5.23a2.1,2.1,0,0,1-1.22-1.36,6.18,6.18,0,0,0-4,5,8,8,0,0,0,0,1.95A1.46,1.46,0,0,0,397.58,480.85Z"/><rect class="cls-11" x="496.63" y="188.07" width="73.47" height="96.98"/><rect class="cls-8" x="496.63" y="188.07" width="73.47" height="96.98"/><polygon class="cls-11" points="524.89 205.4 597.76 192.86 614.1 287.95 541.24 300.49 524.89 205.4"/><polygon class="cls-12" points="542.55 270.23 559.67 267.28 563.51 289.62 546.39 292.56 542.55 270.23"/><polygon class="cls-12" points="566.24 266.14 583.36 263.2 587.2 285.54 570.08 288.48 566.24 266.14"/><polygon class="cls-12" points="540.06 240.78 600.1 230.47 603.95 252.91 543.91 263.22 540.06 240.78"/><polygon class="cls-12" points="535.06 214 595.1 203.68 595.96 208.69 535.92 219.01 535.06 214"/><polygon class="cls-12" points="537.03 223.21 597.07 212.89 597.93 217.9 537.89 228.22 537.03 223.21"/><path class="cls-6" d="M535.74,161.63S502.13,195.74,519,204.4s27.86-28.83,27.86-28.83l2.67-8.53Z"/><path class="cls-8" d="M533.39,157.75,529,167.09s21.87,2.92,26.44,9.23l-2.71-16.48-3.22-7Z"/><path class="cls-9" d="M533.39,157.75,529,167.09s21.87,2.92,26.44,9.23l-2.71-16.48-3.22-7Z"/><polygon class="cls-14" points="660.96 328.83 660.51 329.14 661.13 329.42 661.79 329.36 661.88 328.9 660.96 328.83"/><polygon class="cls-8" points="660.96 328.83 660.51 329.14 661.13 329.42 661.79 329.36 661.88 328.9 660.96 328.83"/><polygon class="cls-15" points="661.6 329.27 661.14 329.56 660.79 329.12 661.01 328.76 661.21 328.7 661.6 329.27"/><polygon class="cls-8" points="661.6 329.27 661.14 329.56 660.79 329.12 661.01 328.76 661.21 328.7 661.6 329.27"/><path class="cls-15" d="M740.54,273.11l-33.26-48.06a3.94,3.94,0,0,0-5.5-1l-74.13,50.9a4,4,0,0,0-1,5.52l33.17,48.67Z"/><path class="cls-8" d="M740.54,273.11l-33.26-48.06a3.94,3.94,0,0,0-5.5-1l-74.13,50.9a4,4,0,0,0-1,5.52l33.17,48.67Z"/><path class="cls-15" d="M740.54,273.08l-33.25-48a4,4,0,0,0-2.55-1.65,4,4,0,0,0-3,.64L627.66,275a4,4,0,0,0-1,5.52l33.16,48.66Z"/><path class="cls-14" d="M769.28,282.06l-27.54-8.77-80.55,55.37,28,9.08a4.27,4.27,0,0,0,3.75-.56l76.59-53.63a.8.8,0,0,0,.4-.82A.81.81,0,0,0,769.28,282.06Z"/><path class="cls-8" d="M769.28,282.06l-27.54-8.77-80.55,55.37,28,9.08a4.27,4.27,0,0,0,3.75-.56l76.59-53.63a.8.8,0,0,0,.4-.82A.81.81,0,0,0,769.28,282.06Z"/><path class="cls-14" d="M769.3,282.07l-27.54-8.78-80.57,55.38,28,9.06a4.24,4.24,0,0,0,3.75-.55l76.6-53.64a.79.79,0,0,0,.38-.81A.81.81,0,0,0,769.3,282.07Z"/><path d="M728.08,270.67,726,267.74a.83.83,0,0,0-1.12-.2l-3.07,2a.8.8,0,0,0-.22,1.1l1.9,2.89a.82.82,0,0,0,1.11.24l3.23-2a.81.81,0,0,0,.23-1.11Z"/><path d="M722.57,274.45l-2.07-2.92a.82.82,0,0,0-1.12-.21l-3.06,2.05a.8.8,0,0,0-.23,1.1l1.9,2.89a.82.82,0,0,0,1.11.24l3.24-2a.87.87,0,0,0,.36-.52A.84.84,0,0,0,722.57,274.45Z"/><path d="M716.78,278.42l-2.08-2.93a.82.82,0,0,0-1.11-.2l-3.07,2a.81.81,0,0,0-.23,1.11l1.9,2.89a.85.85,0,0,0,1.12.24l3.23-2a.81.81,0,0,0,.24-1.14Z"/><path d="M710.91,282.44l-2.07-2.93a.83.83,0,0,0-1.11-.21l-3.07,2.06a.79.79,0,0,0-.22,1.09l1.9,2.9a.83.83,0,0,0,1.1.24l3.24-2a.82.82,0,0,0,.35-.52A.78.78,0,0,0,710.91,282.44Z"/><path d="M705.05,286.45,703,283.53a.83.83,0,0,0-1.12-.2l-3.06,2a.81.81,0,0,0-.23,1.1l1.9,2.89a.82.82,0,0,0,1.11.24l3.24-2a.82.82,0,0,0,.35-.52A.79.79,0,0,0,705.05,286.45Z"/><path d="M699.45,290.83l-2.58-3.63a.33.33,0,0,0-.23-.15.39.39,0,0,0-.28.05l-3.77,2.52a.35.35,0,0,0-.17.24.33.33,0,0,0,.06.27l2.36,3.6a.38.38,0,0,0,.52.11l4-2.44a.38.38,0,0,0,.11-.57Z"/><path d="M693.59,294.85,691,291.22a.38.38,0,0,0-.24-.16.37.37,0,0,0-.29.06l-3.77,2.52a.38.38,0,0,0-.1.51l2.37,3.59a.33.33,0,0,0,.23.17.35.35,0,0,0,.28-.06l4-2.44a.36.36,0,0,0,.2-.25.35.35,0,0,0-.07-.31Z"/><path d="M688.4,298.41l-2.58-3.6a.38.38,0,0,0-.52-.09l-3.76,2.51a.37.37,0,0,0-.11.52l2.36,3.59a.38.38,0,0,0,.52.11l4-2.44a.37.37,0,0,0,.11-.6Z"/><path d="M682.59,302.38,680,298.75a.38.38,0,0,0-.51-.09l-3.77,2.51a.35.35,0,0,0-.17.24.36.36,0,0,0,.06.28l2.36,3.59a.38.38,0,0,0,.52.11l4-2.44a.36.36,0,0,0,.19-.26.39.39,0,0,0-.08-.31Z"/><path d="M677,306.21l-2.57-3.63a.43.43,0,0,0-.24-.16.35.35,0,0,0-.28.06L670.1,305a.35.35,0,0,0-.16.23.39.39,0,0,0,0,.28l2.36,3.59a.38.38,0,0,0,.52.11l4-2.44a.37.37,0,0,0,.11-.56Z"/><path d="M671.33,310.1l-2.55-3.64a.39.39,0,0,0-.52-.09l-3.76,2.51a.35.35,0,0,0-.17.24.35.35,0,0,0,.06.28l2.36,3.59a.4.4,0,0,0,.52.12l4-2.45a.36.36,0,0,0,.17-.26.33.33,0,0,0-.09-.3Z"/><path d="M665.71,314l-2.58-3.63a.4.4,0,0,0-.24-.16.45.45,0,0,0-.28.06l-3.77,2.5a.4.4,0,0,0-.16.24.36.36,0,0,0,.06.28l2.36,3.59a.38.38,0,0,0,.52.11l4-2.44a.39.39,0,0,0,.17-.25A.4.4,0,0,0,665.71,314Z"/><path d="M724.38,265.37l-2.07-2.93a.83.83,0,0,0-1.12-.2l-3,2.05a.81.81,0,0,0-.23,1.1l1.9,2.89a.82.82,0,0,0,1.11.23l3.24-2A.8.8,0,0,0,724.38,265.37Z"/><path d="M716.28,253.78l-2.08-2.95a.84.84,0,0,0-1.11-.2L710,252.68a.8.8,0,0,0-.23,1.09l1.9,2.9a.83.83,0,0,0,1.11.24l3.25-2A.82.82,0,0,0,716.28,253.78Z"/><path d="M718.86,269.15l-2.07-2.92a.83.83,0,0,0-1.11-.21l-3.07,2.05a.81.81,0,0,0-.23,1.1l1.9,2.89a.82.82,0,0,0,1.11.24l3.24-2a.87.87,0,0,0,.36-.52A.84.84,0,0,0,718.86,269.15Z"/><path d="M713.07,273.11,711,270.19a.83.83,0,0,0-1.12-.2l-3.06,2a.81.81,0,0,0-.23,1.1l1.9,2.9a.82.82,0,0,0,1.11.23l3.25-2A.82.82,0,0,0,713.07,273.11Z"/><path d="M707.2,277.14l-2.07-2.93A.81.81,0,0,0,704,274L701,276.08a.81.81,0,0,0-.23,1.1l1.91,2.89a.83.83,0,0,0,1.11.24l3.23-2a.79.79,0,0,0,.36-.53A.77.77,0,0,0,707.2,277.14Z"/><path d="M710.89,257.75l-2.08-2.93a.84.84,0,0,0-1.11-.2l-3.07,2.05a.8.8,0,0,0-.23,1.09l1.9,2.9a.83.83,0,0,0,1.11.24l3.25-2a.82.82,0,0,0,.35-.52A.79.79,0,0,0,710.89,257.75Z"/><path d="M705.09,261.72,703,258.79a.83.83,0,0,0-1.12-.2l-3.06,2a.81.81,0,0,0-.23,1.1l1.9,2.89a.82.82,0,0,0,1.11.23l3.24-2a.8.8,0,0,0,.23-1.1Z"/><path d="M699.23,265.74l-2.08-2.93a.83.83,0,0,0-1.11-.21L693,264.68a.82.82,0,0,0-.22,1.1l1.9,2.89a.83.83,0,0,0,1.11.24l3.24-2a.79.79,0,0,0,.36-.53A.77.77,0,0,0,699.23,265.74Z"/><path d="M701.34,281.15l-2.07-2.92a.82.82,0,0,0-1.11-.21l-3,2.05a.82.82,0,0,0-.22,1.1l1.87,2.89a.82.82,0,0,0,1.1.24l3.24-2a.75.75,0,0,0,.36-.51A.79.79,0,0,0,701.34,281.15Z"/><path d="M695.48,285.17l-2.07-2.93a.83.83,0,0,0-1.12-.2l-3.06,2a.81.81,0,0,0-.23,1.1l1.9,2.89a.83.83,0,0,0,1.11.25l3.24-2a.79.79,0,0,0,.36-.53A.78.78,0,0,0,695.48,285.17Z"/><path d="M689.88,289.55l-2.58-3.63a.34.34,0,0,0-.23-.16.35.35,0,0,0-.28.06L683,288.33a.37.37,0,0,0-.17.24.35.35,0,0,0,.06.28l2.36,3.59a.37.37,0,0,0,.24.16.32.32,0,0,0,.28-.05l4-2.44a.36.36,0,0,0,.19-.26A.36.36,0,0,0,689.88,289.55Z"/><path d="M684.69,293.11l-2.58-3.64a.37.37,0,0,0-.52-.09l-3.76,2.5a.38.38,0,0,0-.1.53l2.36,3.59a.38.38,0,0,0,.52.11l4-2.44a.36.36,0,0,0,.1-.56Z"/><path d="M678.88,297.08l-2.58-3.63a.38.38,0,0,0-.52-.09L672,295.87a.33.33,0,0,0-.17.23.35.35,0,0,0,.06.28l2.36,3.6a.38.38,0,0,0,.52.11l4-2.44a.38.38,0,0,0,.11-.57Z"/><path d="M673.25,300.94l-2.57-3.63a.43.43,0,0,0-.24-.16.35.35,0,0,0-.28.06l-3.77,2.48a.36.36,0,0,0-.16.24.39.39,0,0,0,0,.28l2.36,3.59a.38.38,0,0,0,.52.11l4-2.44a.37.37,0,0,0,.17-.24.37.37,0,0,0-.06-.29Z"/><path d="M709.21,267.6l-2.08-2.92a.83.83,0,0,0-1.11-.21L703,266.53a.82.82,0,0,0-.22,1.1l1.9,2.89a.83.83,0,0,0,1.11.23l3.24-2a.82.82,0,0,0,.35-.52A.8.8,0,0,0,709.21,267.6Z"/><path d="M703.34,271.62l-2.07-2.93a.83.83,0,0,0-1.12-.2l-3.06,2.05a.81.81,0,0,0-.23,1.1l1.9,2.89a.84.84,0,0,0,1.11.25l3.24-2a.82.82,0,0,0,.35-.52.8.8,0,0,0-.12-.62Z"/><path d="M697.49,275.64l-2.07-2.92a.82.82,0,0,0-1.12-.21l-3.07,2.05a.8.8,0,0,0-.22,1.1l1.9,2.89a.82.82,0,0,0,1.11.24l3.23-2a.81.81,0,0,0,.36-.52.82.82,0,0,0-.12-.61Z"/><path d="M691.62,279.65l-2.07-2.92a.82.82,0,0,0-1.11-.2l-3.07,2a.81.81,0,0,0-.22,1.1l1.9,2.92a.83.83,0,0,0,1.1.25l3.24-2a.84.84,0,0,0,.38-.54A.82.82,0,0,0,691.62,279.65Z"/><path d="M686.06,284l-2.57-3.63a.38.38,0,0,0-.52-.09l-3.77,2.51a.37.37,0,0,0-.11.51l2.36,3.6a.36.36,0,0,0,.24.16.39.39,0,0,0,.28,0l4-2.44a.38.38,0,0,0,.11-.57Z"/><path d="M680.84,287.59,678.26,284a.4.4,0,0,0-.53-.09L674,286.37a.38.38,0,0,0-.1.52l2.36,3.59a.37.37,0,0,0,.52.12l4-2.44a.37.37,0,0,0,.18-.26.35.35,0,0,0-.07-.31Z"/><path d="M675,291.55l-2.58-3.64a.39.39,0,0,0-.52-.09l-3.77,2.51a.38.38,0,0,0-.11.52l2.37,3.59a.39.39,0,0,0,.52.12l4-2.45a.36.36,0,0,0,.12-.56Z"/><path d="M669.4,295.43l-2.58-3.63a.34.34,0,0,0-.24-.16.35.35,0,0,0-.28.06l-3.77,2.51a.38.38,0,0,0-.1.52l2.36,3.59a.38.38,0,0,0,.24.17.36.36,0,0,0,.28-.06l4-2.44a.36.36,0,0,0,.12-.56Z"/><path d="M667.62,304.79l-2.57-3.63a.39.39,0,0,0-.52-.09l-3.77,2.51a.38.38,0,0,0-.16.23.39.39,0,0,0,0,.28l2.36,3.6a.38.38,0,0,0,.52.11l4-2.44a.38.38,0,0,0,.18-.26.39.39,0,0,0-.08-.31Z"/><path d="M662,308.65,659.42,305a.4.4,0,0,0-.24-.16.45.45,0,0,0-.28.06l-3.77,2.52a.38.38,0,0,0-.16.23.35.35,0,0,0,.06.28l2.36,3.59a.38.38,0,0,0,.51.12l4-2.45a.36.36,0,0,0,.18-.25A.39.39,0,0,0,662,308.65Z"/><path d="M670.83,285.57l-2.47-3.42a.52.52,0,0,0-.7-.12l-3.55,2.37a.52.52,0,0,0-.22.32.49.49,0,0,0,.08.37l2.22,3.38a.44.44,0,0,0,.31.22.5.5,0,0,0,.38-.06l3.76-2.34a.51.51,0,0,0,.19-.72Z"/><path d="M665.2,289.43,662.78,286a.56.56,0,0,0-.33-.21.54.54,0,0,0-.37.08l-3.56,2.41a.49.49,0,0,0-.21.32.48.48,0,0,0,.07.37l2.22,3.39a.52.52,0,0,0,.69.15l3.77-2.34a.5.5,0,0,0,.24-.34.51.51,0,0,0-.1-.41Z"/><path d="M659.58,293.29l-2.43-3.42a.51.51,0,0,0-.7-.13l-3.56,2.37a.49.49,0,0,0-.21.32.48.48,0,0,0,.07.37l2.23,3.38a.48.48,0,0,0,.31.23.52.52,0,0,0,.38-.07l3.76-2.34a.5.5,0,0,0,.23-.32A.6.6,0,0,0,659.58,293.29Z"/><path d="M654,297.25l-2.57-3.64a.39.39,0,0,0-.52-.09L647.16,296a.38.38,0,0,0-.11.52l2.36,3.59a.4.4,0,0,0,.52.12l4-2.45a.34.34,0,0,0,.2-.25A.35.35,0,0,0,654,297.25Z"/><path d="M720.62,259.67l-2.23-3.13a.82.82,0,0,0-1.12-.2l-8.7,6a.81.81,0,0,0-.22,1.09l2.1,3.21a.81.81,0,0,0,.53.35.83.83,0,0,0,.61-.13l8.84-6.11A.81.81,0,0,0,720.62,259.67Z"/><path d="M663.76,299.16,661,295.35a.34.34,0,0,0-.24-.16.35.35,0,0,0-.28.07l-9.4,6.51a.37.37,0,0,0-.1.51l2.57,3.93a.38.38,0,0,0,.53.1l9.56-6.62a.39.39,0,0,0,.1-.53Z"/><path d="M693.65,270l-2.52-3.65a.38.38,0,0,0-.52-.1l-20.86,13.94a.36.36,0,0,0-.11.51l2.57,3.91a.39.39,0,0,0,.25.17.38.38,0,0,0,.29-.06l20.8-14.2a.43.43,0,0,0,.16-.24A.39.39,0,0,0,693.65,270Z"/><path class="cls-14" d="M728.66,270.35l-1.8-2.63a.71.71,0,0,0-1-.18l-2.67,1.84a.75.75,0,0,0-.2,1l1.66,2.6a.72.72,0,0,0,1,.22l2.82-1.82a.74.74,0,0,0,.31-.46.75.75,0,0,0-.11-.56Z"/><path class="cls-14" d="M722.78,273.29l-1.8-2.63a.71.71,0,0,0-1-.19l-2.67,1.84a.73.73,0,0,0-.2,1l1.65,2.61a.72.72,0,0,0,1,.22l2.82-1.82a.74.74,0,0,0,.2-1Z"/><path class="cls-14" d="M716.9,276.23l-1.8-2.63a.72.72,0,0,0-1-.19l-2.66,1.85a.75.75,0,0,0-.2,1l1.65,2.6a.71.71,0,0,0,1,.21l2.82-1.81a.68.68,0,0,0,.31-.47.71.71,0,0,0-.11-.55Z"/><path class="cls-14" d="M711,282.09l-1.8-2.62a.7.7,0,0,0-1-.18l-2.66,1.83a.75.75,0,0,0-.19,1l1.65,2.58a.7.7,0,0,0,1,.22l2.81-1.8a.73.73,0,0,0,.32-.48A.72.72,0,0,0,711,282.09Z"/><path class="cls-14" d="M705.15,285l-1.81-2.63a.7.7,0,0,0-1-.18l-2.68,1.84a.74.74,0,0,0-.19,1l1.65,2.6a.71.71,0,0,0,1,.22l2.82-1.82a.73.73,0,0,0,.31-.47A.71.71,0,0,0,705.15,285Z"/><path class="cls-14" d="M699.33,291.24l-2.13-3.11a.35.35,0,0,0-.2-.14.32.32,0,0,0-.23.05l-3.11,2.16a.28.28,0,0,0-.13.2.34.34,0,0,0,0,.24l1.95,3.08a.32.32,0,0,0,.43.1l3.29-2.1a.33.33,0,0,0,.09-.48Z"/><path class="cls-14" d="M693.45,294.18l-2.13-3.11a.27.27,0,0,0-.2-.14.32.32,0,0,0-.23.05l-3.11,2.16a.26.26,0,0,0-.13.2.34.34,0,0,0,0,.24l1.95,3.08a.35.35,0,0,0,.2.14.31.31,0,0,0,.23-.05l3.29-2.09a.31.31,0,0,0,.15-.22.3.3,0,0,0-.06-.26Z"/><path class="cls-14" d="M687.59,297.13,685.45,294a.31.31,0,0,0-.43-.08l-3.12,2.13a.34.34,0,0,0-.09.45l2,3.1a.32.32,0,0,0,.43.09l3.3-2.1a.34.34,0,0,0,.14-.21A.43.43,0,0,0,687.59,297.13Z"/><path class="cls-14" d="M684.62,300l-2.12-3.1a.31.31,0,0,0-.43-.07L679,299a.35.35,0,0,0-.14.2.37.37,0,0,0,0,.25l1.94,3.08a.32.32,0,0,0,.43.09l3.28-2.09a.33.33,0,0,0,.17-.23.32.32,0,0,0-.08-.28Z"/><path class="cls-14" d="M678.76,305.93l-2.13-3.11a.3.3,0,0,0-.2-.13.28.28,0,0,0-.23.05l-3.11,2.15a.35.35,0,0,0-.14.2.34.34,0,0,0,0,.24l2,3.08a.3.3,0,0,0,.19.14.33.33,0,0,0,.24,0l3.29-2.1a.3.3,0,0,0,.15-.22A.34.34,0,0,0,678.76,305.93Z"/><path class="cls-14" d="M672.88,308.87l-2.13-3.12a.32.32,0,0,0-.43-.08l-3.11,2.15a.34.34,0,0,0-.09.45l2,3.08a.31.31,0,0,0,.43.1l3.29-2.1a.27.27,0,0,0,.15-.22A.31.31,0,0,0,672.88,308.87Z"/><path class="cls-14" d="M667,311.81l-2.13-3.11a.3.3,0,0,0-.19-.14.36.36,0,0,0-.23.05l-3.12,2.16a.35.35,0,0,0-.13.2.3.3,0,0,0,0,.24l2,3.08a.3.3,0,0,0,.19.14.27.27,0,0,0,.23-.05l3.29-2.09a.36.36,0,0,0,.16-.22.35.35,0,0,0-.07-.26Z"/><path class="cls-14" d="M725.72,264.48l-1.8-2.64a.71.71,0,0,0-1-.18l-2.68,1.84a.74.74,0,0,0-.19,1l1.65,2.6a.71.71,0,0,0,1,.22l2.82-1.82a.72.72,0,0,0,.2-1Z"/><path class="cls-14" d="M716.9,252.72l-1.8-2.63a.71.71,0,0,0-1-.19l-2.68,1.84a.75.75,0,0,0-.19,1l1.66,2.61a.71.71,0,0,0,1,.22l2.82-1.81a.72.72,0,0,0,.31-.47A.73.73,0,0,0,716.9,252.72Z"/><path class="cls-14" d="M719.85,267.43,718,264.78a.7.7,0,0,0-1-.19l-2.68,1.85a.75.75,0,0,0-.19,1l1.66,2.6a.71.71,0,0,0,1,.22l2.83-1.81A.74.74,0,0,0,719.85,267.43Z"/><path class="cls-14" d="M714,273.29l-1.79-2.63a.7.7,0,0,0-1-.19l-2.68,1.84a.74.74,0,0,0-.19,1l1.65,2.6a.71.71,0,0,0,1,.21l2.83-1.81a.71.71,0,0,0,.3-.47A.75.75,0,0,0,714,273.29Z"/><path class="cls-14" d="M708.09,276.23l-1.81-2.63a.7.7,0,0,0-1-.19l-2.67,1.85a.75.75,0,0,0-.2,1l1.66,2.6a.71.71,0,0,0,1,.21l2.82-1.81a.76.76,0,0,0,.31-.47A.71.71,0,0,0,708.09,276.23Z"/><path class="cls-14" d="M711,255.67,709.22,253a.71.71,0,0,0-1-.18l-2.67,1.84a.75.75,0,0,0-.2,1l1.66,2.61a.71.71,0,0,0,1,.22l2.83-1.82a.73.73,0,0,0,.2-1Z"/><path class="cls-14" d="M705.15,261.54l-1.8-2.64a.71.71,0,0,0-1-.18l-2.68,1.84a.75.75,0,0,0-.2,1l1.66,2.6a.71.71,0,0,0,1,.22l2.82-1.81a.76.76,0,0,0,.31-.47A.71.71,0,0,0,705.15,261.54Z"/><path class="cls-14" d="M699.27,264.47l-1.8-2.63a.71.71,0,0,0-1-.18l-2.66,1.84a.73.73,0,0,0-.2,1l1.65,2.61a.71.71,0,0,0,1,.22l2.82-1.82a.71.71,0,0,0,.31-.46A.73.73,0,0,0,699.27,264.47Z"/><path class="cls-14" d="M702.22,279.17l-1.81-2.64a.71.71,0,0,0-1-.18l-2.68,1.83a.74.74,0,0,0-.19,1l1.66,2.62a.71.71,0,0,0,1,.22l2.83-1.83A.75.75,0,0,0,702.22,279.17Z"/><path class="cls-14" d="M696.32,285l-1.8-2.61a.71.71,0,0,0-1-.18l-2.66,1.86a.74.74,0,0,0-.2,1l1.65,2.58a.7.7,0,0,0,1,.22l2.82-1.8a.7.7,0,0,0,.32-.48A.75.75,0,0,0,696.32,285Z"/><path class="cls-14" d="M690.5,288.3l-2.13-3.11a.35.35,0,0,0-.2-.14.37.37,0,0,0-.23.05l-3.1,2.16a.34.34,0,0,0-.13.2.3.3,0,0,0,0,.24l2,3.08a.35.35,0,0,0,.2.14.28.28,0,0,0,.23-.05l3.3-2.09a.3.3,0,0,0,.14-.23.33.33,0,0,0-.08-.25Z"/><path class="cls-14" d="M684.63,291.24l-2.12-3.12a.32.32,0,0,0-.44-.08L679,290.19a.34.34,0,0,0-.09.45l2,3.08a.32.32,0,0,0,.43.1l3.28-2.1a.31.31,0,0,0,.09-.48Z"/><path class="cls-14" d="M678.75,297.12,676.62,294a.3.3,0,0,0-.42-.08l-3.11,2.15a.34.34,0,0,0-.09.45l2,3.08a.31.31,0,0,0,.42.09l3.29-2.09a.31.31,0,0,0,.09-.48Z"/><path class="cls-14" d="M672.87,300.06l-2.11-3.12a.3.3,0,0,0-.2-.13.28.28,0,0,0-.23.05L667.21,299a.32.32,0,0,0-.09.43l2,3.08a.3.3,0,0,0,.42.1l3.3-2.09a.34.34,0,0,0,.15-.23.32.32,0,0,0-.08-.25Z"/><path class="cls-14" d="M711,267.42l-1.8-2.64a.71.71,0,0,0-1-.18l-2.67,1.84a.75.75,0,0,0-.2,1L707,270a.71.71,0,0,0,1,.22l2.82-1.81a.74.74,0,0,0,.2-1Z"/><path class="cls-14" d="M705.15,270.35l-1.81-2.63a.7.7,0,0,0-1-.19l-2.68,1.85a.74.74,0,0,0-.19,1l1.65,2.6a.72.72,0,0,0,1,.22l2.82-1.82a.73.73,0,0,0,.2-1Z"/><path class="cls-14" d="M699.26,273.29l-1.83-2.63a.71.71,0,0,0-1-.18l-2.62,1.83a.73.73,0,0,0-.2,1l1.66,2.61a.72.72,0,0,0,1,.22l2.83-1.82a.71.71,0,0,0,.3-.48.73.73,0,0,0-.13-.54Z"/><path class="cls-14" d="M693.39,279.17l-1.8-2.64a.71.71,0,0,0-1-.18L688,278.19a.74.74,0,0,0-.2,1l1.66,2.61a.72.72,0,0,0,1,.22l2.82-1.82a.65.65,0,0,0,.31-.47A.71.71,0,0,0,693.39,279.17Z"/><path class="cls-14" d="M687.57,282.42l-2.12-3.11a.32.32,0,0,0-.44-.08l-3.11,2.15a.33.33,0,0,0-.09.44l2,3.08a.35.35,0,0,0,.2.14.3.3,0,0,0,.24-.05l3.28-2.09a.31.31,0,0,0,.16-.22A.35.35,0,0,0,687.57,282.42Z"/><path class="cls-14" d="M681.69,285.36l-2.14-3.11a.3.3,0,0,0-.19-.14.31.31,0,0,0-.23.06l-3.1,2.15a.31.31,0,0,0-.09.44l1.95,3.08a.31.31,0,0,0,.43.1l3.3-2.09a.31.31,0,0,0,.14-.23A.35.35,0,0,0,681.69,285.36Z"/><path class="cls-14" d="M675.82,291.24l-2.13-3.12a.32.32,0,0,0-.44-.08l-3.1,2.15a.34.34,0,0,0-.09.45l2,3.08a.32.32,0,0,0,.43.1l3.29-2.1a.34.34,0,0,0,.15-.22A.3.3,0,0,0,675.82,291.24Z"/><path class="cls-14" d="M669.94,294.18l-2.12-3.11a.31.31,0,0,0-.21-.14.32.32,0,0,0-.23.05l-3.11,2.16a.29.29,0,0,0-.13.2.34.34,0,0,0,0,.24l2,3.08a.3.3,0,0,0,.19.14.31.31,0,0,0,.23-.05l3.29-2.09a.31.31,0,0,0,.15-.22.3.3,0,0,0-.06-.26Z"/><path class="cls-14" d="M667,303l-2.12-3.13a.32.32,0,0,0-.44-.07L661.33,302a.33.33,0,0,0-.09.44l2,3.08a.31.31,0,0,0,.43.1l3.28-2.09a.3.3,0,0,0,.16-.22A.3.3,0,0,0,667,303Z"/><path class="cls-14" d="M664.06,308.87l-2.12-3.11a.35.35,0,0,0-.2-.14.39.39,0,0,0-.24.05l-3.11,2.16a.33.33,0,0,0-.09.44l2,3.08a.35.35,0,0,0,.2.14.3.3,0,0,0,.24-.05l3.28-2.09a.31.31,0,0,0,.16-.22.35.35,0,0,0-.07-.26Z"/><path class="cls-14" d="M672.88,285.27l-2-3a.42.42,0,0,0-.58-.11l-3,2.06a.46.46,0,0,0-.12.61l1.86,2.94a.42.42,0,0,0,.59.13l3.14-2a.43.43,0,0,0,.21-.28A.5.5,0,0,0,672.88,285.27Z"/><path class="cls-14" d="M667,288.21l-2-3a.43.43,0,0,0-.28-.18.38.38,0,0,0-.31.06l-3,2.07a.44.44,0,0,0-.12.59l1.87,3a.43.43,0,0,0,.59.13l3.16-2a.47.47,0,0,0,.18-.29.4.4,0,0,0-.07-.33Z"/><path class="cls-14" d="M661.13,291.15l-2.07-3a.42.42,0,0,0-.58-.11l-3,2.06a.44.44,0,0,0-.11.6l1.85,2.95a.43.43,0,0,0,.59.13l3.14-2a.39.39,0,0,0,.21-.27.45.45,0,0,0,0-.34Z"/><path class="cls-14" d="M655.25,297.12,653.12,294a.31.31,0,0,0-.43-.08l-3.12,2.15a.34.34,0,0,0-.08.45l2,3.07a.3.3,0,0,0,.43.1l3.29-2.09a.33.33,0,0,0,.09-.48Z"/><path class="cls-14" d="M719.84,259.43,717.78,256a.7.7,0,0,0-1-.21l-8.21,6.55a1,1,0,0,0-.2,1.18l2,3.49a.8.8,0,0,0,.5.37.69.69,0,0,0,.58-.14l8.27-6.63A1,1,0,0,0,719.84,259.43Z"/><path class="cls-14" d="M664.07,298l-2.49-4a.35.35,0,0,0-.23-.16.29.29,0,0,0-.25.07l-8.57,6.84a.43.43,0,0,0-.1.54l2.35,4.12a.36.36,0,0,0,.23.17.3.3,0,0,0,.26-.06L664,298.6a.45.45,0,0,0,.08-.56Z"/><path class="cls-14" d="M693.44,268.07,691,264.63a.39.39,0,0,0-.51-.1l-20.34,13.22a.32.32,0,0,0-.16.22.37.37,0,0,0,.05.27l2.51,3.71a.36.36,0,0,0,.23.15.42.42,0,0,0,.29-.05l20.28-13.48A.35.35,0,0,0,693.44,268.07Z"/><path class="cls-8" d="M693.17,258l-10.69-16.09a1.94,1.94,0,0,0-2.74-.54l-29.43,20.47a2.11,2.11,0,0,0-.84,1.32,2.21,2.21,0,0,0,.31,1.55l10.89,16.55a2,2,0,0,0,1.28.86,1.89,1.89,0,0,0,1.49-.32l29.22-20.95a2.09,2.09,0,0,0,.83-1.32A2.12,2.12,0,0,0,693.17,258Z"/><path class="cls-16" d="M696.1,258l-10.69-16.09a1.94,1.94,0,0,0-2.74-.54l-29.41,20.49a2.07,2.07,0,0,0-.85,1.31,2.11,2.11,0,0,0,.31,1.55l10.87,16.54a2,2,0,0,0,1.27.86,1.88,1.88,0,0,0,1.49-.32l29.26-20.95a2.08,2.08,0,0,0,.49-2.85Z"/><path class="cls-12" d="M763.44,283.89l-22.9-7.66-73.47,51.14,22.74,7.43a4.14,4.14,0,0,0,3.67-.55l70.17-48.89a.82.82,0,0,0,.39-.81.8.8,0,0,0-.6-.66Z"/></g></g></svg>