<?xml version="1.0" encoding="utf-8"?>
<!-- Generator: Adobe Illustrator 23.0.1, SVG Export Plug-In . SVG Version: 6.00 Build 0)  -->
<svg version="1.1" id="Capa_1" xmlns="http://www.w3.org/2000/svg" xmlns:xlink="http://www.w3.org/1999/xlink" x="0px" y="0px"
	 viewBox="0 0 110 26" style="enable-background:new 0 0 110 26;" xml:space="preserve">
<title>Combined Shape</title>
<desc>Created by StudioNZ</desc>
<g id="PC">
	<g transform="translate(-219.000000, -5772.000000)">
		<g id="Group-12" transform="translate(219.000000, 5772.000000)">
			<path id="Combined-Shape" d="M26,25.7l0.1-0.3c0-0.1,0.1-0.2,0.1-0.3c0.1-0.2,0.1-0.5,0.1-0.8c0-0.6-0.1-1-0.4-1.3
				c-0.3-0.3-0.8-0.4-1.5-0.4h-3.3c-0.7,0-1.3-0.1-1.8-0.3c-0.5-0.2-0.9-0.4-1.2-0.7c-0.3-0.3-0.6-0.6-0.8-0.9
				c-0.1-0.2-0.2-0.4-0.3-0.6c-0.1,0.2-0.2,0.4-0.3,0.6c-0.2,0.3-0.5,0.6-0.8,0.9c-0.3,0.3-0.8,0.5-1.3,0.7
				c-0.5,0.2-1.1,0.3-1.8,0.3H9.7c-0.7,0-1.2,0.1-1.5,0.4c-0.3,0.3-0.4,0.7-0.4,1.3c0,0.1,0,0.3,0,0.4c0,0.1,0,0.2,0.1,0.3
				c0,0.1,0.1,0.3,0.1,0.4l0,0.2L5.2,25l0-0.1c0-0.1,0-0.2-0.1-0.4c0-0.1,0-0.3-0.1-0.5c0-0.2,0-0.4,0-0.6C5,23,5.1,22.4,5.2,22
				c0.2-0.5,0.4-0.9,0.8-1.2c0.3-0.3,0.8-0.6,1.3-0.8c0.5-0.2,1.2-0.3,1.9-0.3h3.2c0.6,0,1.1-0.1,1.4-0.2c0.4-0.1,0.7-0.3,0.9-0.5
				c0.2-0.2,0.4-0.5,0.5-0.8c0.1-0.3,0.3-0.6,0.4-1l0-0.1h2.4l0,0.1c0.1,0.4,0.2,0.7,0.4,1c0.1,0.3,0.3,0.5,0.5,0.8
				c0.2,0.2,0.5,0.4,0.9,0.5c0.4,0.1,0.9,0.2,1.4,0.2h3.4c0.8,0,1.4,0.1,1.9,0.3c0.5,0.2,1,0.5,1.3,0.8c0.3,0.3,0.6,0.8,0.8,1.2
				c0.2,0.5,0.2,1,0.2,1.6c0,0.2,0,0.4,0,0.6c0,0.2,0,0.3,0,0.4c0,0.1,0,0.3-0.1,0.4l0,0.1L26,25.7z M5.5,24.7l2.1,0.5
				c0,0,0,0,0-0.1c0-0.1-0.1-0.2-0.1-0.4c0-0.1,0-0.3,0-0.4c0-0.6,0.2-1.1,0.5-1.5c0.3-0.4,0.9-0.5,1.8-0.5h3.1
				c0.7,0,1.2-0.1,1.7-0.2c0.5-0.2,0.8-0.4,1.1-0.6c0.3-0.3,0.5-0.5,0.7-0.8c0.2-0.3,0.3-0.6,0.4-0.9l0-0.1H17l0,0.1
				c0.1,0.3,0.2,0.6,0.4,0.9c0.2,0.3,0.4,0.6,0.7,0.8c0.3,0.3,0.7,0.5,1.1,0.6c0.5,0.2,1,0.2,1.7,0.2h3.3c0.9,0,1.4,0.2,1.8,0.5
				c0.3,0.4,0.5,0.9,0.5,1.5c0,0.3,0,0.6-0.1,0.8c0,0,0,0.1,0,0.1l2.1-0.5c0-0.1,0-0.2,0-0.3c0-0.1,0-0.3,0-0.4c0-0.2,0-0.3,0-0.5
				c0-0.5-0.1-1-0.2-1.5c-0.1-0.4-0.4-0.8-0.7-1.1c-0.3-0.3-0.7-0.5-1.2-0.7c-0.5-0.2-1.1-0.3-1.8-0.3h-3.4c-0.6,0-1.1-0.1-1.5-0.2
				c-0.4-0.1-0.8-0.3-1-0.6c-0.3-0.2-0.5-0.5-0.6-0.9c-0.1-0.3-0.2-0.6-0.3-0.9h-1.9c-0.1,0.3-0.2,0.6-0.3,0.9
				c-0.1,0.3-0.4,0.6-0.6,0.9c-0.3,0.3-0.6,0.4-1,0.6C13.5,19.9,13,20,12.4,20H9.2c-0.7,0-1.3,0.1-1.8,0.3C7,20.4,6.6,20.7,6.2,21
				c-0.3,0.3-0.5,0.7-0.7,1.1c-0.1,0.4-0.2,0.9-0.2,1.5c0,0.2,0,0.4,0,0.5c0,0.2,0,0.3,0.1,0.4C5.5,24.6,5.5,24.6,5.5,24.7z
				 M1.9,8.3L3.6,6l9.4,7.9l-0.6,2.6l-0.1,0L0.5,19L0,16.1l9.3-1.8L1.9,8.3z M0.4,16.4l0.4,2.2l11.3-2.4l0.5-2.2L3.7,6.5L2.4,8.2
				l7.7,6.3L0.4,16.4z M19.5,13l-2.4-1.1L17.1,0.1L20,0.2l-0.1,9.2l7.3-6L29,5.5L19.5,13z M17.5,11.7l2,0.9l9-7.1l-1.4-1.6l-7.6,6.2
				l0.1-9.6l-2.2-0.1L17.5,11.7z M13.5,13L4,5.4l1.9-2.1l7.3,6L13.1,0L16,0l-0.1,11.9L13.5,13z M4.5,5.4l9.1,7.2l2-0.9l0.1-11.4
				l-2.2,0l0.1,9.7L6,3.8L4.5,5.4z M32.5,19l-11.9-2.5L20,13.9L29.4,6l1.8,2.3l-7.4,6l9.3,1.8L32.5,19z M20.9,16.2l11.3,2.4l0.4-2.2
				l-9.7-1.9l7.7-6.2l-1.3-1.8l-9,7.5L20.9,16.2z M100,22.7V8.3h3.2l-0.2,2.5h0.1c0.3-0.8,0.8-1.4,1.4-1.9c0.6-0.5,1.3-0.8,2.2-0.8
				c0.5,0,1,0.1,1.4,0.3c0.4,0.2,0.7,0.5,1,0.8c0.3,0.3,0.5,0.7,0.7,1.2c0.2,0.5,0.2,0.9,0.2,1.5c0,0.2,0,0.4,0,0.6
				c0,0.2,0,0.3-0.1,0.5c0,0.2,0,0.3-0.1,0.5l-3,1.7c0-0.1,0-0.2,0.1-0.3c0-0.2,0.1-0.3,0.1-0.5c0-0.2,0.1-0.4,0.1-0.7
				c0-0.2,0-0.5,0-0.7c0-0.6-0.1-1-0.4-1.4c-0.3-0.4-0.7-0.6-1.2-0.6c-0.8,0-1.4,0.4-1.7,1.1c-0.4,0.7-0.5,1.6-0.5,2.6v8.2H100z
				 M85.7,13.5c-0.1,0.6-0.2,1.3-0.2,1.9s0.1,1.3,0.2,1.9c0.1,0.6,0.4,1.1,0.7,1.6c0.3,0.5,0.7,0.8,1.1,1.1c0.4,0.3,1,0.4,1.6,0.4
				c0.6,0,1.1-0.1,1.6-0.4c0.5-0.3,0.8-0.6,1.1-1.1c0.3-0.5,0.5-1,0.7-1.6c0.1-0.6,0.2-1.3,0.2-1.9s-0.1-1.3-0.2-1.9
				c-0.1-0.6-0.4-1.1-0.7-1.6c-0.3-0.5-0.7-0.8-1.1-1.1c-0.5-0.3-1-0.4-1.6-0.4c-0.6,0-1.1,0.1-1.6,0.4c-0.4,0.3-0.8,0.6-1.1,1.1
				C86,12.4,85.8,12.9,85.7,13.5z M91.8,22.5C90.9,22.8,90,23,89,23c-1,0-1.9-0.2-2.8-0.5c-0.8-0.4-1.6-0.9-2.2-1.5
				c-0.6-0.7-1.1-1.5-1.4-2.4c-0.3-0.9-0.5-2-0.5-3.1c0-1.1,0.2-2.1,0.5-3.1c0.3-0.9,0.8-1.7,1.4-2.4c0.6-0.7,1.3-1.2,2.2-1.5
				C87.1,8.1,88,7.9,89,7.9c1,0,1.9,0.2,2.8,0.5c0.8,0.4,1.6,0.9,2.2,1.5c0.6,0.7,1.1,1.5,1.4,2.4c0.3,0.9,0.5,2,0.5,3.1
				c0,1.1-0.2,2.1-0.5,3.1c-0.3,0.9-0.8,1.7-1.4,2.4C93.3,21.6,92.6,22.1,91.8,22.5z M74.7,22.7V2H78v20.7H74.7z M66.5,6V2.7h3.3V6
				H66.5z M66.5,22.7V8.3h3.2v14.4H66.5z M58.6,17.2v-1.9c-0.2,0.3-0.5,0.6-1,0.8c-0.5,0.2-1,0.4-1.7,0.5c-0.4,0.1-0.8,0.2-1.1,0.3
				c-0.4,0.1-0.7,0.2-1,0.4c-0.3,0.2-0.5,0.4-0.7,0.6c-0.2,0.2-0.3,0.5-0.3,0.9c0,0.6,0.2,1,0.6,1.3c0.4,0.3,1,0.5,1.7,0.5
				c0.4,0,0.9-0.1,1.3-0.2c0.4-0.2,0.8-0.4,1.1-0.7c0.3-0.3,0.6-0.6,0.8-1C58.5,18.2,58.6,17.7,58.6,17.2z M57.7,11
				c-0.5-0.4-1.1-0.6-1.8-0.6c-1,0-1.9,0.3-2.5,1c-0.6,0.6-1,1.4-1.2,2.4l-2.9-1.6c0.2-0.6,0.5-1.2,1-1.7c0.4-0.5,0.9-1,1.5-1.4
				c0.6-0.4,1.2-0.7,1.9-0.9c0.7-0.2,1.4-0.3,2.2-0.3c0.8,0,1.5,0.1,2.2,0.3c0.7,0.2,1.3,0.5,1.8,0.9c0.5,0.4,0.9,1,1.2,1.6
				c0.3,0.7,0.4,1.4,0.4,2.3v6.2c0,0.8,0,1.4,0.1,1.9c0,0.5,0.1,1,0.3,1.4h-2.5c-0.2-0.4-0.4-0.7-0.5-1c-0.1-0.3-0.2-0.6-0.2-0.9
				h-0.1c-0.2,0.2-0.4,0.5-0.6,0.8c-0.3,0.3-0.6,0.5-0.9,0.7c-0.4,0.2-0.8,0.4-1.2,0.5c-0.5,0.1-1,0.2-1.5,0.2
				c-0.7,0-1.3-0.1-1.8-0.3c-0.6-0.2-1-0.5-1.5-0.8c-0.4-0.4-0.7-0.8-1-1.3c-0.2-0.5-0.3-1.1-0.3-1.8c0-0.8,0.2-1.4,0.5-1.9
				c0.3-0.5,0.8-0.9,1.3-1.3c0.5-0.3,1.1-0.6,1.7-0.8c0.6-0.2,1.3-0.3,1.9-0.5c1.1-0.2,1.9-0.4,2.4-0.6c0.6-0.2,0.9-0.6,0.9-1.2
				C58.5,11.9,58.3,11.4,57.7,11z M45.1,19.2l1.4,2.4c-0.3,0.3-0.7,0.6-1.2,0.9c-0.6,0.3-1.3,0.5-2.1,0.5c-0.5,0-1-0.1-1.5-0.2
				c-0.5-0.1-0.9-0.4-1.2-0.7c-0.3-0.3-0.6-0.7-0.8-1.2c-0.2-0.5-0.3-1.1-0.3-1.9v-8.2H37V8.3h2.5V5.2l3.1-1.9v5h3.6v2.5h-3.6v7.9
				c0,0.6,0.1,1,0.3,1.3c0.2,0.2,0.5,0.4,0.9,0.4c0.4,0,0.7-0.1,0.9-0.4C44.9,19.7,45.1,19.5,45.1,19.2z"/>
		</g>
	</g>
</g>
</svg>
