<?xml version="1.0" encoding="UTF-8"?>
<svg width="110px" height="26px" viewBox="0 0 110 26" version="1.1" xmlns="http://www.w3.org/2000/svg" xmlns:xlink="http://www.w3.org/1999/xlink">
    <title>Combined Shape</title>
    <desc>Created by StudioNZ</desc>
    <g id="PC" stroke="none" stroke-width="1" fill="none" fill-rule="evenodd">
        <g id="00-Landing" transform="translate(-219.000000, -5772.000000)" fill="#FFFFFF">
            <g id="Group-12" transform="translate(219.000000, 5772.000000)">
                <path d="M25.9785552,25.7097287 L26.0642103,25.4273302 C26.0970034,25.3195351 26.121831,25.2090759 26.1381759,25.0997438 C26.1907276,24.8966546 26.2155552,24.6492998 26.2155552,24.3474326 C26.2155552,23.7904231 26.0833483,23.3599602 25.8226586,23.0675199 C25.5678655,22.7818425 25.0662448,22.6370569 24.3313483,22.6370569 L21.0616586,22.6370569 C20.3590379,22.6370569 19.7537621,22.5492429 19.2626931,22.3764839 C18.7704862,22.2034175 18.3528655,21.9739943 18.0217276,21.69426 C17.6942103,21.4180095 17.4251414,21.1139905 17.2226931,20.7908102 C17.0962793,20.5889507 16.9871414,20.3868861 16.8964172,20.1860512 C16.8081759,20.3854516 16.7035897,20.5866964 16.5835897,20.7877362 C16.3905552,21.111019 16.1254172,21.4162676 15.795831,21.69426 C15.4641759,21.9745066 15.0417966,22.2039298 14.5406931,22.3769962 C14.0415552,22.5494478 13.4321414,22.6370569 12.7296241,22.6370569 L9.67055517,22.6370569 C8.93576207,22.6370569 8.43414138,22.7818425 8.17965862,23.0675199 C7.91896897,23.3601651 7.78696897,23.7906281 7.78696897,24.3474326 C7.78696897,24.4893491 7.79534828,24.6253226 7.81158966,24.7521765 C7.82793448,24.874112 7.85193448,24.9811898 7.88276207,25.069926 C7.92258966,25.2002638 7.95093448,25.3265028 7.96965862,25.4508975 L8.00648621,25.6990721 L5.19196897,25.0091632 L5.17541724,24.8977818 C5.15907241,24.7878349 5.13372759,24.6674364 5.09979655,24.5397628 C5.0786931,24.403277 5.0606931,24.2590038 5.04248621,24.0895237 C5.02448621,23.9150228 5.01527931,23.7241271 5.01527931,23.5213454 C5.01527931,22.9557287 5.09358966,22.4327381 5.24793448,21.9669241 C5.40476207,21.49363 5.6576931,21.0798691 6.0001069,20.7366053 C6.3416931,20.3946736 6.78455517,20.1241613 7.3166931,19.9321385 C7.84386552,19.74237 8.49383103,19.6460512 9.24879655,19.6460512 L12.412969,19.6460512 C12.9896931,19.6460512 13.4717621,19.5817021 13.8457276,19.4548482 C14.2158655,19.3302486 14.5180379,19.1580019 14.7444862,18.9424118 C14.9739345,18.7245674 15.1565207,18.4681954 15.2873828,18.1803662 C15.4237276,17.8816755 15.5450724,17.5482486 15.6483138,17.1887951 L15.6834862,17.0661423 L18.1079,17.0661423 L18.1428655,17.1887951 C18.2455897,17.5456869 18.3669345,17.8793188 18.5040034,18.1803662 C18.6348655,18.4679905 18.8174517,18.7243624 19.0465897,18.9424118 C19.2735552,19.1580019 19.5759345,19.3302486 19.9451414,19.4546433 C20.3196241,19.5817021 20.8016931,19.6460512 21.3784172,19.6460512 L24.7532103,19.6460512 C25.5080724,19.6460512 26.1582448,19.74237 26.6856241,19.9321385 C27.2176586,20.1239564 27.6603138,20.3946736 28.0019,20.7366053 C28.3444172,21.080074 28.5975552,21.4937324 28.7543828,21.9666167 C28.9087276,22.433148 28.9870379,22.9564459 28.9870379,23.5213454 C28.9870379,23.724537 28.9821759,23.9114364 28.9733828,24.0806091 C28.9637621,24.2567495 28.9504172,24.4008178 28.9324172,24.5218311 C28.9137966,24.6623131 28.8854517,24.7974668 28.8481069,24.9207343 L28.8204862,25.0129545 L25.9785552,25.7097287 Z M5.49848621,24.7376262 L7.5751069,25.2466812 C7.56838276,25.2215769 7.56124483,25.1967799 7.5536931,25.1716755 C7.51686552,25.0666471 7.48852069,24.9411252 7.46917586,24.7947002 C7.45065862,24.6535009 7.44155517,24.5032846 7.44155517,24.3474326 C7.44155517,23.7073226 7.60200345,23.2026736 7.91845172,22.8472163 C8.24617586,22.4797704 8.81927931,22.3008634 9.67055517,22.3008634 L12.7296241,22.3008634 C13.3925207,22.3008634 13.9630379,22.2200171 14.4250379,22.0600664 C14.8854862,21.9014478 15.2705207,21.6928254 15.5694862,21.4404497 C15.8703138,21.186537 16.1109345,20.9100816 16.284831,20.6187685 C16.4628655,20.3206926 16.6045897,20.0234364 16.7056586,19.734685 L16.7454862,19.6209469 L17.0455897,19.6209469 L17.0854172,19.734685 C17.1865897,20.0229241 17.3319345,20.3192581 17.5177276,20.615592 C17.7015552,20.9091594 17.9473483,21.186537 18.2480724,21.4404497 C18.5470379,21.6930304 18.9277276,21.9016528 19.3801069,22.0605787 C19.8334172,22.2200171 20.3992793,22.3008634 21.0616586,22.3008634 L24.3313483,22.3008634 C25.182831,22.3008634 25.7560379,22.4797704 26.0835552,22.8472163 C26.4003138,23.2023662 26.5610724,23.7073226 26.5610724,24.3474326 C26.5610724,24.6822941 26.5333483,24.9498349 26.4764517,25.1658349 C26.472831,25.1909393 26.4684862,25.2173757 26.4636241,25.244222 L28.5415897,24.7348596 C28.5618655,24.6535009 28.5782103,24.5669165 28.5902103,24.4763359 C28.6067621,24.3642372 28.6193828,24.2262144 28.6283828,24.0633947 C28.6368655,23.8997552 28.6415207,23.7184915 28.6415207,23.5213454 C28.6415207,22.9913871 28.5690034,22.5028254 28.4255207,22.0696983 C28.2852448,21.6466129 28.0593138,21.2769127 27.7541414,20.970537 C27.4488655,20.665186 27.048831,20.4216224 26.5656241,20.2472239 C26.0769345,20.0715958 25.4670034,19.9822448 24.7532103,19.9822448 L21.3784172,19.9822448 C20.7627966,19.9822448 20.2424517,19.9115427 19.8315552,19.7721879 C19.4142448,19.6317059 19.0687276,19.4331252 18.8052448,19.1826964 C18.5445552,18.9348292 18.3367276,18.6435161 18.187969,18.3165446 C18.0602103,18.0354782 17.9454862,17.7287951 17.8464862,17.4023359 L15.9446931,17.4023359 C15.8451759,17.730537 15.7304517,18.0378349 15.6034172,18.3165446 C15.4545552,18.643926 15.246831,18.9352391 14.985831,19.1829013 C14.7228655,19.4331252 14.3773483,19.6315009 13.9591069,19.7724953 C13.5489345,19.9115427 13.0283828,19.9822448 12.412969,19.9822448 L9.24879655,19.9822448 C8.53500345,19.9822448 7.92517586,20.0715958 7.4366931,20.2472239 C6.95317586,20.4218273 6.55345172,20.665186 6.24796897,20.970537 C5.94300345,21.2766053 5.71707241,21.646408 5.57658966,22.0700057 C5.43352069,22.5021082 5.36079655,22.9906698 5.36079655,23.5213454 C5.36079655,23.7129583 5.36927931,23.892685 5.38614138,24.0555047 C5.40362414,24.2193491 5.4211069,24.3591139 5.43796897,24.4737742 C5.46124483,24.5588216 5.48193448,24.6490949 5.49848621,24.7376262 Z M1.89833515,8.27789227 L3.64904256,6 L13,13.9036902 L12.3690057,16.4991548 L12.267019,16.520527 L0.488621562,19 L0,16.0944883 L9.30045065,14.3353478 L1.89833515,8.27789227 Z M0.381769048,16.3687144 L0.756336742,18.5959355 L12.098663,16.2081722 L12.6281571,14.0301171 L3.69935472,6.48333218 L2.36282245,8.22240489 L10.0761532,14.5350221 L0.381769048,16.3687144 Z M19.52419,12.9807199 L17.15239,11.8973228 L17.07869,0.0823301471 L19.96859,0.153447794 L19.83519,9.36624191 L27.11249,3.41596985 L28.95869,5.51049926 L19.52419,12.9807199 Z M17.48499,11.6929551 L19.47589,12.6023816 L28.48419,5.46930074 L27.07399,3.86944044 L19.49099,10.0699625 L19.62999,0.467168382 L17.41489,0.412683088 L17.48499,11.6929551 Z M13.5001137,13 L4,5.42731611 L5.9191026,3.30116612 L13.2036078,9.34891417 L13.1336752,0.0360943105 L16,0 L15.8956065,11.915805 L13.5001137,13 Z M4.48093782,5.38907566 L13.5502388,12.6182783 L15.5607994,11.7085066 L15.6604431,0.329043538 L13.4725247,0.356845913 L13.5456911,10.0615329 L5.95315934,3.75829569 L4.48093782,5.38907566 Z M32.484422,19 L20.6199976,16.4746722 L20,13.8792075 L29.3808333,6 L31.1322219,8.3350854 L23.6985762,14.3275214 L33,16.1508787 L32.484422,19 Z M20.8915081,16.1849939 L32.2207941,18.5965375 L32.6143383,16.4215929 L22.9213166,14.521677 L30.669681,8.2753838 L29.3265312,6.48503794 L20.371259,14.0066378 L20.8915081,16.1849939 Z M100.029492,22.6576303 L100.029492,8.27720853 L103.237353,8.27720853 L103.06399,10.7311232 L103.121845,10.7311232 C103.449184,9.97034597 103.906469,9.32850237 104.494508,8.80499526 C105.082041,8.28208531 105.828499,8.02023223 106.734285,8.02023223 C107.235087,8.02023223 107.687728,8.1201564 108.092509,8.32000474 C108.497089,8.51975355 108.838967,8.79056398 109.118649,9.1331327 C109.397624,9.47550237 109.614402,9.875 109.768783,10.3312275 C109.922658,10.7881517 110,11.2731422 110,11.7866967 C110,11.9962986 109.990004,12.1909716 109.971123,12.3716114 C109.951434,12.5526493 109.93225,12.7190569 109.913369,12.8709336 C109.893781,13.0421185 109.874295,13.1943934 109.855515,13.3274597 L106.87877,15.0679716 C106.897651,15.0107441 106.922187,14.9066398 106.951064,14.7541659 C106.979941,14.60209 107.008615,14.4214502 107.037694,14.2121469 C107.066571,14.0029431 107.090703,13.7746303 107.109786,13.5272085 C107.128869,13.2801848 107.138864,13.0421185 107.138864,12.8139052 C107.138864,12.2623318 107.01326,11.7823175 106.76296,11.3730664 C106.512458,10.9642133 106.098488,10.7596872 105.520344,10.7596872 C104.730369,10.7596872 104.152124,11.1162891 103.786216,11.8293934 C103.420307,12.5427962 103.237353,13.4127536 103.237353,14.4403602 L103.237353,22.6576303 L100.029492,22.6576303 Z M85.6518243,13.5272085 C85.5072379,14.136109 85.4350456,14.7827299 85.4350456,15.4674692 C85.4350456,16.1522085 85.5072379,16.7992275 85.6518243,17.4075308 C85.7962089,18.0163318 86.0177331,18.5489953 86.3166999,19.0055213 C86.6149599,19.4620474 86.9857151,19.8186493 87.4289654,20.0752275 C87.8722158,20.3322038 88.4017939,20.4603934 89.0186086,20.4603934 C89.6156335,20.4603934 90.140769,20.3322038 90.5938133,20.0752275 C91.0461508,19.8186493 91.4218534,19.4620474 91.7206183,19.0055213 C92.0191812,18.5489953 92.2409073,18.0163318 92.3854938,17.4075308 C92.5299793,16.7992275 92.6021715,16.1522085 92.6021715,15.4674692 C92.6021715,14.7827299 92.5299793,14.136109 92.3854938,13.5272085 C92.2409073,12.9186066 92.0191812,12.3858436 91.7206183,11.9294171 C91.4218534,11.472891 91.0461508,11.1162891 90.5938133,10.8593128 C90.140769,10.6027346 89.6156335,10.4741469 89.0186086,10.4741469 C88.4017939,10.4741469 87.8722158,10.6027346 87.4289654,10.8593128 C86.9857151,11.1162891 86.6149599,11.472891 86.3166999,11.9294171 C86.0177331,12.3858436 85.7962089,12.9186066 85.6518243,13.5272085 Z M91.7787759,22.4578815 C90.9403361,22.8189621 90.020213,23 89.0186086,23 C88.0164993,23 87.0968811,22.8189621 86.2587441,22.4578815 C85.4206072,22.0969005 84.7025214,21.5877251 84.1056985,20.9312512 C83.5081687,20.2751754 83.040888,19.4808578 82.7040581,18.5489953 C82.3666224,17.6170332 82.1981065,16.5900237 82.1981065,15.4674692 C82.1981065,14.3452133 82.3666224,13.3182038 82.7040581,12.3858436 C83.040888,11.4542796 83.5081687,10.659763 84.1056985,10.0033886 C84.7025214,9.34711374 85.4206072,8.83843602 86.2587441,8.47695735 C87.0968811,8.11587678 88.0164993,7.93483886 89.0186086,7.93483886 C90.020213,7.93483886 90.9403361,8.11587678 91.7787759,8.47695735 C92.61661,8.83843602 93.3341909,9.34711374 93.9317206,10.0033886 C94.5284426,10.659763 94.9910788,11.4542796 95.3189225,12.3858436 C95.6460595,13.3182038 95.8101328,14.3452133 95.8101328,15.4674692 C95.8101328,16.5900237 95.6460595,17.6170332 95.3189225,18.5489953 C94.9910788,19.4808578 94.5284426,20.2751754 93.9317206,20.9312512 C93.3341909,21.5877251 92.61661,22.0969005 91.7787759,22.4578815 Z M74.7424136,22.6576303 L74.7424136,2 L77.9793527,2 L77.9793527,22.6576303 L74.7424136,22.6576303 Z M66.4770567,5.99437915 L66.4770567,2.65627488 L69.7716487,2.65627488 L69.7716487,5.99437915 L66.4770567,5.99437915 Z M66.5061355,22.6576303 L66.5061355,8.27720853 L69.7427718,8.27720853 L69.7427718,22.6576303 L66.5061355,22.6576303 Z M58.6165823,17.1507536 L58.6165823,15.2106919 C58.4042462,15.5343507 58.0721618,15.791128 57.6196224,15.9810237 C57.1664772,16.1715166 56.6031757,16.3425024 55.9290111,16.4945782 C55.5433126,16.5900237 55.1725574,16.6847725 54.8162407,16.7798199 C54.459621,16.8752654 54.1371286,17.003455 53.8481577,17.1649858 C53.5590858,17.3269147 53.3279696,17.5216872 53.1546072,17.7500995 C52.9811438,17.9783128 52.8945131,18.2735071 52.8945131,18.6345877 C52.8945131,19.1865592 53.0867566,19.6329336 53.472455,19.9754028 C53.8576487,20.317872 54.4260996,20.4890569 55.1776058,20.4890569 C55.6204523,20.4890569 56.0490622,20.4133175 56.4634357,20.2606445 C56.8775062,20.1087678 57.2437178,19.88991 57.5617676,19.6045687 C57.8796155,19.319327 58.1348631,18.9725782 58.3275104,18.5632275 C58.5201577,18.1543744 58.6165823,17.6836161 58.6165823,17.1507536 Z M57.7496694,11.0449289 C57.2483624,10.6646398 56.6319516,10.4741469 55.9001342,10.4741469 C54.859556,10.4741469 54.0405021,10.7930284 53.4435781,11.4300948 C52.8460484,12.0676588 52.4510609,12.8616777 52.2587165,13.8124502 L49.3975809,12.2145592 C49.6287981,11.6061564 49.9466459,11.0403507 50.3512254,10.5171422 C50.755805,9.9941327 51.2421687,9.54248341 51.8108216,9.16169668 C52.3788686,8.78140758 53.0100207,8.48153555 53.7036722,8.26277725 C54.3972227,8.04451659 55.1387331,7.93483886 55.9290111,7.93483886 C56.7186833,7.93483886 57.4606985,8.03476303 58.154249,8.23451185 C58.8480014,8.43416114 59.4497718,8.74796682 59.9604689,9.17582938 C60.4707621,9.60369194 60.8753416,10.1460095 61.1743084,10.8023839 C61.4728714,11.4586588 61.6221024,12.2337678 61.6221024,13.1275118 L61.6221024,19.319327 C61.6221024,20.1179242 61.6462337,20.7601659 61.6941936,21.245455 C61.7424564,21.7304455 61.8340346,22.2011043 61.9689281,22.6576303 L59.4834952,22.6576303 C59.2525809,22.2771422 59.0885076,21.9542796 58.9923859,21.6876493 C58.8955574,21.4213175 58.8189225,21.1170664 58.7611687,20.7743981 L58.674538,20.7743981 C58.5201577,21.0217204 58.312971,21.2737204 58.0530788,21.5306967 C57.7929848,21.7874739 57.4846279,22.0255403 57.1283112,22.2438009 C56.7714896,22.4625592 56.3670111,22.6432986 55.9145726,22.786019 C55.4616293,22.9287393 54.9464896,23 54.3683458,23 C53.7131632,23 53.1063444,22.9045545 52.5476874,22.7146588 C51.9886266,22.5248626 51.5022628,22.2487773 51.0880913,21.8872986 C50.6736169,21.5261185 50.3512254,21.0838246 50.1200083,20.5604171 C49.8888921,20.0376066 49.7732835,19.4433365 49.7732835,18.7773081 C49.7732835,17.9975213 49.9417994,17.3505024 50.2790332,16.8367488 C50.6157621,16.3232938 51.0494205,15.9002085 51.5796044,15.5672938 C52.1091826,15.2347773 52.6921729,14.9778009 53.3279696,14.7970616 C53.9637663,14.6163223 54.589668,14.4592701 55.2064827,14.3262038 C56.2658409,14.117 57.0800484,13.903019 57.6484993,13.6840616 C58.2166473,13.4657014 58.5009737,13.080436 58.5009737,12.528564 C58.5009737,11.9199621 58.2506736,11.4257156 57.7496694,11.0449289 Z M45.1497483,19.2337346 L46.5657261,21.6305213 C46.3152241,21.9158626 45.9055961,22.215436 45.3375491,22.5290427 C44.7689972,22.8430474 44.0804952,23 43.2711342,23 C42.7316611,23 42.2308589,22.9331185 41.7684246,22.8003507 C41.3059903,22.6670853 40.9108008,22.4437488 40.5835629,22.1298436 C40.2557192,21.8160379 39.9956252,21.4023081 39.8033817,20.8883555 C39.6104315,20.3749005 39.5141079,19.7472891 39.5141079,19.0055213 L39.5141079,10.8165166 L37,10.8165166 L37,8.27720853 L39.5141079,8.27720853 L39.5141079,5.16721801 L42.6354385,3.31264929 L42.6354385,8.27720853 L46.1901245,8.27720853 L46.1901245,10.8165166 L42.6354385,10.8165166 L42.6354385,18.719981 C42.6354385,19.3291801 42.7316611,19.7568436 42.9243084,20.0040664 C43.1168548,20.2513886 43.4058257,20.3749005 43.7915242,20.3749005 C44.157231,20.3749005 44.4510484,20.2465118 44.6728755,19.9897346 C44.8940968,19.7327583 45.0530207,19.4808578 45.1497483,19.2337346 Z" id="Combined-Shape"></path>
            </g>
        </g>
    </g>
</svg>