<?xml version="1.0" encoding="UTF-8"?>
<svg width="277px" height="68px" viewBox="0 0 277 68" version="1.1" xmlns="http://www.w3.org/2000/svg" xmlns:xlink="http://www.w3.org/1999/xlink">
    <title>Logo NU:NC</title>
    <desc>Created by Studio NZ</desc>
    <g id="Movil-320px" stroke="none" stroke-width="1" fill="none" fill-rule="evenodd">
        <g id="Isotipo" transform="translate(-23.000000, -250.000000)" fill="#000">
            <path d="M30.6066096,317 L30.6066096,258.353709 L34.7809995,258.353709 L56.8589564,317 L73,317 L73,251 L65.3005632,251 L65.3005632,309.646291 L61.9610215,309.646291 L39.8830646,251 L23,251 L23,317 L30.6066096,317 Z M138,294.715609 L138,251 L129.673241,251 L129.673241,296.924413 C129.673241,301.649793 128.470563,305.10092 126.065058,307.27809 C123.659554,309.456738 119.804088,310.545323 114.5,310.545323 C109.194574,310.545323 105.340595,309.472555 102.93509,307.324212 C100.529585,305.177198 99.3267588,301.710106 99.3267588,296.924413 L99.3267588,251 L91,251 L91,294.715609 C91,301.772045 93.14247,307.416159 97.4300851,311.649725 C101.716363,315.883143 107.406384,318 114.5,318 C121.592279,318 127.2823,315.883143 131.569915,311.649725 C135.856192,307.416159 138,301.772045 138,294.715609 L138,294.715609 Z M154,317 L164,317 L164,307 L154,307 L154,317 Z M154,280 L164,280 L164,270 L154,270 L154,280 Z M187.606736,317 L187.606736,258.353709 L191.781113,258.353709 L213.859005,317 L230,317 L230,251 L222.300437,251 L222.300437,309.646291 L218.960905,309.646291 L196.883163,251 L180,251 L180,317 L187.606736,317 Z M290.923523,310.536582 C295.934464,305.561019 298.959907,299.265161 300,291.647676 L290.37351,291.647676 C290.250254,297.790948 288.677377,302.474213 285.651933,305.699102 C282.62649,308.924138 278.54667,310.536582 273.412621,310.536582 C267.545072,310.536582 263.066916,308.771551 259.981244,305.23853 C256.894246,301.706841 255.35141,296.470653 255.35141,289.528485 L255.35141,278.563718 C255.35141,271.622882 256.894246,266.370858 259.981244,262.807645 C263.066916,259.245765 267.545072,257.463418 273.412621,257.463418 C278.54667,257.463418 282.62649,259.075862 285.651933,262.300898 C288.677377,265.525787 290.250254,270.210532 290.37351,276.352324 L300,276.352324 C298.959907,268.736319 295.934464,262.438981 290.923523,257.463418 C285.911257,252.487855 280.07375,250 273.412621,250 C265.588143,250 259.064554,253.271064 253.838762,259.813043 C248.61297,266.355022 246,274.417391 246,284 C246,293.582609 248.61297,301.644978 253.838762,308.186957 C259.064554,314.728936 265.588143,318 273.412621,318 C280.07375,318 285.911257,315.512145 290.923523,310.536582 L290.923523,310.536582 Z" id="Fill-1" style="mix-blend-mode: exclusion;"></path>
        </g>
    </g>
</svg>