<svg xmlns="http://www.w3.org/2000/svg" viewBox="0 0 1868.94 459.46"><defs><style>.cls-1{isolation:isolate;}.cls-2{mix-blend-mode:difference;}.cls-3{fill:#1d1d1b;}</style></defs><title>logo</title><g class="cls-1"><g id="Capa_1" data-name="Capa 1"><g class="cls-2"><path class="cls-3" d="M1836.88,731q51-50.43,61.64-127.63h-65.37q-1.26,62.26-32.06,95T1718,731q-59.76,0-91.21-35.8t-31.44-106.15V515q0-70.35,31.44-106.46T1718,372.44q52.3,0,83.12,32.68t32.06,94.95h65.37q-10.59-77.19-61.64-127.63T1718,322q-79.7,0-132.92,66.3t-53.23,163.43q0,97.13,53.23,163.43T1718,781.47q67.86,0,118.91-50.43m-693.54,44.21V378h28l148.17,397.21h108.33v-447h-51.67V725.44h-22.41L1205.6,328.23H1092.29v447ZM981.48,457.73H913v68.48h68.48Zm0,249H913v68.49h68.48ZM805.3,624V328.23h-56V638.9q0,48-24.28,70T647.16,731q-53.55,0-77.82-21.79T545.06,638.9V328.23H489V624q0,71.6,43.27,114.55t114.86,43q71.6,0,114.87-43T805.3,624M80.63,775.25V378h28L256.82,775.25H365.15v-447H313.47V725.44H291.06L142.89,328.23H29.58v447Z" transform="translate(-29.58 -322.01)"/></g></g></g></svg>