<?xml version="1.0" encoding="utf-8"?>
<!-- Generator: Adobe Illustrator 23.0.1, SVG Export Plug-In . SVG Version: 6.00 Build 0)  -->
<svg version="1.1" id="Capa_1" xmlns="http://www.w3.org/2000/svg" xmlns:xlink="http://www.w3.org/1999/xlink" x="0px" y="0px"
	 viewBox="0 0 473.8 473.8" style="enable-background:new 0 0 473.8 473.8;" xml:space="preserve">
<style type="text/css">
	.st0{fill:#56CC7E;}
	.st1{fill:#FFFFFF;}
</style>
<circle class="st0" cx="236.9" cy="236.9" r="236.9"/>
<g>
	<g>
		<path class="st1" d="M289.7,258.6c-3.7-3.9-8.2-6-13-6c-4.7,0-9.3,2-13.1,5.9l-12.1,12.1c-1-0.5-2-1-3-1.5c-1.4-0.7-2.7-1.3-3.8-2
			c-11.4-7.2-21.7-16.6-31.6-28.8c-4.8-6.1-8-11.2-10.4-16.4c3.1-2.9,6.1-5.9,8.9-8.8c1.1-1.1,2.2-2.2,3.2-3.3
			c8.1-8.1,8.1-18.5,0-26.6l-10.5-10.5c-1.2-1.2-2.4-2.4-3.6-3.6c-2.3-2.4-4.7-4.8-7.2-7.1c-3.7-3.7-8.2-5.6-12.9-5.6
			s-9.2,2-13.1,5.6c0,0,0,0-0.1,0.1l-13.1,13.2c-4.9,4.9-7.7,10.9-8.3,17.9c-0.9,11.2,2.4,21.7,4.9,28.5c6.2,16.8,15.5,32.3,29.4,49
			c16.8,20.1,37.1,36,60.2,47.1c8.8,4.2,20.6,9.1,33.8,10c0.8,0,1.7,0.1,2.4,0.1c8.9,0,16.3-3.2,22.2-9.5c0-0.1,0.1-0.1,0.2-0.2
			c2-2.4,4.3-4.6,6.7-7c1.7-1.6,3.3-3.2,5-5c3.8-4,5.8-8.6,5.8-13.3c0-4.8-2-9.3-5.9-13.2L289.7,258.6z M303.5,299.1
			C303.5,299.1,303.5,299.1,303.5,299.1c-1.5,1.6-3,3.1-4.7,4.7c-2.5,2.4-5,4.9-7.4,7.7c-3.9,4.1-8.5,6.1-14.4,6.1
			c-0.6,0-1.2,0-1.8,0c-11.4-0.7-22-5.2-30-9c-21.7-10.5-40.8-25.5-56.7-44.4c-13.1-15.8-21.9-30.4-27.7-46.1
			c-3.6-9.6-4.9-17-4.3-24c0.4-4.5,2.1-8.2,5.3-11.4l13.1-13.1c1.9-1.8,3.9-2.7,5.8-2.7c2.4,0,4.4,1.5,5.6,2.7c0,0,0.1,0.1,0.1,0.1
			c2.3,2.2,4.6,4.5,6.9,6.9c1.2,1.2,2.4,2.5,3.6,3.7l10.5,10.5c4.1,4.1,4.1,7.8,0,11.9c-1.1,1.1-2.2,2.2-3.3,3.3
			c-3.2,3.3-6.3,6.4-9.6,9.4c-0.1,0.1-0.2,0.1-0.2,0.2c-3.3,3.3-2.7,6.5-2,8.7c0,0.1,0.1,0.2,0.1,0.3c2.7,6.6,6.6,12.8,12.4,20.2
			l0,0c10.6,13.1,21.8,23.2,34.1,31c1.6,1,3.2,1.8,4.7,2.6c1.4,0.7,2.7,1.3,3.8,2c0.2,0.1,0.3,0.2,0.5,0.3c1.3,0.7,2.5,1,3.8,1
			c3.2,0,5.2-2,5.8-2.7l13.1-13.1c1.3-1.3,3.4-2.9,5.8-2.9c2.4,0,4.3,1.5,5.5,2.8c0,0,0,0,0.1,0.1l21.2,21.2
			C307.4,291,307.4,295,303.5,299.1z"/>
		<path class="st1" d="M244.3,189.2c10.1,1.7,19.2,6.5,26.5,13.8s12,16.4,13.8,26.5c0.4,2.5,2.6,4.3,5.1,4.3c0.3,0,0.6,0,0.9-0.1
			c2.8-0.5,4.7-3.1,4.3-6c-2.1-12.2-7.8-23.3-16.6-32.1c-8.8-8.8-19.9-14.6-32.1-16.6c-2.8-0.5-5.5,1.4-6,4.2
			S241.4,188.7,244.3,189.2z"/>
		<path class="st1" d="M327.7,226.2c-3.4-20.1-12.9-38.3-27.4-52.8c-14.5-14.5-32.8-24-52.8-27.4c-2.8-0.5-5.5,1.4-6,4.2
			c-0.5,2.8,1.4,5.5,4.3,6c17.9,3,34.2,11.5,47.2,24.5c13,13,21.4,29.3,24.5,47.2c0.4,2.5,2.6,4.3,5.1,4.3c0.3,0,0.6,0,0.9-0.1
			C326.3,231.7,328.2,229,327.7,226.2z"/>
	</g>
</g>
</svg>
