<?xml version="1.0" encoding="UTF-8"?>
<svg width="200px" height="58px" viewBox="0 0 200 58" version="1.1" xmlns="http://www.w3.org/2000/svg" xmlns:xlink="http://www.w3.org/1999/xlink">
    <!-- Generator: Sketch 55.1 (78136) - https://sketchapp.com -->
    <title>IconGooleplay</title>
    <desc>Created with Sketch.</desc>
    <g id="PC" stroke="none" stroke-width="1" fill="none" fill-rule="evenodd">
        <g id="00-Landing" transform="translate(-440.000000, -762.000000)">
            <g id="app-store" transform="translate(160.000000, 762.000000)">
                <g id="IconGooleplay" transform="translate(280.000000, 0.000000)">
                    <rect id="Rectangle-1" stroke="#000000" stroke-width="2" x="1" y="1" width="198" height="56" rx="10"></rect>
                    <path d="M132.204233,34.4775169 L130.867385,35.7481944 C130.558436,35.9192312 130.251143,36.1178006 129.944678,36.2588016 C129.016174,36.6834732 128.071932,36.7902669 127.232882,36.7902669 C126.339994,36.7902669 124.940197,36.7318641 123.512238,35.6914603 C121.528502,34.2839534 120.66129,31.8644097 120.66129,29.7560694 C120.66129,25.390879 124.188945,23.25 127.066397,23.25 C128.071932,23.25 129.1048,23.5036349 129.944678,24.0384375 C131.341162,24.9687103 131.702294,26.1776478 131.902738,26.8250843 L125.331974,29.4990972 L123.180097,29.667631 C123.876682,33.2468869 126.280358,35.3285288 128.936659,35.3285288 C130.263567,35.3285288 131.248395,34.8921766 132.152051,34.4424752 C132.152051,34.4424752 132.333445,34.3473621 132.204233,34.4775169 L132.204233,34.4775169 Z M128.240073,27.3582183 L123.151935,29.5825298 C123.123774,29.0769286 123.06745,28.5713274 123.06745,28.0965962 C123.06745,25.0546458 125.163833,24.1786042 126.280358,24.1786042 C127.787831,24.1786042 129.050962,25.4776488 129.050962,26.6023194 C129.050962,26.9944524 128.773487,27.1629861 128.240073,27.3582183 Z M118.465514,34.2597579 C118.465514,35.3535585 118.659332,35.5237609 119.577897,35.6096964 C120.056644,35.6664306 120.533735,35.6914603 121.005856,35.7481944 L119.972159,36.3680982 L115.046365,36.3680982 C115.692425,35.5237609 115.803415,35.439494 115.803415,34.8771587 L115.803415,34.2489117 L115.792647,17.5090069 L113.617578,17.5090069 L115.711475,16.4927986 L119.708766,16.4927986 C118.842382,16.9983998 118.58313,17.3062659 118.47214,18.2916042 L118.465514,34.2597579 Z M110.826266,24.6316429 C111.468185,25.1631081 112.807517,26.2911161 112.807517,28.4303264 C112.807517,30.5153056 111.640468,31.4981409 110.463479,32.4284137 C110.102347,32.7946825 109.679923,33.1918214 109.679923,33.8058849 C109.679923,34.429126 110.102347,34.7670278 110.406327,35.018994 L111.416003,35.8040942 C112.643518,36.8478353 113.762527,37.8048065 113.762527,39.7487847 C113.762527,42.3969335 111.218044,45.0676091 106.409865,45.0676091 C102.359564,45.0676091 100.401505,43.1244653 100.401505,41.0411548 C100.401505,40.0274494 100.902616,38.5915754 102.555867,37.6079058 C104.288634,36.5408036 106.635986,36.3981339 107.893319,36.3147014 C107.500713,35.8040942 107.052612,35.2692917 107.052612,34.3965873 C107.052612,33.9193532 107.195077,33.6348482 107.332571,33.2994494 C107.026935,33.3286508 106.718814,33.3586865 106.438855,33.3586865 C103.474432,33.3586865 101.798817,31.1310377 101.798817,28.9359276 C101.798817,27.6410546 102.385241,26.2043462 103.589564,25.1631081 C105.183179,23.8415367 107.083258,23.6137659 108.593217,23.6137659 L114.353092,23.6137659 L112.562346,24.6316429 L110.826266,24.6316429 Z M108.845843,37.1306716 C108.616409,37.1006359 108.478914,37.1006359 108.202268,37.1006359 C107.948813,37.1006359 106.438855,37.1557014 105.26932,37.5511716 C104.650593,37.7789425 102.862332,38.4522431 102.862332,40.452121 C102.862332,42.4478274 104.793058,43.8870387 107.779844,43.8870387 C110.463479,43.8870387 111.888124,42.5913313 111.888124,40.8467569 C111.888124,39.4108829 110.966246,38.6533155 108.845843,37.1306716 L108.845843,37.1306716 Z M109.649277,31.7809772 C109.206974,32.2265069 108.453237,32.5694147 107.752511,32.5694147 C105.35132,32.5694147 104.259644,29.4423631 104.259644,27.5567877 C104.259644,26.8250843 104.40128,26.0641796 104.87423,25.4776488 C105.319845,24.9111419 106.105057,24.544873 106.829804,24.544873 C109.153136,24.544873 110.35166,27.698623 110.35166,29.7235308 C110.35166,30.2333036 110.295337,31.1310377 109.649277,31.7809772 Z M93.4969437,36.7318641 C89.0540374,36.7318641 86.6768672,33.2468869 86.6768672,30.0914683 C86.6768672,26.4045843 89.6653097,23.25 93.9160546,23.25 C98.0251631,23.25 100.598636,26.4905198 100.598636,29.8928988 C100.598636,33.2160169 98.0549813,36.7318641 93.4969437,36.7318641 Z M96.992295,34.4541558 C96.3487197,35.3535585 95.2330234,35.8866925 94.1396908,35.8866925 C90.7520161,35.8866925 89.3870069,31.2987371 89.3870069,28.5170962 C89.3870069,27.3023185 89.5816532,26.0641796 90.6733293,25.0788413 C91.3425814,24.4864702 92.2710859,24.1235387 93.1929641,24.1235387 C96.6593256,24.1235387 97.8321733,28.852495 97.8321733,31.3321101 C97.8321733,32.4284137 97.6681734,33.5530843 96.992295,34.4541558 Z M78.6218217,36.7318641 C74.1780871,36.7318641 71.8050583,33.2468869 71.8050583,30.0914683 C71.8050583,26.4045843 74.7943292,23.25 79.0434174,23.25 C83.1500411,23.25 85.7210294,26.4905198 85.7210294,29.8928988 C85.7210294,33.2160169 83.1806875,36.7318641 78.6218217,36.7318641 Z M82.1180013,34.4541558 C81.4727694,35.3535585 80.3587297,35.8866925 79.2678819,35.8866925 C75.8860052,35.8866925 74.515198,31.2987371 74.515198,28.5170962 C74.515198,27.3023185 74.7090161,26.0641796 75.8023487,25.0788413 C76.4732574,24.4864702 77.3918225,24.1235387 78.3170138,24.1235387 C81.7800622,24.1235387 82.956223,28.852495 82.956223,31.3321101 C82.956223,32.4284137 82.78891,33.5530843 82.1180013,34.4541558 Z M70.0283927,35.754869 L66.2812436,36.6192302 C64.7630021,36.8603502 63.3996494,37.0722688 61.9559534,37.0722688 C54.7283619,37.0722688 51.9743232,31.7133968 51.9743232,27.5192431 C51.9743232,22.3973194 55.8763612,17.6483393 62.5589429,17.6483393 C63.9728208,17.6483393 65.3328603,17.857755 66.5719707,18.1981597 C68.535828,18.7538204 69.4543931,19.4388016 70.0283927,19.8401121 L67.8516668,21.9225883 L66.93393,22.129501 L67.5882731,21.0790853 C66.702011,20.2072153 65.0727797,18.5978016 61.9808018,18.5978016 C57.8468448,18.5978016 54.7283619,21.7632321 54.7283619,26.3845605 C54.7283619,31.3479623 58.2891476,36.0168472 64.0001541,36.0168472 C65.6782541,36.0168472 66.5421525,35.6772768 67.3265359,35.3602331 L67.3265359,31.1051736 L63.3698313,31.3195952 L65.4670421,30.1849127 L71.0198467,30.1849127 L70.3406552,30.8431954 C70.1576048,31.0000486 70.1327563,31.0534454 70.0814028,31.2636954 C70.0540695,31.5039812 70.0283927,32.2682232 70.0283927,32.536876 L70.0283927,35.754869 Z M140.260935,34.5976597 L140.260935,41.7686865 L138.847057,41.7686865 L138.847057,23.5211558 L140.260935,23.5211558 L140.260935,25.5994603 C141.181985,24.2561964 142.865054,23.1915972 144.8198,23.1915972 C148.325919,23.1915972 150.687352,25.8706161 150.687352,30.1114921 C150.687352,34.324001 148.325919,37.0589196 144.8198,37.0589196 C142.974387,37.0589196 141.321136,36.1002798 140.260935,34.5976597 Z M149.168283,30.1114921 C149.168283,33.3127986 147.514203,35.7715556 144.581255,35.7715556 C142.759862,35.7715556 141.017985,34.2772788 140.260935,33.0174474 L140.260935,27.1763353 C141.017985,25.9190069 142.759862,24.4772927 144.581255,24.4772927 C147.514203,24.4772927 149.168283,26.9151915 149.168283,30.1114921 Z M152.618078,18.4826647 L154.031128,18.4826647 L154.031128,36.7301954 L152.618078,36.7301954 L152.618078,18.4826647 Z M169.896047,40.5889504 C170.19837,40.7249454 170.71439,40.808378 171.041562,40.808378 C171.906289,40.808378 172.50845,40.452121 173.049318,39.1939583 L174.08053,36.8403264 L168.511159,23.5211558 L170.088209,23.5211558 L174.865741,35.0632133 L179.59689,23.5211558 L181.196303,23.5211558 L174.40356,39.6353165 C173.698691,41.295624 172.589621,42.0940734 171.06641,42.0940734 C170.609198,42.0940734 170.006209,42.0123095 169.653361,41.9030129 L169.896047,40.5889504 Z M165.766232,36.6909821 C165.671808,36.2329375 165.600575,35.829124 165.548394,35.4920565 C165.505323,35.1558234 165.480474,34.8120813 165.480474,34.462499 C164.995929,35.1791845 164.309283,35.7757272 163.432132,36.2454524 C162.554153,36.7185149 161.720073,36.9504573 160.576215,36.9504573 C159.198781,36.9504573 158.129469,36.6092183 157.366621,35.9167282 C156.606258,35.2250724 156.223591,34.288125 156.223591,33.1025486 C156.223591,31.9186409 156.777712,30.957498 157.882641,30.2224573 C158.987569,29.4840794 160.415528,29.1169762 162.183082,29.1169762 L165.480474,29.1169762 L165.480474,27.4758581 C165.480474,26.5305675 165.160757,25.7871835 164.522152,25.2482093 C163.881061,24.7084008 162.981547,24.4355764 161.815325,24.4355764 C160.749326,24.4355764 159.884599,24.6850397 159.226115,25.1706171 C158.573428,25.6662063 158.2446,26.2802698 158.2446,27.0203165 L156.797591,27.0203165 L156.767773,26.9493988 C156.715591,25.9515456 157.168661,25.0763383 158.131954,24.3204395 C159.091105,23.565375 160.347609,23.1857569 161.894012,23.1857569 C163.435445,23.1857569 164.682839,23.5595347 165.622939,24.3054216 C166.562211,25.0437996 167.033504,26.1109018 167.033504,27.5058938 L167.033504,34.0219752 C167.033504,34.4900317 167.055867,34.9422361 167.113847,35.3827599 C167.173483,35.8241181 167.268736,36.2646419 167.395463,36.6909821 L165.766232,36.6909821 Z M160.749326,35.6530813 C161.950335,35.6530813 162.813405,35.3827599 163.695526,34.8479573 C164.571849,34.3164921 165.168212,33.6231677 165.480474,32.7838363 L165.480474,30.2474871 L162.167345,30.2474871 C160.90173,30.2474871 159.853953,30.5294891 159.029812,31.098499 C158.204014,31.6658403 157.785732,32.3524901 157.785732,33.1509395 C157.785732,33.9043353 158.050782,34.5067183 158.57757,34.9630942 C159.106014,35.4244762 159.828276,35.6530813 160.749326,35.6530813 L160.749326,35.6530813 Z" id="Fill-1" fill="#000000"></path>
                    <path d="M17.751086,41.4225402 C17.2961299,41.3007855 17,40.8520137 17,40.1575596 L17,17.2346527 C17,16.5914824 17.2507375,16.1577109 17.6482049,16 L17.6482049,16 L28.9862582,28.7746103 L17.751086,41.4225402 L17.751086,41.4225402 Z M19.3118505,40.9359604 L32.9592886,33.2510326 L29.635261,29.5058433 L19.3118505,40.9359604 L19.3118505,40.9359604 Z M33.053266,24.1961999 L19.5960198,16.6166086 L29.6549388,28.0218471 L33.053266,24.1961999 L33.053266,24.1961999 Z M33.9663293,24.710469 L39.2381373,27.6797355 C40.2362911,28.2419306 40.2454192,29.1481828 39.2381373,29.7153874 L33.8329577,32.759066 L30.3074057,28.7616423 L33.9663293,24.710469 L33.9663293,24.710469 Z" id="google-play" fill="#000000"></path>
                </g>
            </g>
        </g>
    </g>
</svg>